<?xml version="1.0" encoding="UTF-8"?><svg id="_イヤー_2" xmlns="http://www.w3.org/2000/svg" viewBox="0 0 1770.02 478.27"><g id="city"><g><path d="M1563.72,362.32h6.41v7.97h-10.78c-2.12,0-3.11-1.01-3.11-3.19v-14.45c0-.8,.24-1.45,.74-1.99,.49-.53,1.17-.79,2.07-.79h16.36l.05-4.31h-18.6c-1.76,0-3.29,.44-4.53,1.32-1.6,1.11-2.41,2.73-2.41,4.8v16.72c0,1.71,.54,3.15,1.59,4.26,1.28,1.31,3.16,1.98,5.57,1.98h19.12v-16.83h-12.47v4.5Zm1-3.5h10.47v14.83h-18.12c-2.13,0-3.77-.56-4.85-1.67-.88-.93-1.31-2.1-1.31-3.57v-16.72c0-1.75,.65-3.06,1.98-3.98,1.08-.76,2.41-1.14,3.96-1.14h17.59l-.03,2.31h-15.37c-1.18,0-2.13,.37-2.81,1.11-.67,.72-1.01,1.62-1.01,2.67v14.45c0,2.74,1.42,4.19,4.11,4.19h11.78v-9.97h-6.41v-2.5Z"/><path d="M1596.04,356.81c-1.22-.02-3.29-.04-6.23-.04-1.86,0-2.88,1-2.88,2.81v3.44h11.73v-3.59c0-1-.21-1.67-.64-2.05-.4-.36-1.05-.54-1.98-.57Zm1.61,5.21h-9.73v-2.44c0-1.27,.56-1.81,1.88-1.81,2.92,0,4.99,.01,6.2,.04,.88,.03,1.22,.21,1.34,.32,.09,.08,.3,.36,.3,1.3v2.59Z"/><path d="M1603.42,359.06c0-1.62-.5-2.94-1.49-3.93s-2.28-1.49-3.85-1.49l-9.98-.07c-1.47,0-2.84,.49-4.07,1.45-1.41,1.11-2.13,2.53-2.13,4.23v9.2c0,1.89,.59,3.44,1.75,4.58,1.16,1.14,2.69,1.74,4.55,1.76l13.94,.08,.05-4.43-11.57-.04c-2.36,0-2.67-1.11-2.67-2.08l-.03-2.36h15.53l-.04-6.91Zm-16.5,5.91l.04,3.37c0,1.4,.64,3.07,3.66,3.07l10.56,.04-.03,2.42-12.94-.07c-1.62-.02-2.88-.51-3.86-1.48-.98-.97-1.45-2.23-1.45-3.87v-9.2c0-1.39,.57-2.52,1.75-3.44,1.05-.82,2.21-1.23,3.45-1.23l9.98,.07c1.31,0,2.34,.39,3.15,1.19,.8,.8,1.19,1.86,1.19,3.22l.03,5.9h-15.53Z"/><path d="M1611.28,355.06c-1.36,1.09-2.05,2.51-2.05,4.23v9.12c0,1.9,.62,3.45,1.83,4.61,1.21,1.15,2.77,1.75,4.66,1.78l13.01,.08,.05-4.28-10.63-.04c-1.84,0-2.67-.75-2.67-2.44l-.04-8.45c0-.84,.24-1.81,2.14-1.81l11.38,.08v-4.32h-13.68c-1.48,0-2.82,.49-4,1.45Zm16.68,1.86l-10.37-.07c-2.03,0-3.14,1-3.14,2.81l.04,8.45c0,1.57,.64,3.44,3.66,3.44l9.62,.04-.03,2.28-12.01-.07c-1.65-.02-2.95-.51-3.98-1.5-1.02-.98-1.52-2.25-1.52-3.88v-9.12c0-1.42,.55-2.54,1.68-3.45,1.01-.83,2.11-1.23,3.37-1.23h12.68v2.31Z"/><path d="M1653.82,355.36l.34-1.38h-5.32l-8.71,6.98v-16.18h-5.95v30.05h5.92v-8.61l1.49-1.25,7.06,9.79h6.38v-1.34l-9.11-11.84,7.9-6.21Zm.21,18.39h-4.87l-7.39-10.25-2.68,2.25v8.07h-3.92v-28.05h3.95v17.26l10.06-8.06h3.49l-8.17,6.41,9.51,12.36Z"/><path d="M1673.19,356.85h-6.11c-2.77,0-3.18,1.76-3.18,2.81l.04,8.49c0,1.55,.63,3.41,3.67,3.44h5.03c3.02-.04,3.66-1.89,3.66-3.44v-8.49c0-1.81-1.1-2.81-3.11-2.81Zm2.11,11.3c0,1.67-.82,2.42-2.67,2.44h-5.02c-1.85-.02-2.67-.77-2.67-2.44l-.04-8.49c0-.84,.25-1.81,2.18-1.81h6.11c1.87,0,2.11,.97,2.11,1.81v8.49Z"/><path d="M1679.36,354.99c-1.11-.94-2.42-1.42-3.9-1.42h-10.72c-1.46,0-2.78,.49-3.94,1.46-1.28,1.09-1.93,2.51-1.93,4.22v9.35c0,1.89,.59,3.44,1.75,4.6s2.69,1.75,4.56,1.75h9.87c1.87,0,3.39-.58,4.52-1.71,1.14-1.13,1.71-2.67,1.71-4.56v-9.53c0-1.71-.65-3.11-1.93-4.14Zm.93,13.67c0,1.64-.46,2.9-1.42,3.85-.95,.95-2.2,1.42-3.82,1.42h-9.87c-1.61,0-2.88-.48-3.85-1.46s-1.45-2.25-1.45-3.89v-9.35c0-1.42,.51-2.55,1.57-3.45,.98-.82,2.06-1.22,3.29-1.22h10.72c1.25,0,2.32,.39,3.26,1.19,1.05,.85,1.57,1.96,1.57,3.37v9.53Z"/><path d="M1702.19,370.44h-7.28c-.98,0-2.11-.3-2.11-2.66l.04-14.02h-5.92l.04,14.5c0,1.88,.57,3.45,1.7,4.66,1.14,1.22,2.67,1.83,4.57,1.83l14.91,.04,.04-21.07h-5.91l-.07,16.72Zm1.07-15.72h3.92l-.04,19.07-13.91-.04c-1.63,0-2.89-.5-3.84-1.52-.96-1.03-1.43-2.33-1.43-3.98l-.04-13.5h3.91l-.04,13.02c0,3.03,1.69,3.67,3.11,3.67h8.28l.07-16.72Z"/><path d="M67.4,296.31h6.98v-13.03h-6.98v13.03Zm1-12.03h4.98v11.03h-4.98v-11.03Z"/><path d="M357.78,350.14h41.53v-8.69h-41.53v8.69Zm1-7.69h39.53v6.69h-39.53v-6.69Z"/><polygon points="1727.95 477.27 1727.95 328.61 1530.13 328.61 1530.13 477.27 1513.52 477.27 1513.52 334.32 1499.19 334.32 1499.19 320.17 1461.73 320.17 1461.73 334.32 1447.4 334.32 1447.4 368.32 1428.39 368.32 1428.39 334.32 1414.06 334.32 1414.06 320.17 1376.59 320.17 1376.59 334.32 1362.27 334.32 1362.27 477.27 1342.19 477.27 1342.19 244.57 1319.05 244.57 1319.05 250.57 1227.77 250.57 1227.77 244.57 1204.63 244.57 1204.63 477.27 1182.13 477.27 1182.13 376.45 1163.64 376.45 1163.64 0 1004.14 0 1004.14 376.45 985.65 376.45 985.65 477.27 973.68 477.27 973.68 149.35 852.67 202.38 852.67 477.27 833.1 477.27 833.1 150.86 582.78 150.86 582.78 93.38 488.86 93.38 488.86 150.86 452.2 150.86 452.2 477.27 433 477.27 433 257.93 391.63 257.93 391.63 239.69 323.87 239.69 323.87 280.53 354.29 280.53 354.29 287.22 323.87 287.22 323.87 301.27 354.29 301.27 354.29 307.96 323.87 307.96 323.87 321.7 354.29 321.7 354.29 328.4 323.87 328.4 323.87 342.45 354.29 342.45 354.29 349.14 323.87 349.14 323.87 361.89 354.29 361.89 354.29 368.58 323.87 368.58 323.87 382.64 354.29 382.64 354.29 389.33 323.87 389.33 323.87 403.07 354.29 403.07 354.29 409.76 323.87 409.76 323.87 423.81 354.29 423.81 354.29 430.5 323.87 430.5 323.87 477.27 302.01 477.27 302.01 323.09 153.27 323.09 153.27 477.27 139.75 477.27 139.75 266.44 107.52 266.44 107.52 247.39 66.96 247.39 66.96 266.44 34.73 266.44 34.73 477.27 0 477.27 0 478.27 35.73 478.27 35.73 267.44 67.96 267.44 67.96 248.39 106.52 248.39 106.52 267.44 138.75 267.44 138.75 478.27 154.27 478.27 154.27 324.09 301.01 324.09 301.01 478.27 324.87 478.27 324.87 431.5 355.29 431.5 355.29 422.81 324.87 422.81 324.87 410.76 355.29 410.76 355.29 402.07 324.87 402.07 324.87 390.33 355.29 390.33 355.29 381.64 324.87 381.64 324.87 369.58 355.29 369.58 355.29 360.89 324.87 360.89 324.87 350.14 355.29 350.14 355.29 341.45 324.87 341.45 324.87 329.4 355.29 329.4 355.29 320.7 324.87 320.7 324.87 308.96 355.29 308.96 355.29 300.27 324.87 300.27 324.87 288.22 355.29 288.22 355.29 279.53 324.87 279.53 324.87 240.69 390.63 240.69 390.63 258.93 432 258.93 432 478.27 453.2 478.27 453.2 151.86 489.86 151.86 489.86 94.38 581.78 94.38 581.78 151.86 832.1 151.86 832.1 478.27 853.67 478.27 853.67 203.03 972.68 150.88 972.68 478.27 986.65 478.27 986.65 377.45 1005.14 377.45 1005.14 1 1162.64 1 1162.64 377.45 1181.13 377.45 1181.13 478.27 1205.63 478.27 1205.63 245.57 1226.77 245.57 1226.77 251.57 1320.05 251.57 1320.05 245.57 1341.19 245.57 1341.19 478.27 1363.27 478.27 1363.27 335.32 1377.59 335.32 1377.59 321.17 1413.06 321.17 1413.06 335.32 1427.39 335.32 1427.39 369.32 1448.4 369.32 1448.4 335.32 1462.73 335.32 1462.73 321.17 1498.19 321.17 1498.19 335.32 1512.52 335.32 1512.52 478.27 1531.13 478.27 1531.13 329.61 1726.95 329.61 1726.95 478.27 1770.02 478.27 1770.02 477.27 1727.95 477.27"/><path d="M357.78,369.58h41.53v-8.69h-41.53v8.69Zm1-7.69h39.53v6.69h-39.53v-6.69Z"/><path d="M1661.52,432.9h48.78v-15.41h-48.78v15.41Zm1-14.41h46.78v13.41h-46.78v-13.41Z"/><path d="M45.91,388.27h16.24v-13.03h-16.24v13.03Zm1-12.03h14.24v11.03h-14.24v-11.03Z"/><path d="M1292.49,283.17h27.92v-13.77h-27.92v13.77Zm1-12.77h25.92v11.77h-25.92v-11.77Z"/><path d="M45.91,411.25h16.24v-13.03h-16.24v13.03Zm1-12.03h14.24v11.03h-14.24v-11.03Z"/><path d="M262.25,478.27h23.52v-16.68h-23.52v16.68Zm1-15.68h21.52v14.68h-21.52v-14.68Z"/><path d="M1226.41,478.27h93.99v-29.05h-93.99v29.05Zm1-28.05h91.99v27.05h-91.99v-27.05Z"/><path d="M1292.49,349.84h27.92v-14.2h-27.92v14.2Zm1-13.2h25.92v12.2h-25.92v-12.2Z"/><path d="M469.6,394.16h48.77v-12.46h-48.77v12.46Zm1-11.46h46.77v10.46h-46.77v-10.46Z"/><path d="M1659.38,395.39h-60.67v15.41h60.67v-15.41Zm-1,14.41h-58.67v-13.41h58.67v13.41Z"/><path d="M526.4,209.74h46.83v-12.46h-46.83v12.46Zm1-11.46h44.83v10.46h-44.83v-10.46Z"/><path d="M1288.97,291.2h-31.13v14.2h31.13v-14.2Zm-1,13.2h-29.13v-12.2h29.13v12.2Z"/><path d="M1292.49,327.62h27.92v-14.2h-27.92v14.2Zm1-13.2h25.92v12.2h-25.92v-12.2Z"/><path d="M469.6,414.65h48.77v-12.46h-48.77v12.46Zm1-11.46h46.77v10.46h-46.77v-10.46Z"/><path d="M357.78,329.4h41.53v-8.69h-41.53v8.69Zm1-7.69h39.53v6.69h-39.53v-6.69Z"/><path d="M67.4,319.3h6.98v-13.03h-6.98v13.03Zm1-12.03h4.98v11.03h-4.98v-11.03Z"/><path d="M357.78,308.96h41.53v-8.69h-41.53v8.69Zm1-7.69h39.53v6.69h-39.53v-6.69Z"/><path d="M357.78,288.22h41.53v-8.69h-41.53v8.69Zm1-7.69h39.53v6.69h-39.53v-6.69Z"/><path d="M469.6,250.72h48.77v-12.46h-48.77v12.46Zm1-11.46h46.77v10.46h-46.77v-10.46Z"/><path d="M469.6,332.69h48.77v-12.46h-48.77v12.46Zm1-11.46h46.77v10.46h-46.77v-10.46Z"/><path d="M45.91,319.3h16.24v-13.03h-16.24v13.03Zm1-12.03h14.24v11.03h-14.24v-11.03Z"/><path d="M469.6,271.21h48.77v-12.46h-48.77v12.46Zm1-11.46h46.77v10.46h-46.77v-10.46Z"/><path d="M1257.84,394.29h31.13v-14.2h-31.13v14.2Zm1-13.2h29.13v12.2h-29.13v-12.2Z"/><path d="M469.6,291.7h48.77v-12.46h-48.77v12.46Zm1-11.46h46.77v10.46h-46.77v-10.46Z"/><path d="M1257.84,372.07h31.13v-14.2h-31.13v14.2Zm1-13.2h29.13v12.2h-29.13v-12.2Z"/><path d="M357.78,390.33h41.53v-8.69h-41.53v8.69Zm1-7.69h39.53v6.69h-39.53v-6.69Z"/><path d="M1538.29,383.58h181.49v-47.45h-181.49v47.45Zm1-46.45h179.49v45.45h-179.49v-45.45Z"/><path d="M45.91,342.29h16.24v-13.03h-16.24v13.03Zm1-12.03h14.24v11.03h-14.24v-11.03Z"/><path d="M45.91,296.31h16.24v-13.03h-16.24v13.03Zm1-12.03h14.24v11.03h-14.24v-11.03Z"/><path d="M469.6,312.19h48.77v-12.46h-48.77v12.46Zm1-11.46h46.77v10.46h-46.77v-10.46Z"/><path d="M469.6,189.25h48.77v-10.54h-48.77v10.54Zm1-9.54h46.77v8.54h-46.77v-8.54Z"/><path d="M1257.84,349.84h31.13v-14.2h-31.13v14.2Zm1-13.2h29.13v12.2h-29.13v-12.2Z"/><path d="M357.78,431.5h41.53v-8.69h-41.53v8.69Zm1-7.69h39.53v6.69h-39.53v-6.69Z"/><path d="M1292.49,305.4h27.92v-14.2h-27.92v14.2Zm1-13.2h25.92v12.2h-25.92v-12.2Z"/><path d="M357.78,410.76h41.53v-8.69h-41.53v8.69Zm1-7.69h39.53v6.69h-39.53v-6.69Z"/><path d="M1257.84,416.09h31.13v-13.77h-31.13v13.77Zm1-12.77h29.13v11.77h-29.13v-11.77Z"/><path d="M1661.52,410.79h48.78v-15.41h-48.78v15.41Zm1-14.41h46.78v13.41h-46.78v-13.41Z"/><path d="M469.6,230.23h48.77v-12.46h-48.77v12.46Zm1-11.46h46.77v10.46h-46.77v-10.46Z"/><path d="M45.91,365.28h16.24v-13.03h-16.24v13.03Zm1-12.03h14.24v11.03h-14.24v-11.03Z"/><path d="M469.6,353.18h48.77v-12.46h-48.77v12.46Zm1-11.46h46.77v10.46h-46.77v-10.46Z"/><path d="M1596.56,395.39h-48.78v15.41h48.78v-15.41Zm-1,14.41h-46.78v-13.41h46.78v13.41Z"/><path d="M168.51,391.54h24.51v-12.65h-24.51v12.65Zm1-11.65h22.51v10.65h-22.51v-10.65Z"/><path d="M168.51,412.21h24.51v-12.65h-24.51v12.65Zm1-11.65h22.51v10.65h-22.51v-10.65Z"/><path d="M1459.78,404.54h16.18v-22.8h-16.18v22.8Zm1-21.8h14.18v20.8h-14.18v-20.8Z"/><path d="M1547.78,432.9h48.78v-15.41h-48.78v15.41Zm1-14.41h46.78v13.41h-46.78v-13.41Z"/><path d="M168.51,350.19h24.51v-11.99h-24.51v11.99Zm1-10.99h22.51v9.99h-22.51v-9.99Z"/><path d="M100.11,365.28h6.98v-13.03h-6.98v13.03Zm1-12.03h4.98v11.03h-4.98v-11.03Z"/><path d="M1399.83,440.27h16.18v-23.18h-16.18v23.18Zm1-22.18h14.18v21.18h-14.18v-21.18Z"/><path d="M100.11,342.29h6.98v-13.03h-6.98v13.03Zm1-12.03h4.98v11.03h-4.98v-11.03Z"/><path d="M168.51,478.27h24.51v-16.68h-24.51v16.68Zm1-15.68h22.51v14.68h-22.51v-14.68Z"/><path d="M168.51,453.56h24.51v-12.65h-24.51v12.65Zm1-11.65h22.51v10.65h-22.51v-10.65Z"/><path d="M100.11,296.31h6.98v-13.03h-6.98v13.03Zm1-12.03h4.98v11.03h-4.98v-11.03Z"/><path d="M1459.78,369.2h16.18v-23.18h-16.18v23.18Zm1-22.18h14.18v21.18h-14.18v-21.18Z"/><path d="M168.51,432.89h24.51v-12.65h-24.51v12.65Zm1-11.65h22.51v10.65h-22.51v-10.65Z"/><path d="M1459.78,440.27h16.18v-23.18h-16.18v23.18Zm1-22.18h14.18v21.18h-14.18v-21.18Z"/><path d="M112.33,365.28h16.24v-13.03h-16.24v13.03Zm1-12.03h14.24v11.03h-14.24v-11.03Z"/><path d="M112.33,342.29h16.24v-13.03h-16.24v13.03Zm1-12.03h14.24v11.03h-14.24v-11.03Z"/><path d="M1483.98,404.54h16.18v-22.8h-16.18v22.8Zm1-21.8h14.18v20.8h-14.18v-20.8Z"/><path d="M100.11,411.25h6.98v-13.03h-6.98v13.03Zm1-12.03h4.98v11.03h-4.98v-11.03Z"/><path d="M112.33,296.31h16.24v-13.03h-16.24v13.03Zm1-12.03h14.24v11.03h-14.24v-11.03Z"/><path d="M1483.98,369.2h16.18v-23.18h-16.18v23.18Zm1-22.18h14.18v21.18h-14.18v-21.18Z"/><path d="M100.11,388.27h6.98v-13.03h-6.98v13.03Zm1-12.03h4.98v11.03h-4.98v-11.03Z"/><path d="M168.51,370.86h24.51v-12.65h-24.51v12.65Zm1-11.65h22.51v10.65h-22.51v-10.65Z"/><path d="M112.33,411.25h16.24v-13.03h-16.24v13.03Zm1-12.03h14.24v11.03h-14.24v-11.03Z"/><path d="M1483.98,440.27h16.18v-23.18h-16.18v23.18Zm1-22.18h14.18v21.18h-14.18v-21.18Z"/><path d="M112.33,319.3h16.24v-13.03h-16.24v13.03Zm1-12.03h14.24v11.03h-14.24v-11.03Z"/><path d="M112.33,388.27h16.24v-13.03h-16.24v13.03Zm1-12.03h14.24v11.03h-14.24v-11.03Z"/><path d="M196.53,350.19h62.21v-11.99h-62.21v11.99Zm1-10.99h60.21v9.99h-60.21v-9.99Z"/><path d="M1375.63,404.54h16.18v-22.8h-16.18v22.8Zm1-21.8h14.18v20.8h-14.18v-20.8Z"/><path d="M1375.63,369.2h16.18v-23.18h-16.18v23.18Zm1-22.18h14.18v21.18h-14.18v-21.18Z"/><path d="M67.4,365.28h6.98v-13.03h-6.98v13.03Zm1-12.03h4.98v11.03h-4.98v-11.03Z"/><path d="M262.25,370.86h23.52v-12.65h-23.52v12.65Zm1-11.65h21.52v10.65h-21.52v-10.65Z"/><path d="M196.53,478.27h62.21v-16.68h-62.21v16.68Zm1-15.68h60.21v14.68h-60.21v-14.68Z"/><path d="M1598.71,432.9h60.67v-15.41h-60.67v15.41Zm1-14.41h58.67v13.41h-58.67v-13.41Z"/><path d="M262.25,350.19h23.52v-11.99h-23.52v11.99Zm1-10.99h21.52v9.99h-21.52v-9.99Z"/><path d="M1399.83,369.2h16.18v-23.18h-16.18v23.18Zm1-22.18h14.18v21.18h-14.18v-21.18Z"/><path d="M262.25,412.21h23.52v-12.65h-23.52v12.65Zm1-11.65h21.52v10.65h-21.52v-10.65Z"/><path d="M262.25,391.54h23.52v-12.65h-23.52v12.65Zm1-11.65h21.52v10.65h-21.52v-10.65Z"/><path d="M1292.49,372.07h27.92v-14.2h-27.92v14.2Zm1-13.2h25.92v12.2h-25.92v-12.2Z"/><path d="M1292.49,416.09h27.92v-13.77h-27.92v13.77Zm1-12.77h25.92v11.77h-25.92v-11.77Z"/><path d="M67.4,342.29h6.98v-13.03h-6.98v13.03Zm1-12.03h4.98v11.03h-4.98v-11.03Z"/><path d="M262.25,432.89h23.52v-12.65h-23.52v12.65Zm1-11.65h21.52v10.65h-21.52v-10.65Z"/><path d="M67.4,388.27h6.98v-13.03h-6.98v13.03Zm1-12.03h4.98v11.03h-4.98v-11.03Z"/><path d="M262.25,453.56h23.52v-12.65h-23.52v12.65Zm1-11.65h21.52v10.65h-21.52v-10.65Z"/><path d="M196.53,391.54h62.21v-12.65h-62.21v12.65Zm1-11.65h60.21v10.65h-60.21v-10.65Z"/><path d="M100.11,319.3h6.98v-13.03h-6.98v13.03Zm1-12.03h4.98v11.03h-4.98v-11.03Z"/><path d="M196.53,370.86h62.21v-12.65h-62.21v12.65Zm1-11.65h60.21v10.65h-60.21v-10.65Z"/><path d="M67.4,411.25h6.98v-13.03h-6.98v13.03Zm1-12.03h4.98v11.03h-4.98v-11.03Z"/><path d="M1399.83,404.54h16.18v-22.8h-16.18v22.8Zm1-21.8h14.18v20.8h-14.18v-20.8Z"/><path d="M1546.19,478.27h162.52v-32.64h-162.52v32.64Zm1-31.64h160.52v30.64h-160.52v-30.64Z"/><path d="M196.53,453.56h62.21v-12.65h-62.21v12.65Zm1-11.65h60.21v10.65h-60.21v-10.65Z"/><path d="M1375.63,440.27h16.18v-23.18h-16.18v23.18Zm1-22.18h14.18v21.18h-14.18v-21.18Z"/><path d="M196.53,412.21h62.21v-12.65h-62.21v12.65Zm1-11.65h60.21v10.65h-60.21v-10.65Z"/><path d="M196.53,432.89h62.21v-12.65h-62.21v12.65Zm1-11.65h60.21v10.65h-60.21v-10.65Z"/><path d="M526.4,250.72h46.83v-12.46h-46.83v12.46Zm1-11.46h44.83v10.46h-44.83v-10.46Z"/><path d="M865.3,400.32h17.76v-12.78h-17.76v12.78Zm1-11.78h15.76v10.78h-15.76v-10.78Z"/><path d="M865.3,416.37h17.76v-12.78h-17.76v12.78Zm1-11.78h15.76v10.78h-15.76v-10.78Z"/><path d="M865.3,320.11h17.76v-12.78h-17.76v12.78Zm1-11.78h15.76v10.78h-15.76v-10.78Z"/><path d="M865.3,433.36h17.76v-13.73h-17.76v13.73Zm1-12.73h15.76v11.73h-15.76v-11.73Z"/><path d="M1142.27,282.34h-28.19v8.87h28.19v-8.87Zm-1,7.87h-26.19v-6.87h26.19v6.87Z"/><path d="M1142.27,303.75h-28.19v8.87h28.19v-8.87Zm-1,7.87h-26.19v-6.87h26.19v6.87Z"/><path d="M865.3,352.19h17.76v-12.78h-17.76v12.78Zm1-11.78h15.76v10.78h-15.76v-10.78Z"/><path d="M865.3,368.24h17.76v-12.78h-17.76v12.78Zm1-11.78h15.76v10.78h-15.76v-10.78Z"/><path d="M1142.27,260.93h-28.19v8.87h28.19v-8.87Zm-1,7.87h-26.19v-6.87h26.19v6.87Z"/><path d="M1142.27,218.12h-28.19v8.87h28.19v-8.87Zm-1,7.87h-26.19v-6.87h26.19v6.87Z"/><path d="M886.58,304.07h17.76v-12.78h-17.76v12.78Zm1-11.78h15.76v10.78h-15.76v-10.78Z"/><path d="M886.58,320.11h17.76v-12.78h-17.76v12.78Zm1-11.78h15.76v10.78h-15.76v-10.78Z"/><path d="M1142.27,239.53h-28.19v8.87h28.19v-8.87Zm-1,7.87h-26.19v-6.87h26.19v6.87Z"/><path d="M886.58,271.98h17.76v-12.78h-17.76v12.78Zm1-11.78h15.76v10.78h-15.76v-10.78Z"/><path d="M886.58,255.94h17.76v-12.78h-17.76v12.78Zm1-11.78h15.76v10.78h-15.76v-10.78Z"/><path d="M886.58,223.85h17.76v-13.3h-17.76v13.3Zm1-12.3h15.76v11.3h-15.76v-11.3Z"/><path d="M766.94,373.67h48.77v-12.46h-48.77v12.46Zm1-11.46h46.77v10.46h-46.77v-10.46Z"/><path d="M1142.27,24.29h-116.76v10.02h116.76v-10.02Zm-1,9.02h-114.76v-8.02h114.76v8.02Z"/><path d="M766.94,353.18h48.77v-12.46h-48.77v12.46Zm1-11.46h46.77v10.46h-46.77v-10.46Z"/><path d="M1142.27,196.71h-28.19v8.87h28.19v-8.87Zm-1,7.87h-26.19v-6.87h26.19v6.87Z"/><path d="M865.3,288.02h17.76v-12.78h-17.76v12.78Zm1-11.78h15.76v10.78h-15.76v-10.78Z"/><path d="M766.94,312.19h48.77v-12.46h-48.77v12.46Zm1-11.46h46.77v10.46h-46.77v-10.46Z"/><path d="M766.94,394.16h48.77v-12.46h-48.77v12.46Zm1-11.46h46.77v10.46h-46.77v-10.46Z"/><path d="M1025.51,55.72h28.19v-8.87h-28.19v8.87Zm1-7.87h26.19v6.87h-26.19v-6.87Z"/><path d="M766.94,291.7h48.77v-12.46h-48.77v12.46Zm1-11.46h46.77v10.46h-46.77v-10.46Z"/><path d="M865.3,239.89h17.76v-12.78h-17.76v12.78Zm1-11.78h15.76v10.78h-15.76v-10.78Z"/><path d="M1114.08,377.32h28.19v-9.35h-28.19v9.35Zm1-8.35h26.19v7.35h-26.19v-7.35Z"/><path d="M1142.27,325.16h-28.19v8.87h28.19v-8.87Zm-1,7.87h-26.19v-6.87h26.19v6.87Z"/><path d="M865.3,271.98h17.76v-12.78h-17.76v12.78Zm1-11.78h15.76v10.78h-15.76v-10.78Z"/><path d="M1142.27,346.57h-28.19v8.87h28.19v-8.87Zm-1,7.87h-26.19v-6.87h26.19v6.87Z"/><path d="M766.94,414.65h48.77v-12.46h-48.77v12.46Zm1-11.46h46.77v10.46h-46.77v-10.46Z"/><path d="M865.3,255.94h17.76v-12.78h-17.76v12.78Zm1-11.78h15.76v10.78h-15.76v-10.78Z"/><path d="M886.58,384.28h17.76v-12.78h-17.76v12.78Zm1-11.78h15.76v10.78h-15.76v-10.78Z"/><path d="M1142.27,68.26h-28.19v8.87h28.19v-8.87Zm-1,7.87h-26.19v-6.87h26.19v6.87Z"/><path d="M1092.52,218.12h-17.25v8.87h17.25v-8.87Zm-1,7.87h-15.25v-6.87h15.25v6.87Z"/><path d="M1092.52,239.53h-17.25v8.87h17.25v-8.87Zm-1,7.87h-15.25v-6.87h15.25v6.87Z"/><path d="M1092.52,196.71h-17.25v8.87h17.25v-8.87Zm-1,7.87h-15.25v-6.87h15.25v6.87Z"/><path d="M1092.52,153.89h-17.25v8.87h17.25v-8.87Zm-1,7.87h-15.25v-6.87h15.25v6.87Z"/><path d="M1092.52,175.3h-17.25v8.87h17.25v-8.87Zm-1,7.87h-15.25v-6.87h15.25v6.87Z"/><path d="M1113.9,402.65h54.7v-10.03h-54.7v10.03Zm1-9.03h52.7v8.03h-52.7v-8.03Z"/><path d="M1142.27,46.85h-28.19v8.87h28.19v-8.87Zm-1,7.87h-26.19v-6.87h26.19v6.87Z"/><path d="M1004.52,478.27h159.74v-29.39h-159.74v29.39Zm1-28.39h157.74v27.39h-157.74v-27.39Z"/><path d="M886.58,352.19h17.76v-12.78h-17.76v12.78Zm1-11.78h15.76v10.78h-15.76v-10.78Z"/><path d="M1092.52,346.57h-17.25v8.87h17.25v-8.87Zm-1,7.87h-15.25v-6.87h15.25v6.87Z"/><path d="M1113.9,420.87h54.7v-10.03h-54.7v10.03Zm1-9.03h52.7v8.03h-52.7v-8.03Z"/><path d="M1092.52,282.34h-17.25v8.87h17.25v-8.87Zm-1,7.87h-15.25v-6.87h15.25v6.87Z"/><path d="M1092.52,303.75h-17.25v8.87h17.25v-8.87Zm-1,7.87h-15.25v-6.87h15.25v6.87Z"/><path d="M1092.52,260.93h-17.25v8.87h17.25v-8.87Zm-1,7.87h-15.25v-6.87h15.25v6.87Z"/><path d="M1092.52,325.16h-17.25v8.87h17.25v-8.87Zm-1,7.87h-15.25v-6.87h15.25v6.87Z"/><path d="M886.58,400.32h17.76v-12.78h-17.76v12.78Zm1-11.78h15.76v10.78h-15.76v-10.78Z"/><path d="M1142.27,153.89h-28.19v8.87h28.19v-8.87Zm-1,7.87h-26.19v-6.87h26.19v6.87Z"/><path d="M941.33,433.36h14.33V210.55h-14.33v222.81Zm1-221.81h12.33v220.81h-12.33V211.55Z"/><path d="M886.58,433.36h17.76v-13.73h-17.76v13.73Zm1-12.73h15.76v11.73h-15.76v-11.73Z"/><path d="M766.94,271.21h48.77v-12.46h-48.77v12.46Zm1-11.46h46.77v10.46h-46.77v-10.46Z"/><path d="M886.58,368.24h17.76v-12.78h-17.76v12.78Zm1-11.78h15.76v10.78h-15.76v-10.78Z"/><path d="M1142.27,175.3h-28.19v8.87h28.19v-8.87Zm-1,7.87h-26.19v-6.87h26.19v6.87Z"/><path d="M1092.52,132.49h-17.25v8.87h17.25v-8.87Zm-1,7.87h-15.25v-6.87h15.25v6.87Z"/><path d="M1092.52,111.08h-17.25v8.87h17.25v-8.87Zm-1,7.87h-15.25v-6.87h15.25v6.87Z"/><path d="M1142.27,89.67h-28.19v8.87h28.19v-8.87Zm-1,7.87h-26.19v-6.87h26.19v6.87Z"/><path d="M1092.52,89.67h-17.25v8.87h17.25v-8.87Zm-1,7.87h-15.25v-6.87h15.25v6.87Z"/><path d="M1092.52,68.26h-17.25v8.87h17.25v-8.87Zm-1,7.87h-15.25v-6.87h15.25v6.87Z"/><path d="M1142.27,111.08h-28.19v8.87h28.19v-8.87Zm-1,7.87h-26.19v-6.87h26.19v6.87Z"/><path d="M1142.27,132.49h-28.19v8.87h28.19v-8.87Zm-1,7.87h-26.19v-6.87h26.19v6.87Z"/><path d="M1092.52,46.85h-17.25v8.87h17.25v-8.87Zm-1,7.87h-15.25v-6.87h15.25v6.87Z"/><path d="M589.91,414.65h39.87v-12.46h-39.87v12.46Zm1-11.46h37.87v10.46h-37.87v-10.46Z"/><path d="M589.91,291.7h39.87v-12.46h-39.87v12.46Zm1-11.46h37.87v10.46h-37.87v-10.46Z"/><path d="M1025.51,377.32h28.19v-9.35h-28.19v9.35Zm1-8.35h26.19v7.35h-26.19v-7.35Z"/><path d="M589.91,312.19h39.87v-12.46h-39.87v12.46Zm1-11.46h37.87v10.46h-37.87v-10.46Z"/><path d="M589.91,353.18h39.87v-12.46h-39.87v12.46Zm1-11.46h37.87v10.46h-37.87v-10.46Z"/><path d="M589.91,373.67h39.87v-12.46h-39.87v12.46Zm1-11.46h37.87v10.46h-37.87v-10.46Z"/><path d="M589.91,250.72h39.87v-12.46h-39.87v12.46Zm1-11.46h37.87v10.46h-37.87v-10.46Z"/><path d="M999.19,402.97h54.7v-10.03h-54.7v10.03Zm1-9.03h52.7v8.03h-52.7v-8.03Z"/><path d="M589.91,271.21h39.87v-12.46h-39.87v12.46Zm1-11.46h37.87v10.46h-37.87v-10.46Z"/><path d="M589.91,394.16h39.87v-12.46h-39.87v12.46Zm1-11.46h37.87v10.46h-37.87v-10.46Z"/><path d="M655.53,189.25h39.87v-10.54h-39.87v10.54Zm1-9.54h37.87v8.54h-37.87v-8.54Z"/><path d="M1025.51,312.62h28.19v-8.87h-28.19v8.87Zm1-7.87h26.19v6.87h-26.19v-6.87Z"/><path d="M655.53,209.74h39.87v-12.46h-39.87v12.46Zm1-11.46h37.87v10.46h-37.87v-10.46Z"/><path d="M999.19,421.19h54.7v-10.03h-54.7v10.03Zm1-9.03h52.7v8.03h-52.7v-8.03Z"/><path d="M1025.51,355.43h28.19v-8.87h-28.19v8.87Zm1-7.87h26.19v6.87h-26.19v-6.87Z"/><path d="M526.4,189.25h46.83v-10.54h-46.83v10.54Zm1-9.54h44.83v8.54h-44.83v-8.54Z"/><path d="M1025.51,334.03h28.19v-8.87h-28.19v8.87Zm1-7.87h26.19v6.87h-26.19v-6.87Z"/><path d="M1226.41,372.07h27.91v-14.2h-27.91v14.2Zm1-13.2h25.91v12.2h-25.91v-12.2Z"/><path d="M526.4,271.21h46.83v-12.46h-46.83v12.46Zm1-11.46h44.83v10.46h-44.83v-10.46Z"/><path d="M589.91,189.25h39.87v-10.54h-39.87v10.54Zm1-9.54h37.87v8.54h-37.87v-8.54Z"/><path d="M655.53,230.23h39.87v-12.46h-39.87v12.46Zm1-11.46h37.87v10.46h-37.87v-10.46Z"/><path d="M526.4,312.19h46.83v-12.46h-46.83v12.46Zm1-11.46h44.83v10.46h-44.83v-10.46Z"/><path d="M1226.41,394.29h27.91v-14.2h-27.91v14.2Zm1-13.2h25.91v12.2h-25.91v-12.2Z"/><path d="M526.4,230.23h46.83v-12.46h-46.83v12.46Zm1-11.46h44.83v10.46h-44.83v-10.46Z"/><path d="M1075.26,377.32h17.25v-9.35h-17.25v9.35Zm1-8.35h15.25v7.35h-15.25v-7.35Z"/><path d="M1226.41,327.62h27.91v-14.2h-27.91v14.2Zm1-13.2h25.91v12.2h-25.91v-12.2Z"/><path d="M1226.41,305.4h27.91v-14.2h-27.91v14.2Zm1-13.2h25.91v12.2h-25.91v-12.2Z"/><path d="M589.91,230.23h39.87v-12.46h-39.87v12.46Zm1-11.46h37.87v10.46h-37.87v-10.46Z"/><path d="M526.4,414.65h46.83v-12.46h-46.83v12.46Zm1-11.46h44.83v10.46h-44.83v-10.46Z"/><path d="M526.4,353.18h46.83v-12.46h-46.83v12.46Zm1-11.46h44.83v10.46h-44.83v-10.46Z"/><path d="M526.4,373.67h46.83v-12.46h-46.83v12.46Zm1-11.46h44.83v10.46h-44.83v-10.46Z"/><path d="M526.4,332.69h46.83v-12.46h-46.83v12.46Zm1-11.46h44.83v10.46h-44.83v-10.46Z"/><path d="M1254.33,269.4h-27.91v13.77h27.91v-13.77Zm-1,12.77h-25.91v-11.77h25.91v11.77Z"/><path d="M712.08,189.25h46.83v-10.54h-46.83v10.54Zm1-9.54h44.83v8.54h-44.83v-8.54Z"/><path d="M655.53,250.72h39.87v-12.46h-39.87v12.46Zm1-11.46h37.87v10.46h-37.87v-10.46Z"/><path d="M712.08,312.19h46.83v-12.46h-46.83v12.46Zm1-11.46h44.83v10.46h-44.83v-10.46Z"/><path d="M1025.51,184.17h28.19v-8.87h-28.19v8.87Zm1-7.87h26.19v6.87h-26.19v-6.87Z"/><path d="M1025.51,141.35h28.19v-8.87h-28.19v8.87Zm1-7.87h26.19v6.87h-26.19v-6.87Z"/><path d="M1025.51,162.76h28.19v-8.87h-28.19v8.87Zm1-7.87h26.19v6.87h-26.19v-6.87Z"/><path d="M712.08,250.72h46.83v-12.46h-46.83v12.46Zm1-11.46h44.83v10.46h-44.83v-10.46Z"/><path d="M712.08,291.7h46.83v-12.46h-46.83v12.46Zm1-11.46h44.83v10.46h-44.83v-10.46Z"/><path d="M712.08,353.18h46.83v-12.46h-46.83v12.46Zm1-11.46h44.83v10.46h-44.83v-10.46Z"/><path d="M766.94,189.25h48.77v-10.54h-48.77v10.54Zm1-9.54h46.77v8.54h-46.77v-8.54Z"/><path d="M766.94,250.72h48.77v-12.46h-48.77v12.46Zm1-11.46h46.77v10.46h-46.77v-10.46Z"/><path d="M712.08,373.67h46.83v-12.46h-46.83v12.46Zm1-11.46h44.83v10.46h-44.83v-10.46Z"/><path d="M1025.51,98.54h28.19v-8.87h-28.19v8.87Zm1-7.87h26.19v6.87h-26.19v-6.87Z"/><path d="M1025.51,119.95h28.19v-8.87h-28.19v8.87Zm1-7.87h26.19v6.87h-26.19v-6.87Z"/><path d="M766.94,209.74h48.77v-12.46h-48.77v12.46Zm1-11.46h46.77v10.46h-46.77v-10.46Z"/><path d="M712.09,414.65h46.82v-12.46h-46.82v12.46Zm1-11.46h44.82v10.46h-44.82v-10.46Z"/><path d="M712.08,332.69h46.83v-12.46h-46.83v12.46Zm1-11.46h44.83v10.46h-44.83v-10.46Z"/><path d="M655.53,312.19h39.87v-12.46h-39.87v12.46Zm1-11.46h37.87v10.46h-37.87v-10.46Z"/><path d="M1025.51,269.8h28.19v-8.87h-28.19v8.87Zm1-7.87h26.19v6.87h-26.19v-6.87Z"/><path d="M655.53,332.69h39.87v-12.46h-39.87v12.46Zm1-11.46h37.87v10.46h-37.87v-10.46Z"/><path d="M655.53,271.21h39.87v-12.46h-39.87v12.46Zm1-11.46h37.87v10.46h-37.87v-10.46Z"/><path d="M1025.51,291.21h28.19v-8.87h-28.19v8.87Zm1-7.87h26.19v6.87h-26.19v-6.87Z"/><path d="M1025.51,248.39h28.19v-8.87h-28.19v8.87Zm1-7.87h26.19v6.87h-26.19v-6.87Z"/><path d="M655.53,291.7h39.87v-12.46h-39.87v12.46Zm1-11.46h37.87v10.46h-37.87v-10.46Z"/><path d="M1025.51,205.58h28.19v-8.87h-28.19v8.87Zm1-7.87h26.19v6.87h-26.19v-6.87Z"/><path d="M655.53,353.18h39.87v-12.46h-39.87v12.46Zm1-11.46h37.87v10.46h-37.87v-10.46Z"/><path d="M712.08,230.23h46.83v-12.46h-46.83v12.46Zm1-11.46h44.83v10.46h-44.83v-10.46Z"/><path d="M1025.51,77.13h28.19v-8.87h-28.19v8.87Zm1-7.87h26.19v6.87h-26.19v-6.87Z"/><path d="M712.08,209.74h46.83v-12.46h-46.83v12.46Zm1-11.46h44.83v10.46h-44.83v-10.46Z"/><path d="M655.53,373.67h39.87v-12.46h-39.87v12.46Zm1-11.46h37.87v10.46h-37.87v-10.46Z"/><path d="M1025.51,226.99h28.19v-8.87h-28.19v8.87Zm1-7.87h26.19v6.87h-26.19v-6.87Z"/><path d="M655.53,394.16h39.87v-12.46h-39.87v12.46Zm1-11.46h37.87v10.46h-37.87v-10.46Z"/></g></g></svg>