<?xml version="1.0" encoding="UTF-8"?><svg id="_イヤー_2" xmlns="http://www.w3.org/2000/svg" viewBox="0 0 1367 212.47"><defs><style>.cls-1{fill:#fff;}</style></defs>
<g id="_イヤー_1-2">
<path class="cls-1" d="M0,212.47H29.06l-.54-.78c-1.34-1.94-2.19-3.7-2.62-4.66,1.16,.17,3.39,.6,5.94,1.57l.77,.29-.1-.82c-.38-3.15-.13-5.84,.04-7.14,.85,.71,2.43,2.14,4.01,4.13l.68,.86,.2-1.08c.72-3.9,2.26-7.03,3.01-8.38,.77,1.41,2.41,4.73,3.09,8.84l.19,1.14,.7-.92c1.71-2.24,3.46-3.83,4.37-4.59,.17,1.29,.42,3.98,.04,7.14l-.1,.82,.77-.29c2.55-.97,4.79-1.4,5.94-1.57-.42,.96-1.28,2.72-2.62,4.66l-.54,.78h9.09l.12-.34c2.44-7.02,3.54-23.51,4.04-36.11l.04-.88-.77,.42c-6.27,3.4-13.08,5.39-20.27,5.91,3.92-4.7,4.96-7.78,5.01-7.92l.38-1.15-1.08,.54c-.06,.03-6.2,3.09-15.4,3.38,3.85-3.41,5.77-7.72,5.85-7.92l.56-1.28-1.24,.63c-.06,.03-6.07,3.02-13.25,1.91,7.76-5.28,15.43-13.05,22.8-23.1l.8-1.09-1.31,.31c-2.25,.52-4.55,.83-6.88,.92,3.07-2.8,4.6-6.25,4.68-6.41l.56-1.27-1.24,.63c-.05,.03-4.88,2.42-10.66,1.6,6.8-4.67,13.5-11.64,19.92-20.72l.73-1.03-1.23,.25c-1.32,.27-2.66,.43-4.01,.5,2.15-2.07,3.23-4.48,3.28-4.6l.56-1.27-1.24,.63s-3.44,1.7-7.57,1.22c15.54-10.87,26.04-34.56,29.54-43.4,3.51,8.85,14,32.54,29.54,43.4-4.14,.48-7.54-1.21-7.57-1.22l-1.24-.63,.56,1.27c.05,.12,1.13,2.53,3.28,4.6-1.35-.07-2.7-.24-4.01-.5l-1.23-.25,.73,1.03c6.43,9.08,13.12,16.05,19.92,20.72-5.79,.81-10.61-1.57-10.66-1.6l-1.24-.63,.56,1.27c.07,.16,1.6,3.61,4.67,6.41-2.32-.09-4.63-.4-6.88-.92l-1.31-.31,.8,1.09c7.38,10.05,15.04,17.82,22.8,23.1-7.17,1.1-13.18-1.88-13.25-1.91l-1.24-.63,.56,1.27c.09,.2,2.01,4.51,5.85,7.92-9.19-.29-15.33-3.35-15.4-3.38l-1.08-.54,.38,1.15c.04,.14,1.09,3.22,5.01,7.92-7.19-.52-14-2.51-20.27-5.91l-.77-.42,.04,.88c.5,12.6,1.6,29.08,4.04,36.11l.12,.34h9.86l-.09-.58c-.24-1.47,.36-2.82,1.59-3.61l.65-.41-.64-.42c-1.47-.97-2.12-2.66-1.66-4.29,.34-1.21,1.4-2.53,3.35-2.6l.79-.03-.37-.7c-.94-1.81-.31-3.42,.59-4.33,1.15-1.16,2.88-1.4,4.4-.62l.7,.36,.03-.79c.07-1.93,1.39-2.98,2.6-3.32,1.66-.47,3.36,.17,4.34,1.64l.42,.63,.41-.64c1.04-1.6,2.75-1.83,4.01-1.51,1.7,.43,2.88,1.82,3.02,3.54l.06,.73,.66-.32c1.49-.72,3.23-.4,4.44,.82,.95,.96,1.66,2.61,.79,4.37l-.32,.66,1.15,.1,.16-.26c.8-1.31,2.79-2.03,4.47-1.02l.5,.3,.22-.54c.57-1.37,1.88-1.85,2.93-1.85s2.36,.49,2.93,1.85l.22,.54,.5-.3c1.18-.71,2.64-.63,3.72,.2,.96,.73,1.34,1.83,1.02,2.94l-.17,.6,.63,.03c1.36,.07,2.47,.89,2.84,2.1,.35,1.13-.03,2.26-1.02,3.01l-.53,.4,.53,.4c.8,.61,1.2,1.46,1.14,2.39l-.04,.54h11.65l.1-.37c1.14-4.1,1.98-12.32,2.51-24.4l.04-.96-.81,.52c-4.08,2.61-8.51,4.17-13.17,4.62,2.59-3.76,3.28-6.22,3.31-6.33l.33-1.21-1.07,.65s-4.05,2.41-10.07,2.71c2.54-2.77,3.8-6.18,3.86-6.34l.49-1.34-1.22,.74s-3.95,2.35-8.63,1.57c4.11-3.39,8.2-8.03,12.17-13.81l.74-1.08-1.27,.31c-2,.49-4.06,.78-6.16,.87,2.39-2.12,3.59-4.62,3.65-4.74l.59-1.25-1.26,.59s-3.85,1.77-8.5,1.26c17.31-11.21,28.99-35.73,32.82-44.72,3.83,8.99,15.5,33.52,32.82,44.72-4.64,.51-8.45-1.24-8.5-1.26l-1.26-.59,.59,1.25c.06,.12,1.25,2.61,3.65,4.74-2.09-.09-4.16-.38-6.16-.87l-1.27-.31,.74,1.08c3.97,5.78,8.06,10.41,12.17,13.81-4.68,.78-8.59-1.54-8.63-1.57l-1.22-.74,.49,1.34c.06,.16,1.32,3.57,3.86,6.34-6.02-.3-10.02-2.69-10.07-2.71l-1.07-.65,.33,1.21c.03,.11,.72,2.57,3.31,6.33-4.66-.45-9.09-2-13.17-4.62l-.81-.52,.04,.96c.53,12.09,1.37,20.3,2.51,24.4l.1,.37h31.5l-.03-.53c-.05-.84,.32-1.59,1.03-2.13l.53-.4-.53-.4c-.9-.68-1.25-1.7-.93-2.73,.34-1.09,1.35-1.84,2.58-1.91l.63-.03-.17-.6c-.29-1.01,.06-2,.93-2.67,.99-.76,2.31-.83,3.39-.18l.5,.3,.22-.54c.52-1.24,1.71-1.68,2.66-1.68s2.14,.44,2.66,1.68l.22,.54,.5-.3c1.07-.65,2.4-.57,3.39,.18,.87,.66,1.21,1.66,.93,2.67l-.17,.6,.63,.03c1.23,.06,2.25,.81,2.58,1.9,.32,1.03-.03,2.05-.93,2.73l-.53,.4,.53,.4c.71,.54,1.08,1.3,1.03,2.13l-.03,.53h9.92l.12-.34c2.13-6.22,3.1-20.67,3.54-31.71l.03-.88-.77,.42c-5.46,2.96-11.4,4.71-17.66,5.18,3.38-4.08,4.29-6.75,4.33-6.87l.38-1.15-1.08,.54c-.06,.03-5.37,2.67-13.35,2.96,3.31-2.99,4.96-6.7,5.04-6.88l.56-1.27-1.24,.63c-.05,.03-5.25,2.6-11.46,1.7,6.79-4.65,13.49-11.45,19.94-20.25l.8-1.09-1.32,.31c-1.92,.45-3.89,.71-5.88,.8,2.63-2.45,3.94-5.4,4.01-5.54l.56-1.28-1.24,.63s-4.17,2.08-9.19,1.42c5.94-4.11,11.79-10.21,17.41-18.15l.73-1.03-1.23,.25c-1.1,.22-2.23,.37-3.36,.43,1.82-1.8,2.74-3.85,2.78-3.95l.56-1.27-1.24,.62s-2.92,1.44-6.47,1.09c13.53-9.55,22.69-30.1,25.82-37.96,3.13,7.87,12.29,28.42,25.82,37.96-3.55,.35-6.44-1.07-6.47-1.09l-1.24-.63,.56,1.27c.04,.1,.96,2.15,2.78,3.95-1.13-.06-2.26-.21-3.36-.43l-1.23-.25,.73,1.03c5.61,7.94,11.46,14.04,17.41,18.15-5,.65-9.14-1.4-9.19-1.42l-1.24-.63,.56,1.27c.06,.14,1.38,3.09,4.01,5.54-1.99-.09-3.96-.35-5.88-.8l-1.32-.31,.8,1.09c6.45,8.79,13.15,15.6,19.94,20.25-6.21,.91-11.41-1.67-11.46-1.7l-1.24-.63,.56,1.27c.08,.17,1.73,3.89,5.04,6.88-7.98-.29-13.29-2.93-13.35-2.96l-1.08-.54,.38,1.15c.04,.12,.94,2.79,4.33,6.87-6.26-.48-12.2-2.22-17.66-5.18l-.77-.42,.03,.88c.44,11.03,1.4,25.49,3.54,31.71l.12,.34h25.6l-.54-.79c-1.65-2.38-2.67-4.52-3.15-5.62,1.3,.18,3.98,.67,7.04,1.84l.77,.29-.1-.82c-.45-3.78-.14-6.98,.07-8.43,.96,.79,2.86,2.48,4.77,4.89l.68,.86,.2-1.08c.86-4.65,2.73-8.36,3.56-9.86,.87,1.55,2.84,5.49,3.66,10.39l.19,1.14,.7-.92c2.05-2.69,4.16-4.57,5.19-5.43,.2,1.44,.52,4.65,.07,8.43l-.1,.82,.77-.29c3.06-1.17,5.74-1.66,7.04-1.84-.48,1.1-1.5,3.24-3.15,5.62l-.54,.79h29.42l.11-.35c1.83-6.03,3.21-18.17,4.1-36.07l.05-.94-.81,.49c-8.61,5.22-18.02,8.22-27.99,8.94,5.32-6.7,6.72-11.1,6.77-11.29l.36-1.17-1.08,.58c-.08,.04-8.32,4.42-20.59,4.72,5.25-4.76,7.86-11.02,7.97-11.3l.53-1.29-1.23,.66c-.08,.05-8.21,4.35-17.77,2.59,10.99-7.88,21.81-19.82,32.19-35.51l.81-1.23-1.39,.48c-3.05,1.05-7.83,2.3-13.73,2.47,4.46-4.11,6.68-9.44,6.78-9.68l.53-1.29-1.23,.66c-.07,.04-6.99,3.7-15.18,2.26,11.14-8.02,22.02-20.79,32.36-37.98l.75-1.24-1.35,.51c-2.36,.9-6.07,1.95-10.73,2.13,3.19-3.06,4.79-6.88,4.86-7.05l.53-1.29-1.23,.66c-.05,.03-5.03,2.66-10.97,1.73,8.31-6.06,16.44-15.66,24.16-28.54l.79-1.31-1.41,.6c-1.53,.65-4.57,1.69-8.6,1.89,2.34-2.34,3.5-5.13,3.56-5.26l.53-1.29-1.23,.66s-3.69,1.95-8.11,1.36c16.44-12.16,27.54-38.92,31.22-48.83,3.68,9.91,14.77,36.67,31.22,48.83-4.42,.58-8.07-1.34-8.11-1.36l-1.23-.66,.53,1.29c.05,.13,1.22,2.93,3.56,5.26-4.03-.2-7.07-1.24-8.6-1.89l-1.41-.6,.79,1.31c7.72,12.89,15.84,22.48,24.16,28.54-5.95,.93-10.92-1.7-10.97-1.73l-1.23-.66,.53,1.29c.07,.18,1.67,3.99,4.86,7.05-4.66-.18-8.37-1.23-10.73-2.13l-1.35-.51,.75,1.24c10.34,17.19,21.23,29.96,32.36,37.98-8.19,1.44-15.11-2.22-15.18-2.26l-1.23-.66,.53,1.29c.1,.24,2.32,5.57,6.78,9.68-5.9-.17-10.68-1.41-13.73-2.47l-1.39-.48,.81,1.23c10.38,15.69,21.21,27.63,32.19,35.51-9.57,1.76-17.69-2.54-17.77-2.59l-1.23-.66,.53,1.29c.12,.28,2.73,6.54,7.97,11.3-12.27-.31-20.51-4.68-20.59-4.72l-1.08-.58,.36,1.17c.06,.19,1.45,4.59,6.77,11.29-9.97-.71-19.38-3.72-27.99-8.94l-.81-.49,.05,.94c.89,17.9,2.27,30.03,4.1,36.07l.11,.35h37.03l-.09-.58c-.24-1.47,.36-2.82,1.59-3.61l.65-.41-.64-.42c-1.47-.97-2.12-2.65-1.66-4.29,.34-1.21,1.4-2.53,3.36-2.6l.79-.03-.37-.7c-.94-1.81-.31-3.42,.59-4.33,1.16-1.16,2.88-1.4,4.4-.62l.7,.36,.03-.79c.07-1.93,1.39-2.98,2.6-3.32,1.66-.47,3.36,.17,4.34,1.64l.42,.63,.41-.64c1.04-1.6,2.75-1.84,4.01-1.51,1.7,.43,2.88,1.82,3.02,3.54l.06,.73,.66-.32c1.49-.72,3.23-.4,4.44,.82,.95,.96,1.66,2.61,.79,4.37l-.33,.66,.74,.06c1.74,.13,3.14,1.32,3.57,3.02,.31,1.24,.07,2.93-1.53,3.95l-.65,.41,.64,.42c1.1,.73,1.74,1.82,1.79,3.08l.02,.48h17.38l.12-.32c2.14-5.54,2.75-20.05,2.93-28.2v-.26l-.21-.15c-1.34-.97-2.37-2.27-3.07-3.85l-.46-1.04-.46,1.04c-1.53,3.47-4.84,5.63-8.64,5.63-3.79,0-7.1-2.16-8.64-5.63l-.15-.33-.36,.04c-3.77,.41-7.3-1.38-9.19-4.66-1.9-3.29-1.68-7.23,.56-10.29l.22-.29-.22-.3c-2.04-2.78-2.41-6.31-1-9.43,1.41-3.12,4.36-5.24,7.69-5.54l.67-.06-.25-.62c-1.16-2.94-.73-6.27,1.16-8.91,1.89-2.64,4.82-4.06,8.05-3.91l.73,.04-.24-.69c-1.03-3.02-.41-6.35,1.64-8.91,2.04-2.54,5.08-3.8,8.36-3.44l.36,.04,.15-.33c1.53-3.47,4.84-5.63,8.63-5.63s7.1,2.16,8.64,5.63l.15,.33,.36-.04c3.27-.36,6.32,.9,8.36,3.44,2.05,2.56,2.67,5.89,1.64,8.91l-.24,.69,.73-.04c3.25-.15,6.17,1.28,8.05,3.91,1.89,2.64,2.32,5.97,1.16,8.91l-.25,.62,.67,.06c3.33,.3,6.28,2.42,7.69,5.54,1.41,3.12,1.04,6.65-1,9.43l-.22,.3,.22,.29c2.24,3.06,2.46,7.01,.56,10.29-1.9,3.29-5.43,5.07-9.19,4.66l-.36-.04-.15,.33c-1.53,3.47-4.84,5.63-8.64,5.63s-7.1-2.16-8.63-5.63l-.46-1.04-.46,1.04c-.7,1.58-1.73,2.87-3.07,3.84l-.21,.15v.26c.18,8.15,.79,22.65,2.93,28.2l.12,.32h68.07l.12-.34c2.15-6.26,3.12-20.84,3.57-31.97l.03-.88-.77,.42c-5.51,2.99-11.5,4.75-17.81,5.23,3.41-4.12,4.33-6.81,4.37-6.93l.38-1.15-1.08,.54c-.06,.03-5.42,2.7-13.47,2.99,3.34-3.01,5.01-6.76,5.09-6.94l.56-1.27-1.24,.63c-.06,.03-5.3,2.63-11.57,1.71,6.84-4.69,13.61-11.55,20.11-20.41l.8-1.09-1.32,.31c-1.94,.45-3.93,.72-5.93,.81,2.66-2.47,3.98-5.45,4.04-5.59l.56-1.28-1.24,.63s-4.22,2.1-9.27,1.43c5.99-4.15,11.89-10.29,17.55-18.3l.73-1.03-1.23,.25c-1.12,.23-2.26,.37-3.4,.44,1.84-1.82,2.76-3.89,2.81-3.99l.56-1.27-1.24,.63s-2.94,1.46-6.53,1.1c13.65-9.63,22.88-30.36,26.04-38.29,3.15,7.93,12.39,28.66,26.04,38.29-3.58,.36-6.5-1.08-6.53-1.1l-1.24-.62,.56,1.27c.04,.1,.97,2.17,2.81,3.99-1.15-.07-2.29-.21-3.4-.44l-1.23-.25,.73,1.03c5.66,8,11.56,14.15,17.55,18.3-5.04,.66-9.23-1.41-9.27-1.43l-1.24-.63,.56,1.27c.06,.14,1.39,3.12,4.04,5.59-2.01-.09-4-.36-5.93-.81l-1.32-.31,.8,1.09c6.5,8.86,13.26,15.73,20.11,20.41-6.27,.92-11.51-1.68-11.56-1.71l-1.24-.63,.56,1.27c.08,.17,1.74,3.92,5.09,6.94-8.05-.29-13.41-2.96-13.47-2.99l-1.08-.54,.38,1.15c.04,.12,.95,2.82,4.37,6.93-6.31-.48-12.3-2.24-17.81-5.23l-.77-.42,.03,.88c.44,11.12,1.42,25.7,3.57,31.97l.12,.34h16.86l-.06-.56c-.14-1.24,.38-2.41,1.43-3.22l.52-.4-.53-.39c-1.27-.95-1.79-2.43-1.36-3.88,.47-1.56,1.9-2.64,3.64-2.74l.63-.04-.18-.6c-.42-1.44,.06-2.86,1.29-3.82,1.39-1.08,3.27-1.2,4.79-.3l.5,.29,.22-.54c.72-1.77,2.41-2.42,3.75-2.43h.04c1.34,0,3.01,.62,3.76,2.36l.23,.53,.49-.3c1.51-.92,3.39-.84,4.8,.22,1.25,.94,1.75,2.36,1.35,3.8l-.17,.61,.63,.03c1.75,.07,3.2,1.12,3.69,2.68,.46,1.44-.04,2.94-1.29,3.91l-.52,.4,.53,.39c1.14,.85,1.67,2.1,1.45,3.43l-.1,.58h25.73l.12-.34c2.59-7.44,3.77-25.01,4.3-38.43l.03-.88-.77,.42c-6.69,3.63-13.97,5.75-21.65,6.3,4.21-5.03,5.32-8.32,5.37-8.47l.38-1.15-1.08,.54c-.07,.04-6.65,3.31-16.48,3.6,4.13-3.63,6.19-8.26,6.29-8.47l.56-1.27-1.24,.63c-.07,.04-6.52,3.23-14.19,2.02,8.28-5.62,16.45-13.9,24.32-24.62l.8-1.09-1.32,.31c-2.42,.56-4.9,.89-7.41,.98,3.3-2.98,4.96-6.69,5.03-6.86l.56-1.28-1.24,.63c-.06,.03-5.24,2.6-11.44,1.69,7.25-4.97,14.4-12.39,21.25-22.08l.73-1.03-1.23,.25c-1.43,.29-2.89,.47-4.36,.54,2.32-2.21,3.49-4.82,3.54-4.94l.56-1.27-1.24,.63s-3.7,1.84-8.16,1.3c16.61-11.56,27.81-36.92,31.52-46.28,3.71,9.36,14.91,34.72,31.52,46.28-4.45,.54-8.12-1.28-8.16-1.3l-1.24-.63,.56,1.27c.06,.12,1.22,2.74,3.54,4.94-1.47-.07-2.93-.25-4.36-.54l-1.23-.25,.73,1.03c6.86,9.69,14,17.11,21.25,22.08-6.21,.91-11.39-1.67-11.44-1.69l-1.24-.63,.56,1.27c.08,.17,1.72,3.88,5.03,6.86-2.51-.09-4.99-.42-7.41-.98l-1.32-.31,.8,1.09c7.86,10.72,16.04,19,24.32,24.62-7.66,1.21-14.12-1.99-14.19-2.02l-1.24-.63,.56,1.27c.09,.21,2.15,4.84,6.29,8.47-9.84-.3-16.41-3.57-16.48-3.6l-1.08-.54,.38,1.15c.05,.15,1.16,3.44,5.37,8.47-7.68-.55-14.95-2.67-21.65-6.3l-.77-.42,.03,.88c.53,13.42,1.71,30.99,4.3,38.43l.12,.34h23.35l-.54-.79c-1.65-2.38-2.67-4.52-3.15-5.62,1.29,.18,3.98,.67,7.04,1.84l.77,.29-.1-.82c-.45-3.78-.13-6.98,.07-8.43,.96,.79,2.86,2.48,4.77,4.89l.68,.86,.2-1.08c.86-4.65,2.73-8.36,3.56-9.86,.87,1.55,2.84,5.49,3.66,10.39l.19,1.14,.7-.92c2.05-2.69,4.16-4.57,5.19-5.43,.2,1.44,.52,4.65,.07,8.43l-.1,.82,.77-.29c3.06-1.17,5.75-1.66,7.04-1.84-.48,1.1-1.5,3.24-3.15,5.62l-.54,.79h16.12l.1-.37c1.14-4.11,1.98-12.32,2.51-24.4l.04-.96-.81,.52c-4.08,2.61-8.51,4.17-13.17,4.62,2.59-3.76,3.28-6.22,3.31-6.33l.33-1.21-1.07,.65s-4.05,2.41-10.07,2.71c2.54-2.77,3.8-6.18,3.86-6.34l.49-1.34-1.22,.74s-3.94,2.35-8.63,1.57c4.11-3.39,8.2-8.03,12.17-13.81l.74-1.08-1.27,.31c-2,.49-4.06,.78-6.16,.87,2.39-2.12,3.59-4.62,3.65-4.74l.59-1.26-1.26,.59s-3.85,1.77-8.5,1.26c17.31-11.2,28.99-35.73,32.82-44.72,3.83,8.99,15.51,33.52,32.82,44.72-4.64,.51-8.45-1.24-8.5-1.26l-1.26-.59,.59,1.25c.06,.12,1.25,2.61,3.64,4.74-2.09-.09-4.16-.38-6.16-.87l-1.27-.31,.74,1.08c3.97,5.78,8.06,10.42,12.17,13.81-4.69,.78-8.59-1.54-8.63-1.57l-1.22-.74,.49,1.34c.06,.16,1.32,3.57,3.86,6.34-6.02-.3-10.03-2.69-10.07-2.71l-1.07-.65,.33,1.21c.03,.11,.72,2.57,3.31,6.33-4.66-.45-9.09-2-13.17-4.62l-.81-.52,.04,.96c.53,12.09,1.37,20.3,2.51,24.4l.1,.37h63.06l.13-.3c1.38-3.17,2.35-9.65,2.88-19.26l.02-.38-.37-.12c-4.96-1.63-8.89-5.04-11.07-9.62l-.15-.32-.35,.04c-8.03,.8-15.59-2.99-19.25-9.67-3.35-6.1-2.74-13.04,1.63-18.58l.24-.31-.24-.31c-4.37-5.54-4.97-12.49-1.63-18.58,3.67-6.69,11.22-10.48,19.25-9.67l.35,.04,.15-.32c3.12-6.57,9.87-10.65,17.62-10.65s14.5,4.08,17.62,10.65l.15,.32,.35-.04c8.02-.81,15.59,2.99,19.26,9.67,3.35,6.1,2.74,13.04-1.63,18.58l-.24,.31,.24,.31c4.37,5.54,4.98,12.49,1.63,18.58-3.67,6.69-11.23,10.49-19.26,9.67l-.35-.04-.15,.32c-2.17,4.58-6.1,7.99-11.07,9.62l-.37,.12,.02,.38c.53,9.6,1.5,16.08,2.88,19.26l.13,.3h55.47l.12-.33c1.22-3.47,1.75-11.22,1.97-17.11l.02-.45-.44-.06c-11.52-1.7-19.25-9.88-19.25-20.35,0-12.12,10.3-26.2,23.58-26.2s23.58,14.08,23.58,26.2c0,10.47-7.74,18.65-19.25,20.35l-.44,.06,.02,.45c.22,5.89,.75,13.64,1.97,17.11l.12,.33h35.5l-.09-.58c-.24-1.47,.36-2.82,1.59-3.61l.65-.41-.64-.42c-1.47-.97-2.12-2.66-1.66-4.29,.34-1.21,1.4-2.53,3.36-2.6l.79-.03-.37-.7c-.94-1.81-.31-3.42,.59-4.33,1.15-1.16,2.88-1.4,4.4-.62l.7,.36,.03-.79c.07-1.93,1.39-2.98,2.6-3.32,1.66-.47,3.36,.17,4.34,1.64l.42,.63,.41-.64c1.04-1.6,2.75-1.84,4.01-1.51,1.7,.43,2.88,1.82,3.02,3.54l.06,.73,.66-.32c1.17-.57,2.44-.51,3.58,.16l.68,.4,.07-.79c.68-7.75,.96-16.08,1.08-21.7v-.26l-.21-.15c-1.87-1.36-3.3-3.16-4.28-5.36l-.46-1.04-.46,1.04c-2.14,4.84-6.75,7.85-12.04,7.85s-9.91-3.01-12.04-7.85l-.15-.34-.36,.04c-5.26,.58-10.17-1.92-12.82-6.5-2.65-4.58-2.35-10.08,.78-14.36l.22-.29-.22-.29c-2.84-3.88-3.36-8.8-1.39-13.15,1.97-4.35,6.08-7.31,10.72-7.72l.67-.06-.25-.62c-1.62-4.1-1.01-8.75,1.62-12.43,2.63-3.68,6.73-5.65,11.23-5.46l.73,.04-.24-.7c-1.43-4.21-.58-8.86,2.29-12.43,2.84-3.55,7.1-5.3,11.65-4.8l.36,.04,.15-.33c2.13-4.84,6.75-7.85,12.04-7.85s9.91,3.01,12.04,7.85l.15,.33,.36-.04c4.57-.5,8.81,1.25,11.66,4.8,2.86,3.57,3.72,8.22,2.29,12.43l-.24,.7,.73-.04c4.49-.21,8.6,1.78,11.23,5.46s3.24,8.33,1.62,12.43l-.25,.62,.67,.06c4.65,.41,8.76,3.37,10.72,7.72,1.97,4.36,1.45,9.27-1.39,13.15l-.22,.3,.22,.29c3.13,4.27,3.42,9.77,.78,14.36-2.65,4.58-7.55,7.08-12.82,6.5l-.36-.04-.15,.34c-2.14,4.84-6.75,7.85-12.04,7.85s-9.91-3.01-12.04-7.85l-.46-1.04-.46,1.04c-.97,2.2-2.41,4-4.27,5.36l-.21,.15v.26c.25,11.33,1.1,31.45,4.1,38.9l.13,.31h69.89l.1-.37c1.05-3.81,1.83-11.4,2.31-22.56l.04-.96-.81,.52c-3.75,2.4-7.81,3.83-12.09,4.26,2.36-3.45,3-5.7,3.02-5.8l.33-1.21-1.07,.65s-3.7,2.21-9.21,2.5c2.31-2.56,3.46-5.67,3.52-5.81l.49-1.34-1.22,.74s-3.59,2.14-7.88,1.46c3.79-3.14,7.56-7.42,11.21-12.73l.74-1.08-1.27,.31c-1.81,.44-3.69,.71-5.59,.8,2.17-1.95,3.25-4.21,3.31-4.32l.59-1.25-1.26,.59s-3.5,1.6-7.74,1.17c15.93-10.37,26.69-32.9,30.27-41.27,3.58,8.37,14.33,30.9,30.27,41.27-4.24,.44-7.7-1.16-7.74-1.17l-1.26-.59,.59,1.25c.05,.11,1.14,2.37,3.3,4.32-1.9-.09-3.77-.36-5.59-.8l-1.27-.31,.74,1.08c3.65,5.32,7.42,9.6,11.21,12.73-4.29,.68-7.84-1.44-7.88-1.46l-1.22-.74,.49,1.33c.05,.15,1.21,3.26,3.52,5.82-5.51-.3-9.17-2.48-9.21-2.5l-1.07-.65,.33,1.21c.03,.1,.66,2.35,3.02,5.8-4.28-.43-8.34-1.86-12.09-4.26l-.81-.52,.04,.96c.49,11.16,1.26,18.75,2.31,22.56l.1,.37h67.05l.12-.32c2.34-6,3.01-21.81,3.2-30.7v-.26l-.21-.15c-1.46-1.06-2.59-2.48-3.35-4.2l-.46-1.04-.46,1.04c-1.67,3.79-5.29,6.15-9.43,6.15s-7.76-2.36-9.43-6.15l-.15-.33-.36,.04c-4.14,.45-7.97-1.5-10.04-5.09-2.07-3.59-1.84-7.9,.61-11.24l.22-.29-.22-.29c-2.23-3.04-2.63-6.89-1.09-10.3,1.54-3.41,4.76-5.73,8.4-6.05l.67-.06-.25-.62c-1.27-3.21-.79-6.85,1.27-9.73,2.06-2.88,5.26-4.44,8.8-4.27l.73,.04-.24-.7c-1.12-3.3-.45-6.94,1.79-9.74,2.23-2.78,5.56-4.14,9.13-3.76l.36,.04,.15-.33c1.67-3.79,5.29-6.15,9.43-6.15s7.76,2.36,9.43,6.15l.15,.33,.36-.04c3.57-.38,6.9,.98,9.13,3.76,2.24,2.8,2.91,6.44,1.79,9.74l-.24,.7,.73-.04c3.52-.16,6.73,1.39,8.8,4.27s2.54,6.52,1.27,9.73l-.25,.62,.67,.06c3.64,.32,6.86,2.64,8.4,6.05,1.54,3.41,1.14,7.26-1.09,10.3l-.22,.29,.22,.29c2.45,3.35,2.68,7.65,.61,11.24-2.07,3.59-5.93,5.54-10.04,5.09l-.36-.04-.15,.33c-1.67,3.79-5.29,6.15-9.43,6.15s-7.76-2.36-9.43-6.15l-.46-1.04-.46,1.04c-.76,1.72-1.89,3.14-3.35,4.2l-.21,.15v.26c.19,8.89,.86,24.71,3.2,30.7l.12,.32h9.2l-.06-.56c-.14-1.23,.38-2.41,1.43-3.22l.52-.4-.53-.39c-1.27-.95-1.79-2.43-1.36-3.88,.47-1.56,1.89-2.64,3.64-2.74l.63-.04-.18-.6c-.42-1.44,.06-2.86,1.29-3.82,1.39-1.08,3.27-1.2,4.79-.3l.5,.29,.22-.54c.72-1.77,2.41-2.42,3.75-2.43h.04c1.34,0,3.01,.62,3.76,2.36l.23,.53,.49-.3c1.51-.92,3.39-.84,4.8,.22,1.25,.94,1.75,2.36,1.35,3.8l-.17,.61,.63,.03c1.75,.07,3.2,1.12,3.69,2.68,.46,1.44-.04,2.94-1.29,3.91l-.52,.4,.53,.39c1.14,.85,1.67,2.1,1.45,3.43l-.1,.58h33.54l.11-.34c1.66-4.96,2.27-16.93,2.49-26.1l.02-.85-.75,.39c-2.92,1.52-6.08,2.29-9.38,2.29-11.23,0-20.38-9.14-20.38-20.37,0-9.15,6.16-17.23,14.99-19.65l.47-.13-.12-.47c-.4-1.6-.6-3.25-.6-4.89,0-11.23,9.14-20.38,20.37-20.38s20.38,9.14,20.38,20.38c0,1.64-.2,3.29-.59,4.89l-.12,.47,.47,.13c8.82,2.42,14.98,10.49,14.98,19.65,0,11.23-9.14,20.37-20.37,20.37-3.3,0-6.46-.77-9.38-2.29l-.75-.39,.02,.85c.22,9.17,.84,21.15,2.49,26.1l.11,.34h60.96l.12-.33c1.53-4.18,2.18-13.75,2.45-21.04l.02-.45-.44-.07c-14.16-2.09-23.68-12.15-23.68-25.03,0-14.89,12.67-32.2,29-32.2s29,17.31,29,32.2c0,12.88-9.52,22.94-23.68,25.03l-.44,.07,.02,.45c.28,7.29,.92,16.86,2.45,21.04l.12,.33h48.53v-1h-47.83c-1.37-4.14-1.99-12.99-2.26-19.96,14.43-2.31,24.09-12.69,24.09-25.95,0-15.35-13.1-33.2-30-33.2s-30,17.85-30,33.2c0,13.26,9.66,23.64,24.09,25.95-.27,6.97-.89,15.83-2.26,19.96h-59.53c-1.56-5.12-2.11-17.24-2.31-24.64,2.85,1.35,5.91,2.03,9.09,2.03,11.79,0,21.37-9.59,21.37-21.37,0-9.44-6.25-17.79-15.26-20.48,.34-1.53,.51-3.1,.51-4.66,0-11.79-9.59-21.38-21.38-21.38s-21.37,9.59-21.37,21.38c0,1.56,.17,3.13,.51,4.66-9.01,2.69-15.26,11.04-15.26,20.48,0,11.79,9.59,21.37,21.38,21.37,3.18,0,6.24-.68,9.09-2.03-.2,7.4-.75,19.51-2.31,24.64h-31.67c.04-1.28-.47-2.5-1.43-3.42,1.25-1.22,1.7-2.94,1.17-4.6-.57-1.78-2.11-3.04-4.02-3.32,.23-1.63-.44-3.24-1.84-4.29-1.59-1.2-3.67-1.39-5.44-.53-.87-1.54-2.52-2.48-4.43-2.48h-.05c-1.93,.02-3.58,.98-4.44,2.56-1.78-.82-3.86-.6-5.43,.63-1.38,1.08-2.03,2.69-1.76,4.32-1.9,.32-3.43,1.6-3.96,3.39-.5,1.67-.02,3.38,1.25,4.58-.88,.87-1.37,1.98-1.38,3.16h-7.43c-2.17-6.02-2.81-21.07-3-29.78,1.24-.94,2.25-2.12,3.01-3.52,1.99,3.61,5.69,5.82,9.89,5.82,4.43,0,8.3-2.45,10.2-6.42,4.39,.33,8.44-1.79,10.65-5.62,2.21-3.83,2.03-8.41-.46-12.04,2.26-3.29,2.63-7.38,.98-11.01-1.6-3.53-4.85-6-8.58-6.56,1.11-3.37,.53-7.1-1.6-10.08-2.12-2.97-5.36-4.66-8.96-4.7,.93-3.44,.14-7.14-2.16-10.01-2.37-2.96-5.87-4.46-9.66-4.16-1.9-3.97-5.77-6.42-10.2-6.42s-8.3,2.45-10.2,6.42c-3.78-.29-7.29,1.21-9.66,4.16-2.31,2.88-3.09,6.57-2.16,10.01-3.6,.04-6.83,1.73-8.96,4.7-2.13,2.98-2.71,6.7-1.6,10.08-3.73,.56-6.98,3.02-8.58,6.56-1.64,3.63-1.27,7.72,.98,11.01-2.49,3.63-2.67,8.21-.46,12.04,2.21,3.83,6.27,5.96,10.65,5.62,1.9,3.97,5.77,6.42,10.2,6.42,4.2,0,7.9-2.2,9.89-5.82,.76,1.39,1.77,2.57,3.01,3.52-.19,8.71-.83,23.76-3,29.78h-65.59c-.95-3.74-1.67-10.8-2.14-21.02,3.98,2.38,8.28,3.72,12.82,4l1.06,.06-.63-.86c-1.65-2.26-2.57-4.08-3.05-5.19,1.72,.79,5.21,2.07,9.78,2.07h1.29l-.95-.87c-1.76-1.61-2.97-3.77-3.61-5.1,1.68,.71,4.85,1.66,8.4,.74l.98-.25-.79-.62c-3.74-2.93-7.47-7.01-11.1-12.13,1.97,.39,3.99,.59,6.03,.59h1.58l-1.29-.91c-1.64-1.16-2.8-2.67-3.47-3.7,1.7,.55,4.83,1.24,8.32,.54l1.26-.25-1.1-.66c-17.08-10.32-28.41-35.23-31.47-42.62l-.46-1.11-.46,1.11c-3.07,7.39-14.4,32.3-31.47,42.62l-1.1,.66,1.26,.25c3.49,.7,6.62,0,8.32-.54-.67,1.03-1.83,2.55-3.47,3.7l-1.29,.91h1.58c2.04,0,4.07-.2,6.03-.59-3.63,5.13-7.36,9.2-11.1,12.13l-.79,.62,.98,.25c3.55,.93,6.72-.02,8.4-.74-.64,1.33-1.85,3.49-3.61,5.1l-.95,.87h1.29c4.57,0,8.06-1.28,9.78-2.07-.48,1.11-1.4,2.93-3.05,5.19l-.63,.86,1.06-.06c4.53-.28,8.84-1.62,12.82-4-.47,10.22-1.19,17.28-2.14,21.02h-68.44c-2.82-7.48-3.65-26.82-3.89-37.97,1.64-1.24,2.96-2.8,3.93-4.66,2.46,4.65,7.16,7.5,12.5,7.5s10.45-3.1,12.81-8.12c5.52,.46,10.65-2.21,13.43-7.03s2.54-10.6-.63-15.15c2.87-4.13,3.36-9.28,1.28-13.86-2.03-4.48-6.16-7.58-10.9-8.24,1.46-4.26,.74-8.99-1.96-12.77-2.69-3.77-6.81-5.89-11.38-5.89,1.23-4.36,.26-9.05-2.66-12.7-2.99-3.72-7.4-5.61-12.18-5.2-2.36-5.02-7.23-8.12-12.81-8.12s-10.45,3.1-12.81,8.12c-4.78-.41-9.2,1.48-12.18,5.2-2.93,3.65-3.9,8.35-2.67,12.7-4.57,0-8.69,2.12-11.38,5.89-2.7,3.78-3.41,8.5-1.96,12.77-4.74,.65-8.88,3.76-10.9,8.24-2.07,4.58-1.59,9.73,1.28,13.86-3.17,4.55-3.41,10.32-.63,15.15s7.92,7.49,13.43,7.03c2.36,5.02,7.23,8.12,12.81,8.12s10.04-2.85,12.5-7.5c.98,1.86,2.3,3.42,3.93,4.66-.12,5.42-.39,13.25-1.01,20.65-1.04-.42-2.16-.45-3.22-.11-.39-1.84-1.77-3.29-3.67-3.77-1.8-.46-3.53,.07-4.68,1.39-1.26-1.44-3.17-2.03-5.03-1.5-1.74,.5-2.94,1.82-3.25,3.54-1.74-.62-3.61-.22-4.91,1.09-1.29,1.29-1.67,3.13-1.06,4.84-1.74,.31-3.08,1.51-3.57,3.25-.52,1.84,.07,3.72,1.51,4.97-1.05,.91-1.6,2.2-1.54,3.61h-33.64c-1.07-3.41-1.56-10.47-1.79-16.04,11.78-1.92,19.67-10.42,19.67-21.27,0-12.58-10.74-27.2-24.58-27.2s-24.58,14.62-24.58,27.2c0,10.85,7.88,19.35,19.66,21.27-.22,5.57-.71,12.62-1.79,16.04h-54.09c-1.23-3.1-2.14-9.38-2.65-18.23,4.94-1.72,8.88-5.14,11.14-9.7,8.29,.7,16.07-3.28,19.88-10.22,3.48-6.35,2.92-13.56-1.48-19.37,4.41-5.81,4.96-13.03,1.48-19.37-3.81-6.94-11.58-10.92-19.88-10.22-3.35-6.74-10.35-10.91-18.37-10.91h0c-8.01,0-15.02,4.17-18.37,10.91-8.29-.7-16.07,3.28-19.88,10.22-3.48,6.35-2.92,13.56,1.48,19.37-4.4,5.81-4.96,13.03-1.48,19.37,3.81,6.94,11.57,10.93,19.88,10.22,2.26,4.55,6.2,7.98,11.14,9.7-.51,8.85-1.42,15.13-2.65,18.23h-61.63c-1.04-4.03-1.82-11.72-2.33-22.87,4.31,2.59,8.98,4.05,13.89,4.35l1.06,.06-.63-.86c-1.83-2.51-2.84-4.52-3.34-5.71,1.82,.85,5.62,2.28,10.64,2.28h1.29l-.95-.87c-1.95-1.78-3.28-4.18-3.96-5.62,1.78,.77,5.25,1.85,9.15,.83l.98-.25-.79-.62c-4.06-3.18-8.11-7.62-12.06-13.2,2.15,.43,4.37,.65,6.61,.65h1.58l-1.29-.91c-1.83-1.29-3.11-2.99-3.82-4.11,1.81,.59,5.24,1.39,9.08,.62l1.26-.25-1.1-.66c-18.46-11.15-30.71-38.08-34.02-46.06l-.46-1.11-.46,1.11c-3.31,7.99-15.56,34.91-34.02,46.06l-1.1,.66,1.26,.25c3.84,.77,7.27-.03,9.08-.62-.72,1.12-2,2.82-3.82,4.11l-1.29,.91h1.58c2.24,0,4.46-.22,6.61-.65-3.94,5.58-8,10.02-12.06,13.2l-.79,.62,.98,.25c3.9,1.02,7.36-.06,9.14-.83-.68,1.43-2.01,3.83-3.96,5.62l-.95,.87h1.29c5.02,0,8.82-1.43,10.64-2.28-.5,1.19-1.51,3.2-3.34,5.71l-.63,.86,1.06-.06c4.91-.3,9.58-1.76,13.89-4.35-.51,11.15-1.29,18.83-2.33,22.87h-13.46c2.08-3.17,3.01-5.71,3.05-5.83l.27-.73-.78,.06c-.14,.01-3.31,.28-7.38,1.72,.47-4.9-.27-8.6-.3-8.76l-.16-.76-.63,.46c-.12,.08-2.65,1.95-5.36,5.27-1.22-5.98-3.9-10.2-4.02-10.39l-.42-.65-.42,.65c-.11,.18-2.65,4.17-3.92,9.89-2.55-3.01-4.84-4.7-4.94-4.77l-.63-.46-.16,.76c-.03,.16-.77,3.85-.3,8.76-4.07-1.44-7.24-1.71-7.38-1.72l-.78-.06,.27,.73c.04,.12,.98,2.66,3.05,5.83h-20.74c-1.93-5.87-3.34-18.61-4.09-36.94,6.95,3.63,14.51,5.68,22.47,6.08l1.18,.06-.78-.89c-3.15-3.59-4.74-6.41-5.46-7.88,2.5,1.04,8.72,3.2,17.17,3.2h1.48l-1.18-.9c-3.32-2.52-5.49-5.98-6.48-7.78,2.49,.98,8.23,2.73,14.75,1.31l1.17-.25-1-.65c-8.25-5.38-16.42-13.45-24.29-23.99,2.54,.5,5.14,.75,7.75,.75h1.48l-1.18-.9c-2.6-1.98-4.35-4.66-5.21-6.19,2.17,.82,6.78,2.14,12,1l1.17-.25-1-.65c-7.25-4.73-14.41-11.96-21.3-21.51,1.56,.25,3.15,.37,4.73,.37h1.48l-1.18-.9c-1.77-1.35-3.01-3.13-3.69-4.29,1.75,.62,5.03,1.44,8.72,.64l1.17-.25-1-.65c-17.71-11.55-29.46-39.43-32.64-47.7l-.47-1.21-.47,1.21c-3.18,8.27-14.93,36.16-32.64,47.7l-1,.65,1.17,.25c3.69,.8,6.97-.02,8.72-.64-.68,1.16-1.92,2.94-3.69,4.29l-1.18,.9h1.48c1.58,0,3.17-.12,4.73-.37-6.89,9.55-14.05,16.79-21.3,21.51l-1,.65,1.17,.25c5.22,1.14,9.83-.18,12-1-.86,1.53-2.6,4.2-5.21,6.19l-1.18,.9h1.48c2.61,0,5.21-.25,7.75-.75-7.88,10.54-16.05,18.61-24.3,23.99l-1,.65,1.17,.25c6.52,1.42,12.26-.34,14.75-1.31-.99,1.81-3.16,5.26-6.48,7.78l-1.18,.9h1.48c8.45,0,14.67-2.16,17.17-3.2-.71,1.48-2.31,4.29-5.46,7.88l-.78,.89,1.18-.06c7.96-.4,15.52-2.45,22.47-6.08-.75,18.32-2.17,31.07-4.09,36.94h-23.87c.04-1.28-.46-2.5-1.43-3.42,1.25-1.22,1.7-2.94,1.17-4.6-.57-1.78-2.11-3.04-4.02-3.32,.23-1.63-.44-3.24-1.84-4.29-1.59-1.19-3.67-1.38-5.44-.53-.88-1.56-2.58-2.52-4.48-2.48-1.93,.02-3.58,.98-4.44,2.56-1.78-.82-3.86-.6-5.43,.63-1.38,1.08-2.02,2.69-1.76,4.32-1.9,.32-3.43,1.6-3.96,3.39-.5,1.67-.02,3.38,1.25,4.58-.88,.87-1.37,1.98-1.38,3.16h-15.05c-1.98-6.16-2.92-19.74-3.37-30.47,5.77,2.99,12.03,4.67,18.64,5.01l1.18,.06-.78-.89c-2.49-2.84-3.8-5.09-4.44-6.36,2.21,.89,7.3,2.59,14.13,2.59h1.48l-1.18-.9c-2.64-2-4.4-4.72-5.27-6.26,2.18,.83,6.85,2.16,12.12,1.02l1.17-.25-1-.65c-6.82-4.45-13.58-11.11-20.1-19.8,2.05,.39,4.15,.59,6.26,.59h1.48l-1.18-.9c-2.05-1.56-3.46-3.64-4.21-4.93,1.9,.69,5.63,1.67,9.83,.76l1.17-.25-1-.65c-5.99-3.91-11.91-9.87-17.61-17.74,1.24,.19,2.5,.28,3.76,.28h1.48l-1.18-.9c-1.37-1.04-2.35-2.4-2.94-3.36,1.51,.5,4.15,1.1,7.09,.46l1.17-.25-1-.65c-14.74-9.61-24.52-32.83-27.17-39.71l-.47-1.21-.47,1.21c-2.65,6.89-12.43,30.1-27.17,39.71l-1,.65,1.17,.25c2.95,.64,5.58,.05,7.09-.46-.58,.96-1.57,2.32-2.94,3.36l-1.18,.9h1.48c1.26,0,2.52-.09,3.76-.28-5.7,7.87-11.62,13.83-17.61,17.74l-1,.65,1.17,.25c4.2,.91,7.93-.07,9.83-.76-.75,1.29-2.16,3.37-4.21,4.93l-1.18,.9h1.48c2.11,0,4.21-.2,6.26-.59-6.52,8.69-13.27,15.35-20.1,19.8l-1,.65,1.17,.25c5.27,1.15,9.94-.19,12.12-1.02-.87,1.54-2.63,4.25-5.27,6.26l-1.18,.9h1.48c6.83,0,11.93-1.69,14.14-2.59-.63,1.27-1.95,3.52-4.44,6.36l-.78,.89,1.18-.06c6.6-.33,12.87-2.02,18.63-5.01-.62,15.04-1.78,25.55-3.37,30.47h-66.66c-1.97-5.57-2.56-19.31-2.73-27.29,1.12-.85,2.03-1.92,2.72-3.17,1.84,3.3,5.24,5.31,9.09,5.31,4.08,0,7.65-2.25,9.4-5.9,4.03,.3,7.77-1.66,9.81-5.19,2.04-3.53,1.87-7.75-.41-11.09,2.07-3.03,2.41-6.79,.89-10.14-1.47-3.25-4.45-5.52-7.88-6.05,1-3.1,.46-6.52-1.49-9.26-1.95-2.73-4.92-4.29-8.21-4.34,.84-3.16,.11-6.55-2.01-9.19-2.18-2.72-5.41-4.11-8.89-3.84-1.75-3.65-5.32-5.9-9.4-5.9s-7.64,2.25-9.4,5.9c-3.49-.27-6.71,1.12-8.89,3.84-2.12,2.64-2.85,6.03-2.01,9.19-3.3,.06-6.26,1.61-8.21,4.34-1.96,2.74-2.5,6.15-1.49,9.25-3.43,.53-6.41,2.8-7.88,6.05-1.51,3.35-1.18,7.11,.89,10.14-2.28,3.34-2.45,7.56-.41,11.09,2.04,3.53,5.78,5.5,9.81,5.19,1.75,3.65,5.32,5.9,9.4,5.9,3.85,0,7.25-2.01,9.09-5.31,.7,1.25,1.61,2.32,2.72,3.17-.18,7.97-.76,21.72-2.74,27.29h-15.75c-.16-1.15-.74-2.19-1.64-2.97,1.31-1.13,1.85-2.85,1.4-4.62-.48-1.9-1.94-3.29-3.8-3.68,.55-1.69,.1-3.55-1.23-4.9-1.35-1.36-3.24-1.82-4.97-1.26-.39-1.84-1.77-3.29-3.67-3.77-1.8-.46-3.53,.07-4.68,1.39-1.26-1.44-3.17-2.03-5.03-1.5-1.74,.5-2.94,1.82-3.25,3.54-1.74-.62-3.61-.22-4.91,1.09-1.29,1.29-1.67,3.13-1.06,4.84-1.74,.31-3.08,1.51-3.57,3.26-.52,1.84,.07,3.72,1.51,4.97-1.05,.91-1.6,2.2-1.54,3.61h-35.14c-1.73-5.96-3.04-17.58-3.91-34.54,8.86,5.2,18.54,8.12,28.78,8.67l1.13,.06-.72-.88c-4.12-5.01-6.07-8.88-6.86-10.69,2.85,1.28,10.73,4.31,21.28,4.31h1.41l-1.1-.89c-4.3-3.49-7.04-8.33-8.16-10.57,2.85,1.24,10.07,3.75,18.31,1.84l1.1-.25-.92-.64c-10.92-7.6-21.71-19.27-32.07-34.71,3.37,1.04,8.23,2.09,14.04,2.09h1.41l-1.09-.89c-3.61-2.93-5.94-6.96-6.96-8.96,2.58,1.09,8.73,3.14,15.72,1.52l1.1-.25-.93-.64c-11.09-7.71-21.95-20.21-32.3-37.15,2.68,.88,6.48,1.75,11.1,1.75h1.41l-1.1-.89c-2.51-2.04-4.19-4.79-5.01-6.36,2.1,.84,6.52,2.18,11.51,1.02l1.1-.25-.92-.64c-8.26-5.75-16.35-15.05-24.07-27.67,2.01,.7,5.11,1.47,8.95,1.47h1.41l-1.1-.89c-1.78-1.44-3.02-3.36-3.69-4.59,1.73,.65,4.99,1.52,8.65,.68l1.1-.25-.92-.64c-17.52-12.18-29.14-41.6-32.28-50.32l-.47-1.3-.47,1.3c-3.15,8.73-14.77,38.14-32.29,50.32l-.92,.64,1.1,.25c3.66,.85,6.92-.02,8.65-.68-.67,1.22-1.9,3.14-3.69,4.59l-1.1,.89h1.41c3.84,0,6.94-.78,8.95-1.47-7.72,12.62-15.81,21.93-24.07,27.67l-.92,.64,1.1,.25c4.99,1.16,9.41-.17,11.51-1.02-.82,1.56-2.5,4.32-5.01,6.36l-1.1,.89h1.41c4.62,0,8.43-.87,11.1-1.75-10.34,16.94-21.21,29.43-32.3,37.15l-.92,.64,1.1,.25c6.99,1.62,13.14-.43,15.72-1.52-1.01,2-3.35,6.03-6.96,8.96l-1.09,.89h1.41c5.82,0,10.67-1.05,14.04-2.09-10.36,15.44-21.15,27.11-32.07,34.71l-.92,.64,1.1,.25c8.24,1.91,15.47-.61,18.32-1.84-1.12,2.25-3.85,7.08-8.16,10.57l-1.1,.89h1.41c10.55,0,18.42-3.03,21.28-4.31-.79,1.82-2.74,5.68-6.86,10.69l-.72,.88,1.13-.06c10.24-.55,19.92-3.47,28.78-8.67-.87,16.96-2.18,28.57-3.91,34.54h-26.78c2.08-3.17,3.01-5.71,3.05-5.83l.27-.73-.78,.06c-.14,.01-3.31,.28-7.38,1.72,.47-4.91-.27-8.6-.3-8.76l-.15-.76-.63,.46c-.12,.08-2.65,1.95-5.36,5.27-1.22-5.98-3.9-10.2-4.02-10.39l-.42-.65-.42,.65c-.11,.18-2.65,4.17-3.91,9.89-2.55-3.01-4.84-4.7-4.95-4.77l-.63-.46-.16,.76c-.03,.16-.77,3.85-.3,8.76-4.07-1.44-7.24-1.71-7.38-1.72l-.78-.06,.27,.73c.04,.12,.98,2.66,3.05,5.83h-22.99c-1.96-6.11-2.89-19.57-3.34-30.22,5.72,2.96,11.94,4.63,18.48,4.97l1.18,.06-.78-.89c-2.46-2.81-3.77-5.04-4.4-6.29,2.2,.89,7.24,2.56,14.01,2.56h1.48l-1.18-.9c-2.61-1.98-4.36-4.67-5.22-6.2,2.17,.82,6.8,2.14,12.02,1l1.17-.25-1-.65c-6.76-4.41-13.46-11.01-19.93-19.63,2.03,.39,4.11,.58,6.2,.58h1.48l-1.18-.9c-2.03-1.54-3.42-3.6-4.17-4.88,1.88,.68,5.59,1.65,9.74,.75l1.17-.25-1-.65c-5.94-3.87-11.81-9.79-17.46-17.59,1.23,.18,2.48,.28,3.72,.28h1.48l-1.18-.9c-1.35-1.03-2.33-2.37-2.91-3.32,1.5,.5,4.12,1.08,7.03,.45l1.17-.25-1-.65c-14.62-9.53-24.32-32.56-26.95-39.39l-.47-1.21-.47,1.21c-2.63,6.83-12.33,29.86-26.95,39.39l-1,.65,1.17,.25c2.91,.63,5.53,.05,7.03-.45-.58,.95-1.55,2.29-2.91,3.32l-1.18,.9h1.48c1.25,0,2.49-.09,3.72-.28-5.65,7.8-11.52,13.72-17.46,17.59l-1,.65,1.17,.25c4.16,.9,7.86-.07,9.74-.75-.74,1.28-2.14,3.34-4.17,4.88l-1.18,.9h1.48c2.09,0,4.17-.2,6.2-.58-6.46,8.62-13.16,15.22-19.93,19.63l-1,.65,1.17,.25c5.22,1.14,9.85-.18,12.02-1-.86,1.53-2.61,4.22-5.22,6.2l-1.18,.9h1.48c6.77,0,11.82-1.68,14.01-2.56-.63,1.26-1.94,3.49-4.4,6.29l-.78,.89,1.18-.06c6.55-.33,12.76-2,18.48-4.97-.44,10.64-1.38,24.1-3.34,30.22h-8.18c-.07-.77-.41-1.49-.96-2.06,.89-.92,1.21-2.19,.83-3.42-.41-1.32-1.52-2.28-2.92-2.54,.14-1.21-.37-2.38-1.39-3.17-1.17-.9-2.7-1.07-4.03-.49-.68-1.13-1.91-1.82-3.34-1.82h0c-1.43,0-2.66,.68-3.34,1.82-1.33-.58-2.86-.4-4.03,.49-1.03,.79-1.53,1.96-1.39,3.17-1.4,.26-2.51,1.22-2.92,2.54-.38,1.23-.06,2.5,.83,3.42-.55,.58-.89,1.29-.96,2.06h-29.71c-1.04-4.03-1.82-11.72-2.33-22.87,4.31,2.59,8.98,4.05,13.89,4.35l1.06,.06-.63-.86c-1.83-2.51-2.83-4.52-3.34-5.71,1.82,.85,5.62,2.28,10.64,2.28h1.29l-.95-.87c-1.95-1.78-3.28-4.18-3.96-5.62,1.78,.77,5.25,1.85,9.15,.83l.98-.25-.79-.62c-4.06-3.18-8.11-7.62-12.06-13.2,2.15,.43,4.37,.65,6.61,.65h1.58l-1.29-.91c-1.83-1.29-3.11-2.99-3.82-4.11,1.81,.59,5.24,1.39,9.08,.62l1.26-.25-1.1-.66c-18.46-11.15-30.71-38.08-34.02-46.06l-.46-1.11-.46,1.11c-3.31,7.99-15.56,34.91-34.02,46.06l-1.1,.66,1.26,.25c3.84,.77,7.27-.03,9.08-.62-.72,1.12-2,2.82-3.82,4.11l-1.29,.91h1.58c2.24,0,4.46-.22,6.61-.65-3.94,5.58-8,10.02-12.06,13.2l-.79,.62,.98,.25c3.9,1.02,7.36-.06,9.15-.83-.68,1.43-2.01,3.83-3.96,5.62l-.95,.87h1.29c5.02,0,8.82-1.43,10.64-2.28-.5,1.19-1.51,3.2-3.34,5.71l-.63,.86,1.06-.06c4.91-.3,9.58-1.76,13.89-4.35-.51,11.15-1.29,18.83-2.33,22.87h-9.85c-.06-.87-.44-1.68-1.07-2.33,.98-.99,1.33-2.36,.92-3.7-.44-1.43-1.66-2.46-3.17-2.74,.16-1.31-.38-2.59-1.49-3.44-1.27-.97-2.93-1.16-4.37-.51-.72-1.24-2.06-1.98-3.61-1.98s-2.89,.75-3.61,1.98c-1.47-.66-2.99-.41-4.12,.34,.1-1.36-.4-2.74-1.45-3.79-1.35-1.36-3.24-1.82-4.97-1.26-.39-1.84-1.77-3.29-3.67-3.77-1.8-.46-3.53,.07-4.68,1.39-1.26-1.44-3.17-2.03-5.03-1.5-1.74,.5-2.94,1.82-3.25,3.54-1.74-.62-3.61-.22-4.91,1.09-1.29,1.29-1.67,3.13-1.06,4.84-1.74,.31-3.08,1.51-3.57,3.26-.52,1.84,.07,3.72,1.51,4.97-1.05,.91-1.6,2.2-1.54,3.61h-8.01c-2.26-6.92-3.33-22.41-3.84-34.61,6.53,3.4,13.62,5.32,21.09,5.69l1.18,.06-.78-.89c-2.91-3.32-4.4-5.93-5.09-7.33,2.39,.99,8.21,2.98,16.08,2.98h1.48l-1.18-.9c-3.07-2.34-5.1-5.52-6.05-7.24,2.38,.93,7.73,2.53,13.8,1.21l1.17-.25-1-.65c-7.74-5.04-15.4-12.6-22.78-22.48,2.37,.46,4.79,.69,7.21,.69h1.48l-1.18-.9c-2.4-1.83-4.03-4.29-4.85-5.74,2.07,.77,6.37,1.97,11.22,.91l1.17-.25-1-.65c-6.8-4.43-13.51-11.21-19.97-20.16,1.45,.23,2.91,.34,4.38,.34h1.48l-1.18-.9c-1.62-1.24-2.77-2.86-3.42-3.95,1.66,.58,4.72,1.31,8.13,.57l1.17-.25-1-.65c-16.64-10.85-27.68-37.05-30.67-44.83l-.47-1.21-.47,1.21c-2.99,7.77-14.03,33.98-30.67,44.83l-1,.65,1.17,.25c3.42,.74,6.47,0,8.13-.57-.65,1.09-1.8,2.72-3.42,3.95l-1.18,.9h1.48c1.47,0,2.94-.11,4.38-.34-6.46,8.95-13.17,15.72-19.97,20.16l-1,.65,1.17,.25c4.85,1.06,9.14-.14,11.22-.91-.82,1.45-2.45,3.91-4.85,5.74l-1.18,.9h1.48c2.43,0,4.85-.23,7.21-.69-7.39,9.88-15.05,17.44-22.78,22.48l-1,.65,1.17,.25c6.07,1.32,11.42-.28,13.8-1.21-.95,1.71-2.97,4.9-6.05,7.24l-1.18,.9h1.48c7.87,0,13.68-1.99,16.08-2.98-.68,1.4-2.18,4.02-5.09,7.33l-.78,.89,1.18-.06c7.47-.38,14.56-2.29,21.09-5.69-.5,12.21-1.57,27.69-3.84,34.61h-6.49c1.72-2.67,2.49-4.78,2.53-4.87l.27-.73-.78,.06c-.12,0-2.81,.24-6.29,1.46,.38-4.19-.24-7.34-.27-7.48l-.16-.76-.63,.46c-.1,.07-2.24,1.65-4.55,4.45-1.06-5.1-3.35-8.69-3.45-8.85l-.42-.65-.42,.65c-.1,.15-2.26,3.55-3.36,8.43-2.17-2.54-4.1-3.96-4.19-4.03l-.63-.46-.15,.76c-.03,.14-.65,3.28-.27,7.48-3.47-1.22-6.17-1.45-6.29-1.46l-.78-.06,.27,.73c.04,.1,.81,2.21,2.53,4.87H0v1Z"/></g></svg>