<?xml version="1.0" encoding="UTF-8"?><svg id="_イヤー_2" xmlns="http://www.w3.org/2000/svg" viewBox="0 0 251.07 256"><defs><style>.cls-1{fill:#e0e0e4;}</style></defs><g id="_集モード"><g><path class="cls-1" d="M242.91,119.99l8.13,.45c-1.44-24.81-9.95-47.72-23.54-66.75l3.84,54.89c.43,6.18,5.39,11.06,11.57,11.41Z"/><path class="cls-1" d="M251.07,135.03l-8.16,.45c-6.18,.34-11.14,5.23-11.57,11.41l-3.86,55.44c13.7-19.17,22.24-42.28,23.59-67.31Z"/><path class="cls-1" d="M216.16,147.13c-.44-6.28-5.55-11.21-11.84-11.42l-96.57-3.25h0c50.67,7.98,69.98,21.15,56.97,44.54-16.35,26.31-45.51,43.83-78.77,43.83-38.66,0-71.79-23.67-85.69-57.31,15.4,53.41,64.63,92.48,123,92.48,38.97,0,73.87-17.42,97.35-44.9l-4.45-63.97Z"/><path class="cls-1" d="M85.95,35.45c48.66,0,88.56,37.5,92.39,85.18l25.99-.87c6.29-.21,11.4-5.14,11.84-11.42l4.44-63.46C197.13,17.42,162.23,0,123.27,0,64.56,0,15.09,39.52,0,93.41,13.74,59.43,47.05,35.45,85.95,35.45Z"/></g></g></svg>