<?xml version="1.0" encoding="utf-8"?>
<!-- Generator: Adobe Illustrator 26.4.1, SVG Export Plug-In . SVG Version: 6.00 Build 0)  -->
<svg version="1.1" id="_イヤー_2" xmlns="http://www.w3.org/2000/svg" xmlns:xlink="http://www.w3.org/1999/xlink" x="0px"
	 y="0px" viewBox="0 0 1800 130.1" style="enable-background:new 0 0 1800 130.1;" xml:space="preserve">
<g id="town">
	<g>
		<path d="M443.5,64.8v7.4h10v-7.4H443.5z M452.1,70.9h-7.3v-4.8h7.3V70.9z"/>
		<path d="M1619,72.8h-17.2v12.6h17.2V72.8z M1617.6,84h-14.5v-9.9h14.5V84z"/>
		<path d="M1318,115.6h18.4v-13.5H1318V115.6z M1319.3,103.4h15.7v10.9h-15.7V103.4z"/>
		<path d="M706.3,78.5h15.8V56.7h-15.8V78.5z M707.6,58h13.2v19.1h-13.2C707.6,77.2,707.6,58,707.6,58z"/>
		<path d="M1336.3,50.7H1318v13.5h18.4C1336.3,64.2,1336.3,50.7,1336.3,50.7z M1335,62.9h-15.7V52h15.7V62.9z"/>
		<path d="M491.7,64.8v7.4h10v-7.4H491.7z M500.4,70.9h-7.3v-4.8h7.3V70.9z"/>
		<path d="M1644.8,111.8h19.6V97.5h-19.6V111.8z M1646.1,98.8h17v11.7h-17V98.8z"/>
		<path d="M1664.5,69.1h-19.7v14.3h19.7V69.1z M1663.1,82.1h-17.1V70.4h17.1V82.1z"/>
		<path d="M395.8,130.1h16.7v-25.4h-16.7V130.1z M397.1,106h14.1v22.7h-14.1C397.1,128.8,397.1,106,397.1,106z"/>
		<path d="M440.1,117h16.7v-12.3h-16.7V117z M441.4,106h14.1v9.6h-14.1V106z"/>
		<path d="M0,128.8v1.3h28l-0.1-0.7c-0.2-1.8,0.5-3.3,2-4.2l0.9-0.5l-0.8-0.6c-1.8-1.2-2.6-3.3-2.1-5.3c0.4-1.5,1.7-3.1,4.2-3.2l1,0
			l-0.5-0.9c-1.2-2.2-0.4-4.2,0.7-5.4c1.4-1.4,3.6-1.7,5.5-0.8l0.9,0.5l0-1c0.1-2.4,1.7-3.7,3.2-4.1c2.1-0.6,4.2,0.2,5.4,2l0.6,0.8
			l0.5-0.8c1.3-2,3.4-2.3,5-1.9c2.1,0.5,3.6,2.3,3.8,4.4l0.1,1l0.9-0.4c1-0.5,2-0.6,3.1-0.4l0.8,0.2l0-0.8c0.4-6,0.6-11.9,0.7-15.8
			v-0.3l-0.3-0.2c-1.8-1.3-3.2-3.1-4.1-5.2L58.7,85l-0.6,1.4c-2.1,4.7-6.5,7.6-11.6,7.6s-9.6-2.9-11.6-7.6l-0.2-0.4L34.2,86
			c-5.1,0.6-9.8-1.8-12.4-6.3c-2.5-4.4-2.3-9.7,0.8-13.8l0.3-0.4l-0.3-0.4c-2.7-3.7-3.2-8.5-1.3-12.7s5.9-7,10.3-7.5l0.9-0.1
			L32.1,44c-1.6-4-1-8.4,1.6-12s6.5-5.5,10.8-5.3l1,0l-0.3-0.9c-1.4-4.1-0.5-8.6,2.2-12c2.7-3.4,6.8-5.1,11.2-4.6l0.5,0.1l0.2-0.4
			c2.1-4.7,6.5-7.6,11.6-7.6s9.6,2.9,11.6,7.6l0.2,0.4l0.5-0.1c4.4-0.5,8.5,1.2,11.2,4.6c2.8,3.4,3.6,7.9,2.2,12l-0.3,0.9l1,0
			c4.3-0.2,8.3,1.7,10.8,5.3s3.1,8,1.6,12l-0.3,0.8l0.9,0.1c4.5,0.4,8.4,3.3,10.3,7.5c1.9,4.2,1.4,8.9-1.3,12.7l-0.3,0.4l0.3,0.4
			c3,4.1,3.3,9.4,0.8,13.8c-2.6,4.4-7.3,6.8-12.4,6.3l-0.5-0.1l-0.2,0.4c-2.1,4.7-6.5,7.6-11.6,7.6s-9.6-2.9-11.6-7.6L83.1,85
			l-0.6,1.4c-0.9,2.1-2.3,3.9-4.1,5.2l-0.3,0.2v0.3c0.2,10.8,1,30,3.8,37.6l0.2,0.4h82.7l0.2-0.4c1.2-3.3,2.1-9.5,2.6-18.4l0-0.5
			l-0.5-0.2c-4.8-1.6-8.6-4.9-10.7-9.3l-0.2-0.4l-0.5,0.1c-7.8,0.8-15.1-2.9-18.7-9.4c-3.2-5.9-2.6-12.6,1.6-18l0.3-0.4l-0.3-0.4
			c-4.2-5.4-4.8-12.1-1.6-18c3.6-6.5,10.9-10.2,18.7-9.4l0.5,0l0.2-0.4c3-6.4,9.6-10.3,17.1-10.3s14,4,17.1,10.3l0.2,0.4l0.5,0
			c7.8-0.8,15.1,2.9,18.7,9.4c3.2,5.9,2.6,12.6-1.6,18l-0.3,0.4l0.3,0.4c4.2,5.4,4.8,12.1,1.6,18c-3.6,6.5-10.9,10.2-18.7,9.4
			l-0.5-0.1l-0.2,0.4c-2.1,4.4-5.9,7.7-10.7,9.3l-0.5,0.2l0,0.5c0.5,9,1.4,15.2,2.6,18.4l0.2,0.4H195l-0.1-0.7
			c-0.1-1.7,0.6-3.3,2.1-4.4l0.7-0.5l-0.7-0.5c-1.8-1.4-2.6-3.5-1.9-5.6c0.7-2.2,2.8-3.8,5.3-3.9l0.8,0l-0.2-0.8
			c-0.6-2.1,0.1-4.1,1.9-5.5c2-1.5,4.7-1.7,6.9-0.4l0.6,0.4l0.3-0.7c1.1-2.5,3.5-3.4,5.4-3.4s4.4,0.9,5.4,3.4l0.3,0.7l0.6-0.4
			c2.2-1.3,4.9-1.2,6.9,0.4c1.8,1.4,2.5,3.4,1.9,5.5l-0.2,0.8l0.8,0c2.5,0.1,4.6,1.7,5.3,3.9c0.6,2.1-0.1,4.2-1.9,5.6l-0.7,0.5
			l0.7,0.5c1.5,1.1,2.2,2.7,2.1,4.4l-0.1,0.7h27.9l0.1-0.5c1.1-3.6,1.6-10.9,1.8-16.3l0-0.6l-0.6-0.1c-11.2-1.7-18.7-9.6-18.7-19.7
			c0-11.8,10-25.4,22.9-25.4s22.9,13.7,22.9,25.4c0,10.2-7.5,18.1-18.7,19.7l-0.6,0.1l0,0.6c0.2,5.5,0.7,12.7,1.8,16.3l0.1,0.5h57.9
			l0.1-0.5c1.1-3.6,1.6-10.9,1.8-16.3l0-0.6l-0.6-0.1c-11.2-1.7-18.7-9.6-18.7-19.7c0-11.8,10-25.4,22.9-25.4s22.9,13.7,22.9,25.4
			c0,10.2-7.5,18.1-18.7,19.7l-0.6,0.1l0,0.6c0.2,5.4,0.7,12.7,1.8,16.3l0.1,0.5h39.8V62.4h-4.5L404.5,35L429,63.5l0.2,0.2l11.7-0.1
			l7.5-6.2l7.4,6.1l33.8-0.2l7.1-5.9l7,5.8l8.2-0.1L535.4,83h-4v47.1h37l0.1-0.5c1.1-3.6,1.6-10.9,1.8-16.3l0-0.6l-0.6-0.1
			c-11.2-1.7-18.7-9.6-18.7-19.7c0-11.8,10-25.4,22.9-25.4s22.9,13.7,22.9,25.4c0,10.2-7.5,18.1-18.7,19.7l-0.6,0.1l0,0.6
			c0.2,5.4,0.7,12.7,1.8,16.3l0.1,0.5h57.8l0.1-0.5c1.1-3.6,1.6-10.9,1.8-16.3l0-0.6l-0.6-0.1c-11.2-1.7-18.7-9.6-18.7-19.7
			c0-11.8,10-25.4,22.9-25.4s22.9,13.7,22.9,25.4c0,10.2-7.5,18.1-18.7,19.7l-0.6,0.1l0,0.6c0.2,5.4,0.7,12.7,1.8,16.3l0.1,0.5h38.8
			V85.7h12.8V52.5h-11.4l39.6-18.3h69.6l39.6,18.3h-11.4V70h16.4v19h-16.4v14l0.5,0.1c0.6,0.1,1,0.3,1.5,0.5l0.9,0.5l0-1
			c0.1-3,2.1-4.6,4-5.1c2.5-0.7,5.2,0.3,6.7,2.5l0.6,0.8l0.5-0.8c1.6-2.5,4.2-2.8,6.2-2.3c2.6,0.7,4.4,2.8,4.6,5.4l0.1,1l0.9-0.4
			c2.3-1.1,5-0.6,6.8,1.3c1.5,1.5,2.5,4,1.2,6.7l-0.4,0.9l1,0.1c2.7,0.2,4.8,2,5.5,4.6c0.5,1.9,0.1,4.5-2.3,6.1l-0.8,0.5l0.8,0.6
			c1.6,1.1,2.6,2.7,2.7,4.6l0,0.6h23.1l0.1-0.5c1.2-4.4,1.7-13.9,1.9-21.1l0-1.1l-1,0.5c-2.4,1.2-4.9,1.9-7.6,1.9
			c-9.1,0-16.6-7.4-16.6-16.6c0-7.4,5-14,12.2-16l0.6-0.2l-0.2-0.6c-0.3-1.3-0.5-2.6-0.5-4c0-9.1,7.4-16.6,16.6-16.6
			s16.6,7.4,16.6,16.6c0,1.3-0.2,2.7-0.5,4l-0.2,0.6l0.6,0.2c7.2,2,12.2,8.5,12.2,16c0,9.1-7.4,16.6-16.6,16.6
			c-2.7,0-5.2-0.6-7.6-1.9l-1-0.5l0,1.1c0.2,7.2,0.7,16.7,1.9,21.1l0.1,0.5h41.4V69.4h-4.3L966,47.6l7.5,5.9l25.2-20l44,34.8h-7.2
			v46.2h12.8v15.6h36.8l0.1-0.5c1.1-3.6,1.6-10.9,1.8-16.3l0-0.6l-0.6-0.1c-11.2-1.7-18.7-9.6-18.7-19.7c0-11.8,10-25.4,22.9-25.4
			s22.9,13.7,22.9,25.4c0,10.2-7.5,18.1-18.7,19.7l-0.6,0.1l0,0.6c0.2,5.4,0.7,12.7,1.8,16.3l0.1,0.5h57.8l0.1-0.5
			c1.1-3.6,1.6-10.9,1.8-16.3l0-0.6l-0.6-0.1c-11.2-1.7-18.7-9.6-18.7-19.7c0-11.8,10-25.4,22.9-25.4s22.9,13.7,22.9,25.4
			c0,10.2-7.5,18.1-18.7,19.7l-0.6,0.1l0,0.6c0.2,5.5,0.7,12.7,1.8,16.3l0.1,0.5h40.8V32.5l59.6,12.5v25l25,5.2v54.9h19.6V32.5
			L1370,45v25l25,5.2v54.9h37l0.1-0.5c1.1-3.6,1.6-10.9,1.8-16.3l0-0.6l-0.6-0.1c-11.2-1.7-18.7-9.6-18.7-19.7
			c0-11.8,10-25.4,22.9-25.4s22.9,13.7,22.9,25.4c0,10.2-7.5,18.1-18.7,19.7l-0.6,0.1l0,0.6c0.2,5.4,0.7,12.7,1.8,16.3l0.1,0.5h35.9
			V50.4l87.4-24.6v104.3h23.2V69.4h-4.3l27.5-21.8l7.5,5.9l25.2-20l44,34.8h-7.2v46.2h12.8v15.6h11.6l-0.1-0.7
			c-0.2-2.4,0.8-4.7,2.8-6.2l0.7-0.5l-0.7-0.5c-2.4-1.8-3.4-4.7-2.6-7.5c0.9-3,3.7-5,7-5.2l0.8,0l-0.2-0.8c-0.8-2.8,0.2-5.5,2.5-7.4
			c2.7-2.1,6.3-2.2,9.2-0.5l0.7,0.4l0.3-0.7c1.4-3.4,4.7-4.6,7.2-4.6s5.8,1.2,7.2,4.6l0.3,0.7l0.7-0.4c2.9-1.8,6.5-1.6,9.2,0.5
			c2.4,1.8,3.3,4.6,2.6,7.4l-0.2,0.8l0.8,0c3.3,0.2,6.1,2.2,7,5.2c0.9,2.8-0.1,5.7-2.6,7.5l-0.7,0.5l0.7,0.5c2,1.5,3.1,3.8,2.8,6.2
			l-0.1,0.7h37.7v-1.3h-36.3c0-2.3-0.9-4.5-2.7-6.1c2.4-2.2,3.3-5.3,2.4-8.4c-1-3.3-3.9-5.6-7.4-6.1c0.6-3-0.6-6-3.2-8
			c-2.9-2.2-6.8-2.6-10-0.9c-1.5-2.9-4.6-4.8-8.2-4.8s-6.6,1.8-8.2,4.8c-3.2-1.6-7.1-1.3-10,0.9c-2.6,2-3.8,5-3.2,8
			c-3.6,0.5-6.4,2.8-7.4,6.1c-0.9,3.1,0,6.2,2.4,8.4c-1.8,1.6-2.8,3.8-2.7,6.1h-8.8v-15.6h-12.8V69.7h9.7l-47.8-37.8l-25.2,20
			l-7.5-5.9l-31.3,24.8h6.7v58.1h-20.5V24l-89.6,25.3l-0.5,0.1v79.4H1444c-0.9-3.5-1.4-9.9-1.6-14.9c11.5-1.9,19.2-10.3,19.2-20.9
			c0-12.4-10.6-26.8-24.2-26.8s-24.2,14.4-24.2,26.8c0,10.7,7.7,19,19.2,20.9c-0.2,5.1-0.6,11.5-1.6,14.9h-34.7V74.2l-25-5.2V44
			L1309,30.9v97.9h-16.9V74.2l-25-5.2V44l-62.2-13.1v97.9h-38.6c-0.9-3.5-1.4-9.9-1.6-14.9c11.5-1.9,19.2-10.3,19.2-20.9
			c0-12.4-10.6-26.8-24.2-26.8s-24.2,14.4-24.2,26.8c0,10.7,7.7,19,19.2,20.9c-0.2,5.1-0.6,11.4-1.6,14.9h-55.9
			c-0.9-3.5-1.4-9.9-1.6-14.9c11.5-1.9,19.2-10.3,19.2-20.9c0-12.4-10.6-26.8-24.2-26.8s-24.2,14.4-24.2,26.8
			c0,10.7,7.7,19,19.2,20.9c-0.2,5.1-0.6,11.5-1.6,14.9h-34.5v-15.6h-12.8V69.8h9.7l-47.8-37.8l-25.2,20L966,46l-31.3,24.8h6.7v58.1
			h-39.1c-1.1-4.4-1.5-13.4-1.7-19.2c2.3,1,4.7,1.5,7.2,1.5c9.9,0,17.9-8,17.9-17.9c0-7.8-5.1-14.8-12.5-17.1
			c0.2-1.2,0.4-2.4,0.4-3.7c0-9.9-8-17.9-17.9-17.9s-17.9,8-17.9,17.9c0,1.2,0.1,2.5,0.4,3.7c-7.4,2.3-12.5,9.2-12.5,17.1
			c0,9.9,8,17.9,17.9,17.9c2.5,0,5-0.5,7.2-1.5c-0.2,5.7-0.6,14.8-1.7,19.2h-20.8c-0.3-1.7-1.1-3.3-2.5-4.4c2-1.7,2.8-4.3,2.2-7
			c-0.7-2.9-3-5-5.8-5.5c0.9-2.6,0.2-5.4-1.8-7.4c-2-2.1-4.9-2.7-7.5-1.8c-0.5-2.8-2.6-5-5.5-5.7c-2.7-0.7-5.3,0.1-7,2.2
			c-1.9-2.2-4.8-3.1-7.6-2.3c-2.6,0.8-4.4,2.8-4.9,5.4c-0.1-0.1-0.3-0.1-0.4-0.1V90.3h16.4V68.7h-16.4V53.8h16l-45.3-20.9h-70
			l-45.4,20.9h16v30.6h-12.8v44.4h-36.5c-0.9-3.5-1.4-9.9-1.6-14.9c11.5-1.9,19.2-10.3,19.2-20.9c0-12.4-10.6-26.8-24.2-26.8
			S618.8,80.6,618.8,93c0,10.7,7.7,19,19.2,20.9c-0.2,5.1-0.6,11.4-1.6,14.9h-55.9c-0.9-3.5-1.4-9.9-1.6-14.9
			c11.5-1.9,19.2-10.3,19.2-20.9c0-12.4-10.6-26.8-24.2-26.8S549.8,80.6,549.8,93c0,10.7,7.7,19,19.2,20.9
			c-0.2,5.1-0.6,11.5-1.6,14.9h-34.7V84.4h6.3l-26.7-22.5l-8.2,0.1l-7.5-6.2l-7.6,6.3l-32.8,0.2l-7.9-6.5l-8,6.6l-10.6,0.1L404.5,33
			L378,63.7h6v65.1h-37.5c-0.9-3.5-1.4-9.9-1.6-14.9c11.5-1.9,19.2-10.3,19.2-20.9c0-12.4-10.6-26.8-24.2-26.8S315.8,80.6,315.8,93
			c0,10.7,7.7,19,19.2,20.9c-0.2,5.1-0.6,11.5-1.6,14.9h-55.9c-0.9-3.5-1.4-9.9-1.6-14.9c11.5-1.9,19.2-10.3,19.2-20.9
			c0-12.4-10.6-26.8-24.2-26.8S246.8,80.6,246.8,93c0,10.7,7.7,19,19.2,20.9c-0.2,5.1-0.6,11.5-1.6,14.9h-25.6
			c-0.1-1.6-0.8-3.2-2-4.3c1.8-1.7,2.5-4.2,1.8-6.5c-0.8-2.5-3-4.3-5.7-4.8c0.4-2.3-0.6-4.6-2.5-6.1c-2.2-1.7-5.2-2-7.7-0.8
			c-1.2-2.2-3.6-3.6-6.3-3.6s-5.1,1.4-6.3,3.6c-2.5-1.2-5.5-0.9-7.7,0.8c-2,1.5-2.9,3.8-2.5,6.1c-2.7,0.4-4.9,2.2-5.7,4.8
			c-0.7,2.4-0.1,4.8,1.8,6.5c-1.2,1.2-1.9,2.7-2,4.3h-10.6c-1.1-3.2-1.9-9-2.4-17.1c4.8-1.7,8.6-5,10.8-9.4
			c8.1,0.7,15.8-3.3,19.5-10.1c3.4-6.2,2.9-13.3-1.4-19c4.3-5.7,4.8-12.8,1.4-19c-3.7-6.8-11.3-10.7-19.5-10.1
			c-3.3-6.6-10.2-10.7-18.1-10.7s-14.7,4.1-18.1,10.7c-8.1-0.7-15.7,3.3-19.5,10.1c-3.4,6.2-2.9,13.3,1.4,19
			c-4.3,5.7-4.8,12.8-1.4,19c3.7,6.8,11.4,10.7,19.5,10.1c2.2,4.4,6,7.7,10.8,9.4c-0.5,8.1-1.3,13.9-2.4,17.1H83
			c-2.6-7.7-3.4-25.9-3.6-36.4c1.5-1.2,2.7-2.6,3.7-4.3c2.5,4.4,7,7.1,12.2,7.1c5.5,0,10.3-3,12.6-7.9c5.4,0.4,10.4-2.2,13.2-7
			s2.5-10.4-0.6-14.9c2.8-4.1,3.2-9.1,1.2-13.6c-2-4.4-6-7.4-10.6-8.1c1.3-4.2,0.6-8.8-2-12.4c-2.6-3.7-6.6-5.8-11-5.8
			c1.1-4.2,0.2-8.8-2.7-12.4C92.5,9.5,88.2,7.6,83.5,8C81.2,3.1,76.4,0,70.9,0S60.6,3.1,58.3,8c-4.7-0.3-9,1.5-11.9,5.2
			c-2.8,3.5-3.8,8.1-2.7,12.4c-4.4,0.1-8.4,2.2-11,5.8c-2.6,3.7-3.4,8.3-2,12.4C26,44.4,22,47.5,20,51.9c-2,4.5-1.6,9.5,1.2,13.6
			c-3.1,4.5-3.3,10.2-0.5,14.9s7.8,7.4,13.2,7c2.3,4.9,7.2,7.9,12.6,7.9c5.2,0,9.8-2.7,12.2-7.1c0.9,1.7,2.2,3.1,3.7,4.3
			c-0.1,3.7-0.2,9.1-0.6,14.7c-0.8-0.1-1.6,0-2.4,0.2c-0.5-2.3-2.2-4.1-4.6-4.7c-2.2-0.6-4.4,0.1-5.9,1.7c-1.6-1.8-4-2.5-6.3-1.9
			c-2.2,0.6-3.7,2.3-4.1,4.4c-2.2-0.8-4.5-0.3-6.2,1.4c-1.6,1.6-2.1,3.9-1.4,6.1c-2.2,0.4-3.8,1.9-4.4,4.1c-0.6,2.3,0.1,4.7,1.9,6.2
			c-1.2,1.1-1.9,2.6-1.9,4.2L0,128.8L0,128.8z"/>
		<path d="M412.5,63.4h-16.7v12.3h16.7V63.4z M411.2,74.3h-14.1v-9.6h14.1V74.3z"/>
		<path d="M1601.8,130.1h17.2V104h-17.2V130.1z M1603.1,105.4h14.5v23.4h-14.5C1603.1,128.8,1603.1,105.4,1603.1,105.4z"/>
		<path d="M1360.8,50.7h-18.4v13.5h18.4C1360.8,64.2,1360.8,50.7,1360.8,50.7z M1359.5,62.9h-15.7V52h15.7V62.9z"/>
		<path d="M1017.6,69.1h-19.7v14.3h19.7V69.1z M1016.3,82.1h-17V70.4h17V82.1z"/>
		<path d="M998,111.8h19.6V97.5H998V111.8z M999.3,98.8h17v11.7h-17V98.8z"/>
		<path d="M710.2,130.1h18.1v-27.6h-18.1V130.1z M711.5,103.9H727v24.9h-15.5C711.5,128.8,711.5,103.9,711.5,103.9z"/>
		<path d="M1488.9,130.1h16.8v-25.4h-16.8V130.1z M1490.3,106h14.1v22.8h-14.1V106z"/>
		<path d="M1213.8,115.6h18.4v-13.5h-18.4V115.6z M1215.1,103.4h15.7v10.9h-15.7V103.4z"/>
		<path d="M1232.2,50.7h-18.4v13.5h18.4C1232.2,64.2,1232.2,50.7,1232.2,50.7z M1230.9,62.9h-15.7V52h15.7V62.9z"/>
		<path d="M1238.3,130.1h18.4v-28h-18.4V130.1z M1239.6,103.4h15.7v25.4h-15.7C1239.6,128.8,1239.6,103.4,1239.6,103.4z"/>
		<path d="M1492.3,57.9v13.6h10V57.9C1502.3,57.9,1492.3,57.9,1492.3,57.9z M1501,70.1h-7.4V59.2h7.4V70.1z"/>
		<path d="M1528,52.2v25h25v-25C1552.9,52.2,1528,52.2,1528,52.2z M1551.6,75.8h-22.3V53.5h22.3V75.8z"/>
		<path d="M972.1,72.8H955v12.6h17.2V72.8z M970.8,84h-14.5v-9.9h14.5V84z"/>
		<path d="M1342.4,130.1h18.4v-28h-18.4V130.1z M1343.8,103.4h15.7v25.4h-15.7C1343.8,128.8,1343.8,103.4,1343.8,103.4z"/>
		<path d="M806.4,55.6v9.8h13.3v-9.8C819.7,55.6,806.4,55.6,806.4,55.6z M818.4,64.1h-10.7v-7.2h10.7V64.1z"/>
		<path d="M1256.7,50.7h-18.4v13.5h18.4C1256.7,64.2,1256.7,50.7,1256.7,50.7z M1255.3,62.9h-15.7V52h15.7V62.9z"/>
		<path d="M955,130.1h17.2V104H955V130.1z M956.3,105.4h14.5v23.4h-14.5C956.3,128.8,956.3,105.4,956.3,105.4z"/>
	</g>
</g>
</svg>
