<?xml version="1.0" encoding="UTF-8"?><svg id="_イヤー_2" xmlns="http://www.w3.org/2000/svg" viewBox="0 0 1800 130.12"><g id="town"><g><path d="M443.47,64.78v7.44h9.95v-7.44h-9.95Zm8.63,6.12h-7.31v-4.81h7.31v4.81Z"/><path d="M1618.96,72.8h-17.16v12.56h17.16v-12.56Zm-1.32,11.24h-14.53v-9.93h14.53v9.93Z"/><path d="M1317.96,115.59h18.38v-13.5h-18.38v13.5Zm1.32-12.19h15.74v10.87h-15.74v-10.87Z"/><path d="M706.32,78.48h15.83v-21.76h-15.83v21.76Zm1.32-20.45h13.19v19.13h-13.19v-19.13Z"/><path d="M1336.34,50.73h-18.38v13.5h18.38v-13.5Zm-1.32,12.19h-15.74v-10.87h15.74v10.87Z"/><path d="M491.74,64.78v7.44h9.95v-7.44h-9.95Zm8.63,6.12h-7.31v-4.81h7.31v4.81Z"/><path d="M1644.77,111.81h19.61v-14.3h-19.61v14.3Zm1.32-12.98h16.98v11.66h-16.98v-11.66Z"/><path d="M1664.46,69.08h-19.69v14.35h19.69v-14.35Zm-1.32,13.03h-17.05v-11.72h17.05v11.72Z"/><path d="M395.81,130.12h16.74v-25.38h-16.74v25.38Zm1.32-24.07h14.11v22.75h-14.11v-22.75Z"/><path d="M440.07,116.99h16.74v-12.26h-16.74v12.26Zm1.32-10.94h14.11v9.63h-14.11v-9.63Z"/><path d="M0,128.8v1.32H27.97l-.08-.73c-.19-1.75,.55-3.29,2.01-4.22l.85-.54-.84-.56c-1.82-1.21-2.63-3.3-2.06-5.33,.42-1.5,1.74-3.14,4.17-3.23l1.04-.04-.48-.92c-1.17-2.24-.39-4.25,.74-5.38,1.43-1.44,3.58-1.74,5.47-.77l.92,.47,.04-1.04c.09-2.39,1.73-3.7,3.23-4.13,2.06-.59,4.18,.22,5.4,2.04l.56,.83,.54-.84c1.29-1.99,3.42-2.28,4.98-1.88,2.11,.54,3.58,2.27,3.75,4.4l.07,.96,.87-.42c.97-.47,2.03-.6,3.07-.36l.75,.17,.05-.77c.38-6,.56-11.88,.65-15.77v-.34l-.27-.2c-1.8-1.31-3.19-3.05-4.12-5.17l-.6-1.37-.6,1.37c-2.06,4.67-6.51,7.57-11.62,7.57-5.11,0-9.56-2.9-11.62-7.57l-.19-.44-.48,.05c-5.07,.56-9.81-1.85-12.37-6.27-2.55-4.42-2.27-9.73,.75-13.85l.28-.39-.28-.39c-2.74-3.74-3.24-8.49-1.34-12.69,1.9-4.2,5.86-7.05,10.34-7.45l.88-.08-.32-.82c-1.56-3.95-.98-8.44,1.56-11.99,2.54-3.55,6.5-5.46,10.83-5.26l.96,.05-.31-.91c-1.38-4.06-.55-8.55,2.21-11.99,2.74-3.42,6.84-5.11,11.24-4.63l.48,.05,.19-.44c2.06-4.67,6.51-7.57,11.61-7.57,5.1,0,9.56,2.9,11.62,7.57l.19,.44,.48-.05c4.4-.48,8.5,1.21,11.24,4.63,2.76,3.44,3.59,7.93,2.21,11.99l-.31,.91,.96-.05c4.35-.2,8.29,1.71,10.83,5.26,2.54,3.55,3.12,8.03,1.56,11.99l-.32,.82,.88,.08c4.48,.4,8.45,3.26,10.34,7.45,1.9,4.2,1.4,8.94-1.34,12.69l-.28,.39,.28,.39c3.02,4.12,3.3,9.42,.75,13.85-2.55,4.42-7.29,6.83-12.37,6.27l-.48-.05-.19,.44c-2.06,4.67-6.51,7.57-11.62,7.57s-9.56-2.9-11.62-7.57l-.6-1.37-.6,1.37c-.94,2.12-2.32,3.86-4.12,5.17l-.28,.2v.34c.24,10.78,1.04,30,3.84,37.63l.16,.43h82.66l.16-.42c1.25-3.26,2.14-9.46,2.64-18.42l.03-.5-.48-.16c-4.81-1.58-8.61-4.88-10.72-9.31l-.2-.42-.46,.05c-7.78,.79-15.1-2.89-18.66-9.37-3.24-5.9-2.65-12.62,1.58-17.98l.32-.41-.32-.41c-4.22-5.36-4.81-12.08-1.58-17.97,3.55-6.48,10.89-10.15,18.66-9.37l.46,.05,.2-.42c3.02-6.36,9.56-10.32,17.07-10.32s14.04,3.95,17.07,10.32l.2,.42,.46-.05c7.77-.79,15.1,2.89,18.66,9.37,3.24,5.9,2.65,12.62-1.58,17.98l-.32,.41,.32,.41c4.22,5.36,4.81,12.08,1.58,17.97-3.55,6.48-10.88,10.16-18.66,9.37l-.46-.05-.2,.42c-2.1,4.43-5.91,7.74-10.72,9.31l-.48,.16,.03,.5c.5,8.96,1.38,15.16,2.64,18.42l.16,.42h12.86l-.05-.7c-.12-1.74,.63-3.31,2.11-4.44l.69-.52-.69-.52c-1.82-1.38-2.55-3.53-1.91-5.61,.69-2.24,2.76-3.77,5.28-3.9l.83-.04-.23-.8c-.59-2.07,.12-4.13,1.9-5.49,2.01-1.54,4.72-1.69,6.9-.37l.65,.39,.29-.71c1.06-2.54,3.5-3.45,5.43-3.45s4.38,.91,5.43,3.45l.29,.71,.65-.39c2.18-1.31,4.89-1.16,6.9,.37,1.78,1.36,2.49,3.42,1.9,5.49l-.23,.8,.83,.04c2.51,.13,4.58,1.66,5.28,3.9,.64,2.08-.09,4.23-1.91,5.61l-.69,.52,.69,.52c1.48,1.12,2.23,2.7,2.11,4.44l-.05,.7h27.93l.14-.47c1.1-3.6,1.58-10.86,1.79-16.32l.02-.59-.58-.09c-11.17-1.65-18.67-9.57-18.67-19.72,0-11.76,10-25.44,22.88-25.44s22.88,13.67,22.88,25.44c0,10.15-7.51,18.07-18.67,19.72l-.58,.09,.02,.59c.21,5.46,.68,12.71,1.79,16.32l.14,.47h57.85l.14-.47c1.1-3.6,1.58-10.86,1.79-16.32l.02-.59-.58-.09c-11.17-1.65-18.67-9.57-18.67-19.72,0-11.76,10-25.44,22.88-25.44s22.88,13.67,22.88,25.44c0,10.15-7.51,18.07-18.68,19.72l-.58,.09,.02,.59c.21,5.45,.68,12.71,1.79,16.32l.14,.47h39.76V62.38h-4.46l23.65-27.43,24.59,28.52,.2,.23,11.67-.08,7.51-6.22,7.39,6.12,33.77-.23,7.11-5.89,6.99,5.8,8.22-.06,23.53,19.85h-4.03v47.12h36.99l.14-.47c1.1-3.6,1.58-10.86,1.79-16.32l.02-.59-.58-.09c-11.17-1.65-18.67-9.57-18.67-19.72,0-11.76,10-25.44,22.88-25.44s22.88,13.67,22.88,25.44c0,10.15-7.51,18.07-18.67,19.72l-.58,.09,.02,.59c.21,5.45,.68,12.71,1.79,16.32l.14,.47h57.85l.14-.47c1.1-3.6,1.58-10.86,1.79-16.32l.02-.59-.58-.09c-11.17-1.65-18.67-9.57-18.67-19.72,0-11.76,10-25.44,22.88-25.44s22.88,13.67,22.88,25.44c0,10.15-7.5,18.07-18.67,19.72l-.58,.09,.02,.59c.21,5.45,.68,12.71,1.79,16.32l.14,.47h38.78v-44.43h12.81V52.45h-11.38l39.58-18.31h69.57l39.58,18.31h-11.38v17.53h16.36v19.01h-16.36v14.03l.51,.12c.57,.13,1.04,.3,1.48,.53l.92,.48,.04-1.04c.11-2.97,2.14-4.59,4-5.12,2.54-.73,5.17,.26,6.68,2.52l.56,.83,.54-.84c1.6-2.47,4.24-2.82,6.17-2.33,2.61,.66,4.43,2.8,4.63,5.44l.07,.96,.87-.42c2.29-1.11,4.97-.62,6.84,1.26,1.46,1.47,2.55,4.01,1.21,6.73l-.43,.87,.97,.07c2.68,.21,4.83,2.03,5.49,4.64,.48,1.91,.11,4.51-2.35,6.09l-.85,.54,.84,.56c1.64,1.09,2.61,2.72,2.74,4.59l.04,.61h23.06l.14-.48c1.25-4.41,1.72-13.89,1.9-21.06l.03-1.11-.99,.51c-2.38,1.24-4.94,1.86-7.63,1.86-9.13,0-16.56-7.43-16.56-16.56,0-7.44,5.01-14.01,12.18-15.97l.62-.17-.15-.62c-.32-1.3-.48-2.64-.48-3.98,0-9.13,7.43-16.56,16.56-16.56s16.56,7.43,16.56,16.56c0,1.34-.16,2.67-.48,3.98l-.15,.62,.62,.17c7.17,1.96,12.18,8.53,12.18,15.97,0,9.13-7.43,16.56-16.56,16.56-2.68,0-5.25-.63-7.63-1.86l-.99-.51,.03,1.11c.18,7.18,.65,16.65,1.9,21.06l.14,.48h41.38v-60.69h-4.27l27.51-21.8,7.5,5.94,25.25-20,43.97,34.84h-7.19v46.16h12.84v15.55h36.82l.14-.47c1.1-3.6,1.58-10.86,1.79-16.32l.02-.59-.58-.09c-11.17-1.65-18.67-9.57-18.67-19.72,0-11.76,10-25.44,22.88-25.44s22.88,13.67,22.88,25.44c0,10.15-7.5,18.07-18.67,19.72l-.58,.09,.02,.59c.21,5.45,.68,12.71,1.79,16.32l.14,.47h57.85l.14-.47c1.1-3.61,1.58-10.86,1.79-16.32l.02-.59-.58-.09c-11.17-1.65-18.68-9.57-18.68-19.72,0-11.76,10-25.44,22.88-25.44s22.88,13.67,22.88,25.44c0,10.15-7.51,18.07-18.68,19.72l-.58,.09,.02,.59c.21,5.46,.69,12.71,1.79,16.32l.14,.47h40.85V32.49l59.61,12.51v24.98l24.98,5.24v54.89h19.56V32.49l59.61,12.51v24.98l24.98,5.24v54.89h36.97l.14-.47c1.1-3.6,1.58-10.86,1.79-16.32l.02-.59-.58-.09c-11.17-1.65-18.67-9.57-18.67-19.72,0-11.76,10-25.44,22.88-25.44s22.88,13.67,22.88,25.44c0,10.15-7.5,18.07-18.67,19.72l-.58,.09,.02,.59c.21,5.45,.68,12.71,1.79,16.32l.14,.47h35.95V50.42l87.41-24.65v104.35h23.16v-60.69h-4.27l27.51-21.8,7.5,5.94,25.25-20,43.97,34.84h-7.19v46.16h12.84v15.55h11.57l-.08-.73c-.25-2.39,.77-4.65,2.81-6.19l.69-.52-.69-.52c-2.43-1.84-3.41-4.72-2.55-7.51,.92-3,3.69-5.04,7.04-5.22l.83-.04-.23-.8c-.79-2.78,.16-5.53,2.54-7.36,2.68-2.05,6.29-2.25,9.19-.5l.65,.39,.29-.71c1.41-3.4,4.67-4.61,7.25-4.61s5.84,1.21,7.25,4.61l.29,.71,.65-.39c2.91-1.75,6.51-1.55,9.19,.5,2.39,1.83,3.34,4.58,2.55,7.36l-.23,.8,.83,.04c3.35,.17,6.12,2.22,7.04,5.21,.86,2.79-.12,5.67-2.55,7.52l-.69,.52,.69,.52c2.04,1.54,3.06,3.8,2.81,6.19l-.08,.73h37.73v-1.32h-36.3c.04-2.33-.93-4.5-2.74-6.13,2.42-2.19,3.33-5.35,2.38-8.43-1.01-3.29-3.89-5.61-7.45-6.07,.56-3.02-.62-6.03-3.19-7.99-2.92-2.23-6.78-2.57-10.03-.93-1.52-2.95-4.58-4.76-8.16-4.76s-6.63,1.8-8.15,4.76c-3.25-1.64-7.12-1.3-10.03,.94-2.57,1.97-3.75,4.97-3.19,7.99-3.56,.46-6.44,2.78-7.45,6.07-.95,3.08-.04,6.24,2.38,8.43-1.8,1.63-2.77,3.8-2.73,6.13h-8.82v-15.55h-12.84v-43.53h9.65l-47.75-37.83-25.25,20-7.5-5.94-31.3,24.8h6.73v58.05h-20.53V24.03l-89.56,25.26-.48,.14v79.38h-33.65c-.93-3.47-1.37-9.87-1.57-14.93,11.52-1.94,19.22-10.28,19.22-20.93,0-12.37-10.57-26.75-24.2-26.75s-24.2,14.38-24.2,26.75c0,10.65,7.69,18.99,19.22,20.93-.21,5.06-.64,11.46-1.58,14.93h-34.67v-54.64l-24.98-5.24v-24.98l-62.24-13.07v97.94h-16.92v-54.64l-24.98-5.24v-24.98l-62.25-13.07v97.94h-38.55c-.93-3.47-1.37-9.87-1.58-14.93,11.52-1.94,19.22-10.28,19.22-20.93,0-12.37-10.57-26.75-24.2-26.75s-24.2,14.38-24.2,26.75c0,10.65,7.7,18.99,19.22,20.93-.21,5.06-.64,11.45-1.58,14.93h-55.89c-.93-3.48-1.37-9.87-1.57-14.93,11.52-1.94,19.22-10.28,19.22-20.93,0-12.37-10.57-26.75-24.2-26.75s-24.2,14.38-24.2,26.75c0,10.65,7.69,18.99,19.22,20.93-.21,5.06-.64,11.46-1.58,14.93h-34.52v-15.55h-12.84v-43.53h9.65l-47.75-37.83-25.25,20-7.5-5.94-31.29,24.8h6.73v58.05h-39.06c-1.11-4.44-1.53-13.45-1.69-19.18,2.28,1.02,4.72,1.53,7.24,1.53,9.86,0,17.88-8.02,17.88-17.88,0-7.82-5.13-14.75-12.54-17.06,.25-1.21,.38-2.44,.38-3.68,0-9.86-8.02-17.88-17.88-17.88s-17.88,8.02-17.88,17.88c0,1.23,.13,2.46,.38,3.68-7.42,2.32-12.54,9.24-12.54,17.06,0,9.86,8.02,17.88,17.88,17.88,2.53,0,4.96-.51,7.24-1.53-.16,5.73-.59,14.75-1.69,19.18h-20.85c-.26-1.74-1.14-3.27-2.52-4.43,2.02-1.69,2.85-4.28,2.17-6.97-.72-2.88-2.95-4.96-5.78-5.51,.88-2.55,.22-5.38-1.8-7.41-2.05-2.06-4.92-2.74-7.52-1.85-.55-2.8-2.63-5.01-5.5-5.74-2.72-.69-5.35,.13-7.05,2.15-1.88-2.21-4.77-3.12-7.58-2.32-2.64,.75-4.44,2.78-4.86,5.4-.13-.05-.27-.09-.41-.13v-11.68h16.36v-21.64h-16.36v-14.89h16.05l-45.27-20.94h-70l-45.42,20.94h16.05v30.6h-12.81v44.43h-36.48c-.93-3.48-1.37-9.87-1.57-14.93,11.52-1.94,19.21-10.28,19.21-20.93,0-12.37-10.57-26.75-24.2-26.75s-24.2,14.38-24.2,26.75c0,10.65,7.7,18.99,19.21,20.93-.2,5.06-.64,11.45-1.57,14.93h-55.89c-.93-3.48-1.37-9.87-1.57-14.93,11.52-1.94,19.22-10.28,19.22-20.93,0-12.37-10.57-26.75-24.2-26.75s-24.2,14.38-24.2,26.75c0,10.65,7.7,18.99,19.21,20.93-.21,5.06-.64,11.46-1.57,14.93h-34.69v-44.49h6.32l-26.65-22.49-8.23,.06-7.46-6.19-7.59,6.29-32.82,.22-7.86-6.51-7.99,6.62-10.59,.07-25.39-29.45-26.52,30.77h6.02v65.1h-37.46c-.93-3.48-1.37-9.87-1.57-14.93,11.52-1.94,19.22-10.28,19.22-20.93,0-12.37-10.57-26.75-24.2-26.75s-24.2,14.38-24.2,26.75c0,10.65,7.7,18.99,19.21,20.93-.21,5.06-.64,11.46-1.57,14.93h-55.89c-.93-3.47-1.37-9.87-1.57-14.93,11.52-1.94,19.22-10.28,19.22-20.93,0-12.37-10.57-26.75-24.2-26.75s-24.2,14.38-24.2,26.75c0,10.65,7.7,18.99,19.22,20.93-.21,5.06-.64,11.46-1.57,14.93h-25.58c-.07-1.64-.78-3.17-2.02-4.35,1.81-1.72,2.48-4.15,1.75-6.52-.78-2.54-2.98-4.35-5.7-4.75,.37-2.32-.56-4.62-2.54-6.14-2.25-1.72-5.22-2.01-7.74-.8-1.22-2.24-3.58-3.61-6.33-3.61s-5.11,1.36-6.33,3.61c-2.52-1.21-5.49-.92-7.74,.8-1.98,1.51-2.91,3.81-2.54,6.14-2.72,.41-4.92,2.21-5.7,4.75-.73,2.37-.06,4.81,1.75,6.52-1.24,1.18-1.95,2.71-2.02,4.35h-10.58c-1.09-3.15-1.91-9.04-2.37-17.1,4.78-1.7,8.59-5.02,10.81-9.42,8.13,.65,15.75-3.27,19.48-10.09,3.42-6.23,2.89-13.3-1.38-19.02,4.28-5.72,4.8-12.79,1.38-19.02-3.74-6.81-11.34-10.74-19.48-10.09-3.32-6.58-10.2-10.65-18.05-10.65s-14.73,4.07-18.05,10.65c-8.13-.65-15.74,3.27-19.48,10.09-3.42,6.23-2.89,13.3,1.38,19.02-4.28,5.72-4.8,12.79-1.38,19.02,3.74,6.81,11.36,10.74,19.48,10.09,2.22,4.4,6.03,7.72,10.81,9.42-.47,8.07-1.28,13.95-2.37,17.1H83.03c-2.59-7.65-3.37-25.88-3.6-36.43,1.51-1.15,2.74-2.59,3.67-4.28,2.47,4.44,7.04,7.14,12.22,7.14,5.48,0,10.27-3.02,12.62-7.93,5.42,.41,10.44-2.23,13.18-6.97s2.52-10.4-.55-14.89c2.78-4.07,3.24-9.12,1.2-13.62-1.98-4.36-5.98-7.42-10.59-8.12,1.35-4.17,.63-8.76-2-12.44-2.62-3.67-6.61-5.76-11.04-5.83,1.13-4.25,.15-8.81-2.69-12.35-2.93-3.65-7.26-5.51-11.94-5.16-2.35-4.9-7.15-7.92-12.62-7.92s-10.27,3.02-12.62,7.92c-4.67-.35-9.01,1.5-11.94,5.16-2.85,3.55-3.82,8.1-2.69,12.35-4.43,.07-8.42,2.16-11.04,5.83-2.63,3.68-3.35,8.27-2,12.44-4.6,.7-8.61,3.75-10.59,8.12-2.03,4.49-1.58,9.55,1.2,13.62-3.07,4.49-3.29,10.15-.55,14.89,2.74,4.74,7.75,7.38,13.18,6.97,2.35,4.9,7.15,7.93,12.62,7.93,5.18,0,9.75-2.7,12.22-7.14,.94,1.69,2.17,3.13,3.67,4.28-.08,3.71-.25,9.1-.59,14.65-.8-.08-1.59,0-2.36,.25-.5-2.3-2.23-4.1-4.61-4.71-2.25-.57-4.42,.08-5.86,1.72-1.59-1.79-3.98-2.52-6.3-1.86-2.18,.62-3.68,2.27-4.08,4.42-2.18-.76-4.52-.26-6.15,1.38-1.61,1.62-2.1,3.92-1.35,6.06-2.17,.4-3.84,1.9-4.45,4.09-.65,2.3,.08,4.66,1.88,6.23-1.21,1.07-1.89,2.56-1.91,4.19H0Z"/><path d="M412.55,63.4h-16.74v12.26h16.74v-12.26Zm-1.32,10.94h-14.11v-9.63h14.11v9.63Z"/><path d="M1601.8,130.12h17.16v-26.07h-17.16v26.07Zm1.32-24.75h14.53v23.43h-14.53v-23.43Z"/><path d="M1360.81,50.73h-18.38v13.5h18.38v-13.5Zm-1.32,12.19h-15.74v-10.87h15.74v10.87Z"/><path d="M1017.63,69.08h-19.69v14.35h19.69v-14.35Zm-1.32,13.03h-17.05v-11.72h17.05v11.72Z"/><path d="M997.95,111.81h19.61v-14.3h-19.61v14.3Zm1.32-12.98h16.98v11.66h-16.98v-11.66Z"/><path d="M710.22,130.12h18.08v-27.56h-18.08v27.56Zm1.32-26.24h15.45v24.92h-15.45v-24.92Z"/><path d="M1488.94,130.12h16.75v-25.4h-16.75v25.4Zm1.32-24.09h14.12v22.77h-14.12v-22.77Z"/><path d="M1213.81,115.59h18.38v-13.5h-18.38v13.5Zm1.32-12.19h15.74v10.87h-15.74v-10.87Z"/><path d="M1232.19,50.73h-18.38v13.5h18.38v-13.5Zm-1.32,12.19h-15.74v-10.87h15.74v10.87Z"/><path d="M1238.28,130.12h18.38v-28.03h-18.38v28.03Zm1.32-26.72h15.74v25.4h-15.74v-25.4Z"/><path d="M1492.32,57.9v13.55h10v-13.55h-10Zm8.68,12.24h-7.37v-10.92h7.37v10.92Z"/><path d="M1527.98,52.2v24.96h24.96v-24.96h-24.96Zm23.65,23.65h-22.33v-22.33h22.33v22.33Z"/><path d="M972.14,72.8h-17.16v12.56h17.16v-12.56Zm-1.32,11.24h-14.53v-9.93h14.53v9.93Z"/><path d="M1342.43,130.12h18.38v-28.03h-18.38v28.03Zm1.32-26.72h15.74v25.4h-15.74v-25.4Z"/><path d="M806.39,55.56v9.82h13.3v-9.82h-13.3Zm11.99,8.5h-10.67v-7.19h10.67v7.19Z"/><path d="M1256.66,50.73h-18.38v13.5h18.38v-13.5Zm-1.32,12.19h-15.74v-10.87h15.74v10.87Z"/><path d="M954.97,130.12h17.16v-26.07h-17.16v26.07Zm1.32-24.75h14.53v23.43h-14.53v-23.43Z"/></g></g></svg>