<svg xmlns="http://www.w3.org/2000/svg" viewBox="0 0 251.07 256"><path d="M242.91 120l8.13.45a127.37 127.37 0 00-23.54-66.76l3.83 54.89A12.28 12.28 0 00242.91 120zm8.16 15l-8.16.45a12.29 12.29 0 00-11.57 11.41l-3.86 55.45A127.33 127.33 0 00251.07 135zm-34.91 12.13a12.28 12.28 0 00-11.84-11.42l-96.56-3.25c50.68 8 70 21.15 57 44.55A92.71 92.71 0 01.26 163.52a128 128 0 00220.36 47.58zM86 35.45a92.7 92.7 0 0192.39 85.19l26-.88a12.28 12.28 0 0011.84-11.42l4.43-63.45A128 128 0 000 93.41a92.71 92.71 0 0186-57.96z" fill="#1c4ac9" data-name="レイヤー 2"/></svg>