<?xml version="1.0" encoding="utf-8"?>
<!-- Generator: Adobe Illustrator 26.4.1, SVG Export Plug-In . SVG Version: 6.00 Build 0)  -->
<svg version="1.1" id="city" xmlns="http://www.w3.org/2000/svg" xmlns:xlink="http://www.w3.org/1999/xlink" x="0px"
	 y="0px" viewBox="0 0 1770 478.3" style="enable-background:new 0 0 1770 478.3;" xml:space="preserve">
<g>
	<g>
		<path class="building_line_1" d="M1563.7,362.3h6.4v8h-10.8c-2.1,0-3.1-1-3.1-3.2v-14.5c0-0.8,0.2-1.5,0.7-2c0.5-0.5,1.2-0.8,2.1-0.8h16.4l0.1-4.3h-18.6
			c-1.8,0-3.3,0.4-4.5,1.3c-1.6,1.1-2.4,2.7-2.4,4.8v16.7c0,1.7,0.5,3.1,1.6,4.3c1.3,1.3,3.2,2,5.6,2h19.1v-16.8h-12.5L1563.7,362.3
			L1563.7,362.3z M1564.7,358.8h10.5v14.8h-18.1c-2.1,0-3.8-0.6-4.8-1.7c-0.9-0.9-1.3-2.1-1.3-3.6v-16.7c0-1.8,0.7-3.1,2-4
			c1.1-0.8,2.4-1.1,4-1.1h17.6l0,2.3H1559c-1.2,0-2.1,0.4-2.8,1.1c-0.7,0.7-1,1.6-1,2.7v14.5c0,2.7,1.4,4.2,4.1,4.2h11.8v-10h-6.4
			L1564.7,358.8L1564.7,358.8z"/>
		<path class="building_line_2" d="M1596,356.8c-1.2,0-3.3,0-6.2,0c-1.9,0-2.9,1-2.9,2.8v3.4h11.7v-3.6c0-1-0.2-1.7-0.6-2C1597.6,357,1597,356.8,1596,356.8z
			 M1597.7,362h-9.7v-2.4c0-1.3,0.6-1.8,1.9-1.8c2.9,0,5,0,6.2,0c0.9,0,1.2,0.2,1.3,0.3c0.1,0.1,0.3,0.4,0.3,1.3L1597.7,362
			L1597.7,362z"/>
		<path class="building_line_3" d="M1603.4,359.1c0-1.6-0.5-2.9-1.5-3.9s-2.3-1.5-3.8-1.5l-10-0.1c-1.5,0-2.8,0.5-4.1,1.5c-1.4,1.1-2.1,2.5-2.1,4.2v9.2
			c0,1.9,0.6,3.4,1.8,4.6c1.2,1.1,2.7,1.7,4.6,1.8l13.9,0.1l0.1-4.4l-11.6,0c-2.4,0-2.7-1.1-2.7-2.1l0-2.4h15.5L1603.4,359.1
			L1603.4,359.1z M1586.9,365l0,3.4c0,1.4,0.6,3.1,3.7,3.1l10.6,0l0,2.4l-12.9-0.1c-1.6,0-2.9-0.5-3.9-1.5s-1.4-2.2-1.4-3.9v-9.2
			c0-1.4,0.6-2.5,1.8-3.4c1.1-0.8,2.2-1.2,3.4-1.2l10,0.1c1.3,0,2.3,0.4,3.2,1.2c0.8,0.8,1.2,1.9,1.2,3.2l0,5.9L1586.9,365
			L1586.9,365z"/>
		<path class="building_line_4" d="M1611.3,355.1c-1.4,1.1-2.1,2.5-2.1,4.2v9.1c0,1.9,0.6,3.5,1.8,4.6c1.2,1.1,2.8,1.8,4.7,1.8l13,0.1l0.1-4.3l-10.6,0
			c-1.8,0-2.7-0.8-2.7-2.4l0-8.5c0-0.8,0.2-1.8,2.1-1.8l11.4,0.1v-4.3h-13.7C1613.8,353.6,1612.5,354.1,1611.3,355.1L1611.3,355.1z
			 M1628,356.9l-10.4-0.1c-2,0-3.1,1-3.1,2.8l0,8.5c0,1.6,0.6,3.4,3.7,3.4l9.6,0l0,2.3l-12-0.1c-1.7,0-2.9-0.5-4-1.5
			c-1-1-1.5-2.2-1.5-3.9v-9.1c0-1.4,0.6-2.5,1.7-3.5c1-0.8,2.1-1.2,3.4-1.2h12.7L1628,356.9L1628,356.9z"/>
		<path d="M1653.8,355.4l0.3-1.4h-5.3l-8.7,7v-16.2h-5.9v30h5.9v-8.6l1.5-1.2l7.1,9.8h6.4v-1.3l-9.1-11.8L1653.8,355.4L1653.8,355.4
			z M1654,373.8h-4.9l-7.4-10.2l-2.7,2.2v8.1h-3.9v-28h3.9V363l10.1-8.1h3.5l-8.2,6.4L1654,373.8L1654,373.8z"/>
		<path d="M1673.2,356.9h-6.1c-2.8,0-3.2,1.8-3.2,2.8l0,8.5c0,1.5,0.6,3.4,3.7,3.4h5c3,0,3.7-1.9,3.7-3.4v-8.5
			C1676.3,357.9,1675.2,356.9,1673.2,356.9L1673.2,356.9z M1675.3,368.1c0,1.7-0.8,2.4-2.7,2.4h-5c-1.8,0-2.7-0.8-2.7-2.4l0-8.5
			c0-0.8,0.2-1.8,2.2-1.8h6.1c1.9,0,2.1,1,2.1,1.8L1675.3,368.1L1675.3,368.1z"/>
		<path d="M1679.4,355c-1.1-0.9-2.4-1.4-3.9-1.4h-10.7c-1.5,0-2.8,0.5-3.9,1.5c-1.3,1.1-1.9,2.5-1.9,4.2v9.4c0,1.9,0.6,3.4,1.8,4.6
			s2.7,1.8,4.6,1.8h9.9c1.9,0,3.4-0.6,4.5-1.7c1.1-1.1,1.7-2.7,1.7-4.6v-9.5C1681.3,357.4,1680.6,356,1679.4,355L1679.4,355z
			 M1680.3,368.7c0,1.6-0.5,2.9-1.4,3.9c-0.9,1-2.2,1.4-3.8,1.4h-9.9c-1.6,0-2.9-0.5-3.8-1.5s-1.4-2.2-1.4-3.9v-9.4
			c0-1.4,0.5-2.5,1.6-3.5c1-0.8,2.1-1.2,3.3-1.2h10.7c1.2,0,2.3,0.4,3.3,1.2c1.1,0.9,1.6,2,1.6,3.4V368.7L1680.3,368.7z"/>
		<path d="M1702.2,370.4h-7.3c-1,0-2.1-0.3-2.1-2.7l0-14h-5.9l0,14.5c0,1.9,0.6,3.5,1.7,4.7c1.1,1.2,2.7,1.8,4.6,1.8l14.9,0l0-21.1
			h-5.9L1702.2,370.4L1702.2,370.4z M1703.3,354.7h3.9l0,19.1l-13.9,0c-1.6,0-2.9-0.5-3.8-1.5c-1-1-1.4-2.3-1.4-4l0-13.5h3.9l0,13
			c0,3,1.7,3.7,3.1,3.7h8.3L1703.3,354.7L1703.3,354.7z"/>
		<path d="M67.4,296.3h7v-13h-7V296.3z M68.4,284.3h5v11h-5V284.3z"/>
		<path d="M357.8,350.1h41.5v-8.7h-41.5V350.1z M358.8,342.5h39.5v6.7h-39.5V342.5z"/>
		<polygon points="1727.9,477.3 1727.9,328.6 1530.1,328.6 1530.1,477.3 1513.5,477.3 1513.5,334.3 1499.2,334.3 1499.2,320.2 
			1461.7,320.2 1461.7,334.3 1447.4,334.3 1447.4,368.3 1428.4,368.3 1428.4,334.3 1414.1,334.3 1414.1,320.2 1376.6,320.2 
			1376.6,334.3 1362.3,334.3 1362.3,477.3 1342.2,477.3 1342.2,244.6 1319.1,244.6 1319.1,250.6 1227.8,250.6 1227.8,244.6 
			1204.6,244.6 1204.6,477.3 1182.1,477.3 1182.1,376.5 1163.6,376.5 1163.6,0 1004.1,0 1004.1,376.5 985.7,376.5 985.7,477.3 
			973.7,477.3 973.7,149.4 852.7,202.4 852.7,477.3 833.1,477.3 833.1,150.9 582.8,150.9 582.8,93.4 488.9,93.4 488.9,150.9 
			452.2,150.9 452.2,477.3 433,477.3 433,257.9 391.6,257.9 391.6,239.7 323.9,239.7 323.9,280.5 354.3,280.5 354.3,287.2 
			323.9,287.2 323.9,301.3 354.3,301.3 354.3,308 323.9,308 323.9,321.7 354.3,321.7 354.3,328.4 323.9,328.4 323.9,342.5 
			354.3,342.5 354.3,349.1 323.9,349.1 323.9,361.9 354.3,361.9 354.3,368.6 323.9,368.6 323.9,382.6 354.3,382.6 354.3,389.3 
			323.9,389.3 323.9,403.1 354.3,403.1 354.3,409.8 323.9,409.8 323.9,423.8 354.3,423.8 354.3,430.5 323.9,430.5 323.9,477.3 
			302,477.3 302,323.1 153.3,323.1 153.3,477.3 139.8,477.3 139.8,266.4 107.5,266.4 107.5,247.4 67,247.4 67,266.4 34.7,266.4 
			34.7,477.3 0,477.3 0,478.3 35.7,478.3 35.7,267.4 68,267.4 68,248.4 106.5,248.4 106.5,267.4 138.8,267.4 138.8,478.3 
			154.3,478.3 154.3,324.1 301,324.1 301,478.3 324.9,478.3 324.9,431.5 355.3,431.5 355.3,422.8 324.9,422.8 324.9,410.8 
			355.3,410.8 355.3,402.1 324.9,402.1 324.9,390.3 355.3,390.3 355.3,381.6 324.9,381.6 324.9,369.6 355.3,369.6 355.3,360.9 
			324.9,360.9 324.9,350.1 355.3,350.1 355.3,341.5 324.9,341.5 324.9,329.4 355.3,329.4 355.3,320.7 324.9,320.7 324.9,309 
			355.3,309 355.3,300.3 324.9,300.3 324.9,288.2 355.3,288.2 355.3,279.5 324.9,279.5 324.9,240.7 390.6,240.7 390.6,258.9 
			432,258.9 432,478.3 453.2,478.3 453.2,151.9 489.9,151.9 489.9,94.4 581.8,94.4 581.8,151.9 832.1,151.9 832.1,478.3 
			853.7,478.3 853.7,203 972.7,150.9 972.7,478.3 986.7,478.3 986.7,377.5 1005.1,377.5 1005.1,1 1162.6,1 1162.6,377.5 
			1181.1,377.5 1181.1,478.3 1205.6,478.3 1205.6,245.6 1226.8,245.6 1226.8,251.6 1320.1,251.6 1320.1,245.6 1341.2,245.6 
			1341.2,478.3 1363.3,478.3 1363.3,335.3 1377.6,335.3 1377.6,321.2 1413.1,321.2 1413.1,335.3 1427.4,335.3 1427.4,369.3 
			1448.4,369.3 1448.4,335.3 1462.7,335.3 1462.7,321.2 1498.2,321.2 1498.2,335.3 1512.5,335.3 1512.5,478.3 1531.1,478.3 
			1531.1,329.6 1726.9,329.6 1726.9,478.3 1770,478.3 1770,477.3 		"/>
		<path d="M357.8,369.6h41.5v-8.7h-41.5V369.6z M358.8,361.9h39.5v6.7h-39.5V361.9z"/>
		<path d="M1661.5,432.9h48.8v-15.4h-48.8V432.9z M1662.5,418.5h46.8v13.4h-46.8V418.5z"/>
		<path d="M45.9,388.3h16.2v-13H45.9C45.9,375.2,45.9,388.3,45.9,388.3z M46.9,376.2h14.2v11H46.9C46.9,387.3,46.9,376.2,46.9,376.2
			z"/>
		<path d="M1292.5,283.2h27.9v-13.8h-27.9V283.2z M1293.5,270.4h25.9v11.8h-25.9V270.4z"/>
		<path d="M45.9,411.2h16.2v-13H45.9C45.9,398.2,45.9,411.2,45.9,411.2z M46.9,399.2h14.2v11H46.9C46.9,410.2,46.9,399.2,46.9,399.2
			z"/>
		<path d="M262.2,478.3h23.5v-16.7h-23.5V478.3z M263.2,462.6h21.5v14.7h-21.5V462.6z"/>
		<path d="M1226.4,478.3h94v-29h-94V478.3z M1227.4,450.2h92v27h-92V450.2z"/>
		<path d="M1292.5,349.8h27.9v-14.2h-27.9V349.8z M1293.5,336.6h25.9v12.2h-25.9V336.6z"/>
		<path d="M469.6,394.2h48.8v-12.5h-48.8V394.2z M470.6,382.7h46.8v10.5h-46.8V382.7z"/>
		<path d="M1659.4,395.4h-60.7v15.4h60.7V395.4z M1658.4,409.8h-58.7v-13.4h58.7V409.8z"/>
		<path d="M526.4,209.7h46.8v-12.5h-46.8V209.7z M527.4,198.3h44.8v10.5h-44.8V198.3z"/>
		<path d="M1289,291.2h-31.1v14.2h31.1V291.2z M1288,304.4h-29.1v-12.2h29.1V304.4z"/>
		<path d="M1292.5,327.6h27.9v-14.2h-27.9V327.6z M1293.5,314.4h25.9v12.2h-25.9V314.4z"/>
		<path d="M469.6,414.6h48.8v-12.5h-48.8V414.6z M470.6,403.2h46.8v10.5h-46.8V403.2z"/>
		<path d="M357.8,329.4h41.5v-8.7h-41.5V329.4z M358.8,321.7h39.5v6.7h-39.5V321.7z"/>
		<path d="M67.4,319.3h7v-13h-7V319.3z M68.4,307.3h5v11h-5V307.3z"/>
		<path d="M357.8,309h41.5v-8.7h-41.5V309z M358.8,301.3h39.5v6.7h-39.5V301.3z"/>
		<path d="M357.8,288.2h41.5v-8.7h-41.5V288.2z M358.8,280.5h39.5v6.7h-39.5V280.5z"/>
		<path d="M469.6,250.7h48.8v-12.5h-48.8V250.7z M470.6,239.3h46.8v10.5h-46.8V239.3z"/>
		<path d="M469.6,332.7h48.8v-12.5h-48.8V332.7z M470.6,321.2h46.8v10.5h-46.8V321.2z"/>
		<path d="M45.9,319.3h16.2v-13H45.9C45.9,306.3,45.9,319.3,45.9,319.3z M46.9,307.3h14.2v11H46.9C46.9,318.3,46.9,307.3,46.9,307.3
			z"/>
		<path d="M469.6,271.2h48.8v-12.5h-48.8V271.2z M470.6,259.8h46.8v10.5h-46.8V259.8z"/>
		<path d="M1257.8,394.3h31.1v-14.2h-31.1V394.3z M1258.8,381.1h29.1v12.2h-29.1V381.1z"/>
		<path d="M469.6,291.7h48.8v-12.5h-48.8V291.7z M470.6,280.2h46.8v10.5h-46.8V280.2z"/>
		<path d="M1257.8,372.1h31.1v-14.2h-31.1V372.1z M1258.8,358.9h29.1v12.2h-29.1V358.9z"/>
		<path d="M357.8,390.3h41.5v-8.7h-41.5V390.3z M358.8,382.6h39.5v6.7h-39.5V382.6z"/>
		<path d="M1538.3,383.6h181.5v-47.5h-181.5V383.6z M1539.3,337.1h179.5v45.5h-179.5V337.1z"/>
		<path d="M45.9,342.3h16.2v-13H45.9C45.9,329.3,45.9,342.3,45.9,342.3z M46.9,330.3h14.2v11H46.9C46.9,341.3,46.9,330.3,46.9,330.3
			z"/>
		<path d="M45.9,296.3h16.2v-13H45.9C45.9,283.3,45.9,296.3,45.9,296.3z M46.9,284.3h14.2v11H46.9C46.9,295.3,46.9,284.3,46.9,284.3
			z"/>
		<path d="M469.6,312.2h48.8v-12.5h-48.8V312.2z M470.6,300.7h46.8v10.5h-46.8V300.7z"/>
		<path d="M469.6,189.2h48.8v-10.5h-48.8V189.2z M470.6,179.7h46.8v8.5h-46.8V179.7z"/>
		<path d="M1257.8,349.8h31.1v-14.2h-31.1V349.8z M1258.8,336.6h29.1v12.2h-29.1V336.6z"/>
		<path d="M357.8,431.5h41.5v-8.7h-41.5V431.5z M358.8,423.8h39.5v6.7h-39.5V423.8z"/>
		<path d="M1292.5,305.4h27.9v-14.2h-27.9V305.4z M1293.5,292.2h25.9v12.2h-25.9V292.2z"/>
		<path d="M357.8,410.8h41.5v-8.7h-41.5V410.8z M358.8,403.1h39.5v6.7h-39.5V403.1z"/>
		<path d="M1257.8,416.1h31.1v-13.8h-31.1V416.1z M1258.8,403.3h29.1v11.8h-29.1V403.3z"/>
		<path d="M1661.5,410.8h48.8v-15.4h-48.8V410.8z M1662.5,396.4h46.8v13.4h-46.8V396.4z"/>
		<path d="M469.6,230.2h48.8v-12.5h-48.8V230.2z M470.6,218.8h46.8v10.5h-46.8V218.8z"/>
		<path d="M45.9,365.3h16.2v-13H45.9C45.9,352.2,45.9,365.3,45.9,365.3z M46.9,353.2h14.2v11H46.9C46.9,364.3,46.9,353.2,46.9,353.2
			z"/>
		<path d="M469.6,353.2h48.8v-12.5h-48.8V353.2z M470.6,341.7h46.8v10.5h-46.8V341.7z"/>
		<path d="M1596.6,395.4h-48.8v15.4h48.8V395.4z M1595.6,409.8h-46.8v-13.4h46.8V409.8z"/>
		<path d="M168.5,391.5H193v-12.6h-24.5V391.5z M169.5,379.9H192v10.6h-22.5V379.9z"/>
		<path d="M168.5,412.2H193v-12.6h-24.5V412.2z M169.5,400.6H192v10.6h-22.5V400.6z"/>
		<path d="M1459.8,404.5h16.2v-22.8h-16.2V404.5z M1460.8,382.7h14.2v20.8h-14.2V382.7z"/>
		<path d="M1547.8,432.9h48.8v-15.4h-48.8V432.9z M1548.8,418.5h46.8v13.4h-46.8V418.5z"/>
		<path d="M168.5,350.2H193v-12h-24.5V350.2z M169.5,339.2H192v10h-22.5V339.2z"/>
		<path d="M100.1,365.3h7v-13h-7V365.3z M101.1,353.2h5v11h-5V353.2z"/>
		<path d="M1399.8,440.3h16.2v-23.2h-16.2V440.3z M1400.8,418.1h14.2v21.2h-14.2V418.1z"/>
		<path d="M100.1,342.3h7v-13h-7V342.3z M101.1,330.3h5v11h-5V330.3z"/>
		<path d="M168.5,478.3H193v-16.7h-24.5V478.3z M169.5,462.6H192v14.7h-22.5V462.6z"/>
		<path d="M168.5,453.6H193v-12.6h-24.5V453.6z M169.5,441.9H192v10.6h-22.5V441.9z"/>
		<path d="M100.1,296.3h7v-13h-7V296.3z M101.1,284.3h5v11h-5V284.3z"/>
		<path d="M1459.8,369.2h16.2V346h-16.2V369.2z M1460.8,347h14.2v21.2h-14.2V347z"/>
		<path d="M168.5,432.9H193v-12.6h-24.5V432.9z M169.5,421.2H192v10.6h-22.5V421.2z"/>
		<path d="M1459.8,440.3h16.2v-23.2h-16.2V440.3z M1460.8,418.1h14.2v21.2h-14.2V418.1z"/>
		<path d="M112.3,365.3h16.2v-13h-16.2C112.3,352.2,112.3,365.3,112.3,365.3z M113.3,353.2h14.2v11h-14.2V353.2z"/>
		<path d="M112.3,342.3h16.2v-13h-16.2C112.3,329.3,112.3,342.3,112.3,342.3z M113.3,330.3h14.2v11h-14.2V330.3z"/>
		<path d="M1484,404.5h16.2v-22.8H1484V404.5z M1485,382.7h14.2v20.8H1485V382.7z"/>
		<path d="M100.1,411.2h7v-13h-7V411.2z M101.1,399.2h5v11h-5V399.2z"/>
		<path d="M112.3,296.3h16.2v-13h-16.2C112.3,283.3,112.3,296.3,112.3,296.3z M113.3,284.3h14.2v11h-14.2V284.3z"/>
		<path d="M1484,369.2h16.2V346H1484V369.2z M1485,347h14.2v21.2H1485V347z"/>
		<path d="M100.1,388.3h7v-13h-7V388.3z M101.1,376.2h5v11h-5V376.2z"/>
		<path d="M168.5,370.9H193v-12.6h-24.5V370.9z M169.5,359.2H192v10.6h-22.5V359.2z"/>
		<path d="M112.3,411.2h16.2v-13h-16.2C112.3,398.2,112.3,411.2,112.3,411.2z M113.3,399.2h14.2v11h-14.2V399.2z"/>
		<path d="M1484,440.3h16.2v-23.2H1484V440.3z M1485,418.1h14.2v21.2H1485V418.1z"/>
		<path d="M112.3,319.3h16.2v-13h-16.2C112.3,306.3,112.3,319.3,112.3,319.3z M113.3,307.3h14.2v11h-14.2V307.3z"/>
		<path d="M112.3,388.3h16.2v-13h-16.2C112.3,375.2,112.3,388.3,112.3,388.3z M113.3,376.2h14.2v11h-14.2V376.2z"/>
		<path d="M196.5,350.2h62.2v-12h-62.2V350.2z M197.5,339.2h60.2v10h-60.2V339.2z"/>
		<path d="M1375.6,404.5h16.2v-22.8h-16.2V404.5z M1376.6,382.7h14.2v20.8h-14.2V382.7z"/>
		<path d="M1375.6,369.2h16.2V346h-16.2V369.2z M1376.6,347h14.2v21.2h-14.2V347z"/>
		<path d="M67.4,365.3h7v-13h-7V365.3z M68.4,353.2h5v11h-5V353.2z"/>
		<path d="M262.2,370.9h23.5v-12.6h-23.5V370.9z M263.2,359.2h21.5v10.6h-21.5V359.2z"/>
		<path d="M196.5,478.3h62.2v-16.7h-62.2V478.3z M197.5,462.6h60.2v14.7h-60.2V462.6z"/>
		<path d="M1598.7,432.9h60.7v-15.4h-60.7V432.9z M1599.7,418.5h58.7v13.4h-58.7V418.5z"/>
		<path d="M262.2,350.2h23.5v-12h-23.5V350.2z M263.2,339.2h21.5v10h-21.5V339.2z"/>
		<path d="M1399.8,369.2h16.2V346h-16.2V369.2z M1400.8,347h14.2v21.2h-14.2V347z"/>
		<path d="M262.2,412.2h23.5v-12.6h-23.5V412.2z M263.2,400.6h21.5v10.6h-21.5V400.6z"/>
		<path d="M262.2,391.5h23.5v-12.6h-23.5V391.5z M263.2,379.9h21.5v10.6h-21.5V379.9z"/>
		<path d="M1292.5,372.1h27.9v-14.2h-27.9V372.1z M1293.5,358.9h25.9v12.2h-25.9V358.9z"/>
		<path d="M1292.5,416.1h27.9v-13.8h-27.9V416.1z M1293.5,403.3h25.9v11.8h-25.9V403.3z"/>
		<path d="M67.4,342.3h7v-13h-7V342.3z M68.4,330.3h5v11h-5V330.3z"/>
		<path d="M262.2,432.9h23.5v-12.6h-23.5V432.9z M263.2,421.2h21.5v10.6h-21.5V421.2z"/>
		<path d="M67.4,388.3h7v-13h-7V388.3z M68.4,376.2h5v11h-5V376.2z"/>
		<path d="M262.2,453.6h23.5v-12.6h-23.5V453.6z M263.2,441.9h21.5v10.6h-21.5V441.9z"/>
		<path d="M196.5,391.5h62.2v-12.6h-62.2V391.5z M197.5,379.9h60.2v10.6h-60.2V379.9z"/>
		<path d="M100.1,319.3h7v-13h-7V319.3z M101.1,307.3h5v11h-5V307.3z"/>
		<path d="M196.5,370.9h62.2v-12.6h-62.2V370.9z M197.5,359.2h60.2v10.6h-60.2V359.2z"/>
		<path d="M67.4,411.2h7v-13h-7V411.2z M68.4,399.2h5v11h-5V399.2z"/>
		<path d="M1399.8,404.5h16.2v-22.8h-16.2V404.5z M1400.8,382.7h14.2v20.8h-14.2V382.7z"/>
		<path d="M1546.2,478.3h162.5v-32.6h-162.5V478.3L1546.2,478.3z M1547.2,446.6h160.5v30.6h-160.5V446.6z"/>
		<path d="M196.5,453.6h62.2v-12.6h-62.2V453.6z M197.5,441.9h60.2v10.6h-60.2V441.9z"/>
		<path d="M1375.6,440.3h16.2v-23.2h-16.2V440.3z M1376.6,418.1h14.2v21.2h-14.2V418.1z"/>
		<path d="M196.5,412.2h62.2v-12.6h-62.2V412.2z M197.5,400.6h60.2v10.6h-60.2V400.6z"/>
		<path d="M196.5,432.9h62.2v-12.6h-62.2V432.9z M197.5,421.2h60.2v10.6h-60.2V421.2z"/>
		<path d="M526.4,250.7h46.8v-12.5h-46.8V250.7z M527.4,239.3h44.8v10.5h-44.8V239.3z"/>
		<path d="M865.3,400.3h17.8v-12.8h-17.8V400.3z M866.3,388.5h15.8v10.8h-15.8V388.5z"/>
		<path d="M865.3,416.4h17.8v-12.8h-17.8V416.4z M866.3,404.6h15.8v10.8h-15.8V404.6z"/>
		<path d="M865.3,320.1h17.8v-12.8h-17.8V320.1z M866.3,308.3h15.8v10.8h-15.8V308.3z"/>
		<path d="M865.3,433.4h17.8v-13.7h-17.8V433.4z M866.3,420.6h15.8v11.7h-15.8V420.6z"/>
		<path d="M1142.3,282.3h-28.2v8.9h28.2V282.3z M1141.3,290.2h-26.2v-6.9h26.2V290.2z"/>
		<path d="M1142.3,303.8h-28.2v8.9h28.2V303.8z M1141.3,311.6h-26.2v-6.9h26.2V311.6z"/>
		<path d="M865.3,352.2h17.8v-12.8h-17.8V352.2z M866.3,340.4h15.8v10.8h-15.8V340.4z"/>
		<path d="M865.3,368.2h17.8v-12.8h-17.8V368.2z M866.3,356.5h15.8v10.8h-15.8V356.5z"/>
		<path d="M1142.3,260.9h-28.2v8.9h28.2V260.9z M1141.3,268.8h-26.2v-6.9h26.2V268.8z"/>
		<path d="M1142.3,218.1h-28.2v8.9h28.2V218.1z M1141.3,226h-26.2v-6.9h26.2V226z"/>
		<path d="M886.6,304.1h17.8v-12.8h-17.8V304.1z M887.6,292.3h15.8v10.8h-15.8V292.3z"/>
		<path d="M886.6,320.1h17.8v-12.8h-17.8V320.1z M887.6,308.3h15.8v10.8h-15.8V308.3z"/>
		<path d="M1142.3,239.5h-28.2v8.9h28.2V239.5z M1141.3,247.4h-26.2v-6.9h26.2V247.4z"/>
		<path d="M886.6,272h17.8v-12.8h-17.8V272z M887.6,260.2h15.8V271h-15.8V260.2z"/>
		<path d="M886.6,255.9h17.8v-12.8h-17.8V255.9z M887.6,244.2h15.8v10.8h-15.8V244.2z"/>
		<path d="M886.6,223.9h17.8v-13.3h-17.8V223.9z M887.6,211.6h15.8v11.3h-15.8V211.6z"/>
		<path d="M766.9,373.7h48.8v-12.5h-48.8V373.7z M767.9,362.2h46.8v10.5h-46.8V362.2z"/>
		<path d="M1142.3,24.3h-116.8v10h116.8V24.3z M1141.3,33.3h-114.8v-8h114.8V33.3z"/>
		<path d="M766.9,353.2h48.8v-12.5h-48.8V353.2z M767.9,341.7h46.8v10.5h-46.8V341.7z"/>
		<path d="M1142.3,196.7h-28.2v8.9h28.2V196.7z M1141.3,204.6h-26.2v-6.9h26.2V204.6z"/>
		<path d="M865.3,288h17.8v-12.8h-17.8V288z M866.3,276.2h15.8V287h-15.8V276.2z"/>
		<path d="M766.9,312.2h48.8v-12.5h-48.8V312.2z M767.9,300.7h46.8v10.5h-46.8V300.7z"/>
		<path d="M766.9,394.2h48.8v-12.5h-48.8V394.2z M767.9,382.7h46.8v10.5h-46.8V382.7z"/>
		<path d="M1025.5,55.7h28.2v-8.9h-28.2V55.7z M1026.5,47.9h26.2v6.9h-26.2V47.9z"/>
		<path d="M766.9,291.7h48.8v-12.5h-48.8V291.7z M767.9,280.2h46.8v10.5h-46.8V280.2z"/>
		<path d="M865.3,239.9h17.8v-12.8h-17.8V239.9z M866.3,228.1h15.8v10.8h-15.8V228.1z"/>
		<path d="M1114.1,377.3h28.2V368h-28.2V377.3z M1115.1,369h26.2v7.4h-26.2V369z"/>
		<path d="M1142.3,325.2h-28.2v8.9h28.2V325.2z M1141.3,333h-26.2v-6.9h26.2V333z"/>
		<path d="M865.3,272h17.8v-12.8h-17.8V272z M866.3,260.2h15.8V271h-15.8V260.2z"/>
		<path d="M1142.3,346.6h-28.2v8.9h28.2V346.6z M1141.3,354.4h-26.2v-6.9h26.2V354.4z"/>
		<path d="M766.9,414.6h48.8v-12.5h-48.8V414.6z M767.9,403.2h46.8v10.5h-46.8V403.2z"/>
		<path d="M865.3,255.9h17.8v-12.8h-17.8V255.9z M866.3,244.2h15.8v10.8h-15.8V244.2z"/>
		<path d="M886.6,384.3h17.8v-12.8h-17.8V384.3z M887.6,372.5h15.8v10.8h-15.8V372.5z"/>
		<path d="M1142.3,68.3h-28.2v8.9h28.2V68.3z M1141.3,76.1h-26.2v-6.9h26.2V76.1z"/>
		<path d="M1092.5,218.1h-17.2v8.9h17.2V218.1z M1091.5,226h-15.2v-6.9h15.2V226z"/>
		<path d="M1092.5,239.5h-17.2v8.9h17.2V239.5z M1091.5,247.4h-15.2v-6.9h15.2V247.4z"/>
		<path d="M1092.5,196.7h-17.2v8.9h17.2V196.7z M1091.5,204.6h-15.2v-6.9h15.2V204.6z"/>
		<path d="M1092.5,153.9h-17.2v8.9h17.2V153.9z M1091.5,161.8h-15.2v-6.9h15.2V161.8z"/>
		<path d="M1092.5,175.3h-17.2v8.9h17.2V175.3z M1091.5,183.2h-15.2v-6.9h15.2V183.2z"/>
		<path d="M1113.9,402.6h54.7v-10h-54.7V402.6z M1114.9,393.6h52.7v8h-52.7V393.6z"/>
		<path d="M1142.3,46.8h-28.2v8.9h28.2V46.8z M1141.3,54.7h-26.2v-6.9h26.2V54.7z"/>
		<path d="M1004.5,478.3h159.7v-29.4h-159.7V478.3L1004.5,478.3z M1005.5,449.9h157.7v27.4h-157.7V449.9z"/>
		<path d="M886.6,352.2h17.8v-12.8h-17.8V352.2z M887.6,340.4h15.8v10.8h-15.8V340.4z"/>
		<path d="M1092.5,346.6h-17.2v8.9h17.2V346.6z M1091.5,354.4h-15.2v-6.9h15.2V354.4z"/>
		<path d="M1113.9,420.9h54.7v-10h-54.7V420.9z M1114.9,411.8h52.7v8h-52.7V411.8z"/>
		<path d="M1092.5,282.3h-17.2v8.9h17.2V282.3z M1091.5,290.2h-15.2v-6.9h15.2V290.2z"/>
		<path d="M1092.5,303.8h-17.2v8.9h17.2V303.8z M1091.5,311.6h-15.2v-6.9h15.2V311.6z"/>
		<path d="M1092.5,260.9h-17.2v8.9h17.2V260.9z M1091.5,268.8h-15.2v-6.9h15.2V268.8z"/>
		<path d="M1092.5,325.2h-17.2v8.9h17.2V325.2z M1091.5,333h-15.2v-6.9h15.2V333z"/>
		<path d="M886.6,400.3h17.8v-12.8h-17.8V400.3z M887.6,388.5h15.8v10.8h-15.8V388.5z"/>
		<path d="M1142.3,153.9h-28.2v8.9h28.2V153.9z M1141.3,161.8h-26.2v-6.9h26.2V161.8z"/>
		<path d="M941.3,433.4h14.3V210.6h-14.3V433.4z M942.3,211.5h12.3v220.8h-12.3V211.5L942.3,211.5z"/>
		<path d="M886.6,433.4h17.8v-13.7h-17.8V433.4z M887.6,420.6h15.8v11.7h-15.8V420.6z"/>
		<path d="M766.9,271.2h48.8v-12.5h-48.8V271.2z M767.9,259.8h46.8v10.5h-46.8V259.8z"/>
		<path d="M886.6,368.2h17.8v-12.8h-17.8V368.2z M887.6,356.5h15.8v10.8h-15.8V356.5z"/>
		<path d="M1142.3,175.3h-28.2v8.9h28.2V175.3z M1141.3,183.2h-26.2v-6.9h26.2V183.2z"/>
		<path d="M1092.5,132.5h-17.2v8.9h17.2V132.5z M1091.5,140.4h-15.2v-6.9h15.2V140.4z"/>
		<path d="M1092.5,111.1h-17.2v8.9h17.2V111.1z M1091.5,119h-15.2v-6.9h15.2V119z"/>
		<path d="M1142.3,89.7h-28.2v8.9h28.2V89.7z M1141.3,97.5h-26.2v-6.9h26.2V97.5z"/>
		<path d="M1092.5,89.7h-17.2v8.9h17.2V89.7z M1091.5,97.5h-15.2v-6.9h15.2V97.5z"/>
		<path d="M1092.5,68.3h-17.2v8.9h17.2V68.3z M1091.5,76.1h-15.2v-6.9h15.2V76.1z"/>
		<path d="M1142.3,111.1h-28.2v8.9h28.2V111.1z M1141.3,119h-26.2v-6.9h26.2V119z"/>
		<path d="M1142.3,132.5h-28.2v8.9h28.2V132.5z M1141.3,140.4h-26.2v-6.9h26.2V140.4z"/>
		<path d="M1092.5,46.8h-17.2v8.9h17.2V46.8z M1091.5,54.7h-15.2v-6.9h15.2V54.7z"/>
		<path d="M589.9,414.6h39.9v-12.5h-39.9V414.6z M590.9,403.2h37.9v10.5h-37.9V403.2z"/>
		<path d="M589.9,291.7h39.9v-12.5h-39.9V291.7z M590.9,280.2h37.9v10.5h-37.9V280.2z"/>
		<path d="M1025.5,377.3h28.2V368h-28.2V377.3z M1026.5,369h26.2v7.4h-26.2V369z"/>
		<path d="M589.9,312.2h39.9v-12.5h-39.9V312.2z M590.9,300.7h37.9v10.5h-37.9V300.7z"/>
		<path d="M589.9,353.2h39.9v-12.5h-39.9V353.2z M590.9,341.7h37.9v10.5h-37.9V341.7z"/>
		<path d="M589.9,373.7h39.9v-12.5h-39.9V373.7z M590.9,362.2h37.9v10.5h-37.9V362.2z"/>
		<path d="M589.9,250.7h39.9v-12.5h-39.9V250.7z M590.9,239.3h37.9v10.5h-37.9V239.3z"/>
		<path d="M999.2,403h54.7v-10h-54.7V403z M1000.2,393.9h52.7v8h-52.7V393.9z"/>
		<path d="M589.9,271.2h39.9v-12.5h-39.9V271.2z M590.9,259.8h37.9v10.5h-37.9V259.8z"/>
		<path d="M589.9,394.2h39.9v-12.5h-39.9V394.2z M590.9,382.7h37.9v10.5h-37.9V382.7z"/>
		<path d="M655.5,189.2h39.9v-10.5h-39.9V189.2z M656.5,179.7h37.9v8.5h-37.9V179.7z"/>
		<path d="M1025.5,312.6h28.2v-8.9h-28.2V312.6z M1026.5,304.8h26.2v6.9h-26.2V304.8z"/>
		<path d="M655.5,209.7h39.9v-12.5h-39.9V209.7z M656.5,198.3h37.9v10.5h-37.9V198.3z"/>
		<path d="M999.2,421.2h54.7v-10h-54.7V421.2z M1000.2,412.2h52.7v8h-52.7V412.2z"/>
		<path d="M1025.5,355.4h28.2v-8.9h-28.2V355.4z M1026.5,347.6h26.2v6.9h-26.2V347.6z"/>
		<path d="M526.4,189.2h46.8v-10.5h-46.8V189.2z M527.4,179.7h44.8v8.5h-44.8V179.7z"/>
		<path d="M1025.5,334h28.2v-8.9h-28.2V334z M1026.5,326.2h26.2v6.9h-26.2V326.2z"/>
		<path d="M1226.4,372.1h27.9v-14.2h-27.9V372.1z M1227.4,358.9h25.9v12.2h-25.9V358.9z"/>
		<path d="M526.4,271.2h46.8v-12.5h-46.8V271.2z M527.4,259.8h44.8v10.5h-44.8V259.8z"/>
		<path d="M589.9,189.2h39.9v-10.5h-39.9V189.2z M590.9,179.7h37.9v8.5h-37.9V179.7z"/>
		<path d="M655.5,230.2h39.9v-12.5h-39.9V230.2z M656.5,218.8h37.9v10.5h-37.9V218.8z"/>
		<path d="M526.4,312.2h46.8v-12.5h-46.8V312.2z M527.4,300.7h44.8v10.5h-44.8V300.7z"/>
		<path d="M1226.4,394.3h27.9v-14.2h-27.9V394.3z M1227.4,381.1h25.9v12.2h-25.9V381.1z"/>
		<path d="M526.4,230.2h46.8v-12.5h-46.8V230.2z M527.4,218.8h44.8v10.5h-44.8V218.8z"/>
		<path d="M1075.3,377.3h17.2V368h-17.2V377.3z M1076.3,369h15.2v7.4h-15.2V369z"/>
		<path d="M1226.4,327.6h27.9v-14.2h-27.9V327.6z M1227.4,314.4h25.9v12.2h-25.9V314.4z"/>
		<path d="M1226.4,305.4h27.9v-14.2h-27.9V305.4z M1227.4,292.2h25.9v12.2h-25.9V292.2z"/>
		<path d="M589.9,230.2h39.9v-12.5h-39.9V230.2z M590.9,218.8h37.9v10.5h-37.9V218.8z"/>
		<path d="M526.4,414.6h46.8v-12.5h-46.8V414.6z M527.4,403.2h44.8v10.5h-44.8V403.2z"/>
		<path d="M526.4,353.2h46.8v-12.5h-46.8V353.2z M527.4,341.7h44.8v10.5h-44.8V341.7z"/>
		<path d="M526.4,373.7h46.8v-12.5h-46.8V373.7z M527.4,362.2h44.8v10.5h-44.8V362.2z"/>
		<path d="M526.4,332.7h46.8v-12.5h-46.8V332.7z M527.4,321.2h44.8v10.5h-44.8V321.2z"/>
		<path d="M1254.3,269.4h-27.9v13.8h27.9V269.4z M1253.3,282.2h-25.9v-11.8h25.9V282.2z"/>
		<path d="M712.1,189.2h46.8v-10.5h-46.8V189.2z M713.1,179.7h44.8v8.5h-44.8V179.7z"/>
		<path d="M655.5,250.7h39.9v-12.5h-39.9V250.7z M656.5,239.3h37.9v10.5h-37.9V239.3z"/>
		<path d="M712.1,312.2h46.8v-12.5h-46.8V312.2z M713.1,300.7h44.8v10.5h-44.8V300.7z"/>
		<path d="M1025.5,184.2h28.2v-8.9h-28.2V184.2z M1026.5,176.3h26.2v6.9h-26.2V176.3z"/>
		<path d="M1025.5,141.4h28.2v-8.9h-28.2V141.4z M1026.5,133.5h26.2v6.9h-26.2V133.5z"/>
		<path d="M1025.5,162.8h28.2v-8.9h-28.2V162.8z M1026.5,154.9h26.2v6.9h-26.2V154.9z"/>
		<path d="M712.1,250.7h46.8v-12.5h-46.8V250.7z M713.1,239.3h44.8v10.5h-44.8V239.3z"/>
		<path d="M712.1,291.7h46.8v-12.5h-46.8V291.7z M713.1,280.2h44.8v10.5h-44.8V280.2z"/>
		<path d="M712.1,353.2h46.8v-12.5h-46.8V353.2z M713.1,341.7h44.8v10.5h-44.8V341.7z"/>
		<path d="M766.9,189.2h48.8v-10.5h-48.8V189.2z M767.9,179.7h46.8v8.5h-46.8V179.7z"/>
		<path d="M766.9,250.7h48.8v-12.5h-48.8V250.7z M767.9,239.3h46.8v10.5h-46.8V239.3z"/>
		<path d="M712.1,373.7h46.8v-12.5h-46.8V373.7z M713.1,362.2h44.8v10.5h-44.8V362.2z"/>
		<path d="M1025.5,98.5h28.2v-8.9h-28.2V98.5z M1026.5,90.7h26.2v6.9h-26.2V90.7z"/>
		<path d="M1025.5,119.9h28.2v-8.9h-28.2V119.9z M1026.5,112.1h26.2v6.9h-26.2V112.1z"/>
		<path d="M766.9,209.7h48.8v-12.5h-48.8V209.7z M767.9,198.3h46.8v10.5h-46.8V198.3z"/>
		<path d="M712.1,414.6h46.8v-12.5h-46.8V414.6z M713.1,403.2h44.8v10.5h-44.8V403.2z"/>
		<path d="M712.1,332.7h46.8v-12.5h-46.8V332.7z M713.1,321.2h44.8v10.5h-44.8V321.2z"/>
		<path d="M655.5,312.2h39.9v-12.5h-39.9V312.2z M656.5,300.7h37.9v10.5h-37.9V300.7z"/>
		<path d="M1025.5,269.8h28.2v-8.9h-28.2V269.8z M1026.5,261.9h26.2v6.9h-26.2V261.9z"/>
		<path d="M655.5,332.7h39.9v-12.5h-39.9V332.7z M656.5,321.2h37.9v10.5h-37.9V321.2z"/>
		<path d="M655.5,271.2h39.9v-12.5h-39.9V271.2z M656.5,259.8h37.9v10.5h-37.9V259.8z"/>
		<path d="M1025.5,291.2h28.2v-8.9h-28.2V291.2z M1026.5,283.3h26.2v6.9h-26.2V283.3z"/>
		<path d="M1025.5,248.4h28.2v-8.9h-28.2V248.4z M1026.5,240.5h26.2v6.9h-26.2V240.5z"/>
		<path d="M655.5,291.7h39.9v-12.5h-39.9V291.7z M656.5,280.2h37.9v10.5h-37.9V280.2z"/>
		<path d="M1025.5,205.6h28.2v-8.9h-28.2V205.6z M1026.5,197.7h26.2v6.9h-26.2V197.7z"/>
		<path d="M655.5,353.2h39.9v-12.5h-39.9V353.2z M656.5,341.7h37.9v10.5h-37.9V341.7z"/>
		<path d="M712.1,230.2h46.8v-12.5h-46.8V230.2z M713.1,218.8h44.8v10.5h-44.8V218.8z"/>
		<path d="M1025.5,77.1h28.2v-8.9h-28.2V77.1z M1026.5,69.3h26.2v6.9h-26.2V69.3z"/>
		<path d="M712.1,209.7h46.8v-12.5h-46.8V209.7z M713.1,198.3h44.8v10.5h-44.8V198.3z"/>
		<path d="M655.5,373.7h39.9v-12.5h-39.9V373.7z M656.5,362.2h37.9v10.5h-37.9V362.2z"/>
		<path d="M1025.5,227h28.2v-8.9h-28.2V227z M1026.5,219.1h26.2v6.9h-26.2V219.1z"/>
		<path d="M655.5,394.2h39.9v-12.5h-39.9V394.2z M656.5,382.7h37.9v10.5h-37.9V382.7z"/>
	</g>
</g>
</svg>
