<svg xmlns="http://www.w3.org/2000/svg" viewBox="0 0 1536.97 240.45"><g id="city"><g><path class="cls-1" d="M1240.29,185h3.02v4.23h-5.31c-1.13,0-1.7-.58-1.7-1.74v-6.8c0-.43,.14-.8,.41-1.1,.27-.3,.66-.45,1.15-.45h7.47l.02-1.56h-8.52c-.78,0-1.45,.19-2,.58-.69,.48-1.03,1.17-1.03,2.07v7.87c0,.75,.23,1.36,.68,1.84,.56,.57,1.38,.86,2.45,.86h8.77v-7.45h-5.4v1.65Z"/><path class="cls-1" d="M1258.51,183.7c0-.7-.21-1.26-.63-1.68-.42-.42-.97-.63-1.65-.63l-4.7-.04c-.64,0-1.23,.21-1.77,.63-.61,.48-.91,1.08-.91,1.81v4.33c0,.83,.25,1.49,.75,1.99,.5,.5,1.16,.75,1.98,.76l6.33,.03,.02-1.61-5.21-.02c-.99,0-1.49-.4-1.49-1.21l-.02-1.35h7.31l-.02-3.02Zm-2.24,1.63h-5.05v-1.39c0-.72,.37-1.09,1.12-1.09,1.38,0,2.36,0,2.93,.02,.37,.01,.63,.08,.78,.21,.15,.13,.22,.39,.22,.79v1.46Z"/><path class="cls-1" d="M1262.59,182c-.58,.47-.88,1.07-.88,1.81v4.3c0,.83,.26,1.5,.79,2,.53,.5,1.2,.76,2.03,.77l5.89,.03,.02-1.54-4.77-.02c-.99,0-1.49-.46-1.49-1.39l-.02-3.98c0-.72,.41-1.09,1.24-1.09l5.12,.04v-1.56h-6.21c-.64,0-1.22,.21-1.74,.63Z"/><polygon class="cls-1" points="1282.27 181.82 1282.34 181.54 1280.22 181.54 1275.8 185.09 1275.8 177.21 1273.47 177.21 1273.47 190.89 1275.78 190.89 1275.78 186.96 1276.76 186.14 1280.16 190.85 1282.81 190.85 1282.81 190.54 1278.43 184.84 1282.27 181.82"/><path class="cls-1" d="M1292.67,181.35h-5.05c-.63,0-1.2,.21-1.7,.63-.55,.47-.82,1.07-.82,1.81v4.4c0,.83,.25,1.5,.75,2,.5,.5,1.16,.75,1.98,.75h4.65c.82,0,1.47-.25,1.96-.74s.74-1.15,.74-1.98v-4.49c0-.74-.27-1.33-.82-1.77-.48-.41-1.04-.61-1.68-.61Zm.16,6.63c0,.91-.5,1.37-1.49,1.39h-2.37c-.99-.01-1.49-.47-1.49-1.39l-.02-4c0-.72,.42-1.09,1.26-1.09h2.88c.82,0,1.23,.36,1.23,1.09v4Z"/><path class="cls-1" d="M1305.49,189.29h-3.66c-.82,0-1.23-.5-1.23-1.49l.02-6.36h-2.31l.02,6.59c0,.83,.25,1.51,.74,2.03,.49,.53,1.15,.79,1.98,.79l6.79,.02,.02-9.45h-2.31l-.04,7.87Z"/><path class="cls-1" d="M1536.97,239.95h-110.55c-1.31-2.64-1.95-8.98-2.25-14.49,3.54-1.16,6.66-3.6,8.43-7.33h0c12.67,1.28,20.94-12.02,13.41-21.57,7.53-9.55-.74-22.85-13.41-21.57h0c-5.14-10.83-21.68-10.83-26.83,0h0c-12.67-1.28-20.94,12.02-13.41,21.57-7.53,9.55,.74,22.85,13.41,21.57h0c1.77,3.73,4.89,6.17,8.43,7.33-.31,5.51-.94,11.85-2.25,14.49h-48.63c-1.31-2.64-1.95-8.98-2.25-14.49,3.54-1.16,6.66-3.6,8.43-7.33h0c12.67,1.28,20.94-12.02,13.41-21.57,7.53-9.55-.74-22.85-13.41-21.57h0c-5.14-10.83-21.68-10.83-26.82,0h0c-12.67-1.28-20.94,12.02-13.41,21.57-7.53,9.55,.74,22.85,13.41,21.57h0c1.77,3.73,4.89,6.17,8.43,7.33-.31,5.51-.94,11.85-2.25,14.49h-31.73v-70.36h-92.67v70.36h-7.65v-71.99h-7.18v-7.09h-18.27v7.09h-7.18v17.03h-10.02v-17.03h-7.18v-7.09h-18.27v7.09h-7.18v71.99h-20.08V123.01h-11.09v3.01h-46.22v-3.01h-11.09v116.95h-9.74v-50.89h-9.26V.5h-79.39V189.06h-9.26v50.89h-13.51V75.44l-60.12,26.34V239.95h-8.78v-77.62h-74v77.62h-29.58c-1.31-2.64-1.95-8.98-2.25-14.49,3.54-1.16,6.66-3.6,8.43-7.33h0c12.67,1.28,20.94-12.02,13.41-21.57,7.53-9.55-.74-22.85-13.41-21.57h0c-5.14-10.83-21.68-10.83-26.83,0h0c-12.67-1.28-20.94,12.02-13.41,21.57-7.53,9.55,.74,22.85,13.41,21.57h0c1.77,3.73,4.89,6.17,8.43,7.33-.31,5.51-.94,11.85-2.25,14.49h-32.99V76.06h-125.39v-28.79h-46.54v28.79h-18.36V239.95h-15.62V123.01h-11.09v3.01h-46.22v-3.01h-11.09v116.95h-8.93v-110.26h-20.72v-9.13h-33.44v19.95h15.24v3.85h-15.24v6.54h15.24v3.85h-15.24v6.38h15.24v3.85h-15.24v6.54h15.24v3.85h-15.24v5.89h15.24v3.85h-15.24v6.54h15.24v3.85h-15.24v6.38h15.24v3.85h-15.24v6.54h15.24v3.85h-15.24v23.81h-29.8c-1.31-2.64-1.95-8.98-2.25-14.49,3.54-1.16,6.66-3.6,8.43-7.33h0c12.67,1.28,20.94-12.02,13.41-21.57,7.53-9.55-.74-22.85-13.41-21.57h0c-5.14-10.83-21.68-10.83-26.83,0h0c-12.67-1.28-20.94,12.02-13.41,21.57-7.53,9.55,.74,22.85,13.41,21.57h0c1.77,3.73,4.89,6.17,8.43,7.33-.31,5.51-.94,11.85-2.25,14.49h-48.96c-1.31-2.64-1.95-8.98-2.25-14.49,3.54-1.16,6.66-3.6,8.43-7.33h0c12.67,1.28,20.94-12.02,13.41-21.57,7.53-9.55-.74-22.85-13.41-21.57h0c-5.14-10.83-21.68-10.83-26.83,0h0c-12.67-1.28-20.94,12.02-13.41,21.57-7.53,9.55,.74,22.85,13.41,21.57h0c1.77,3.73,4.89,6.17,8.43,7.33-.31,5.51-.94,11.85-2.25,14.49h-29.45v-77.62h-74v77.62h-12.99v-105.99h-16.15v-9.54h-19.82v9.54h-16.15v105.99H0m1202.53-66.13h7.6v11.11h-7.6v-11.11Zm0,17.89h7.6v10.92h-7.6v-10.92Zm0,17.7h7.6v11.11h-7.6v-11.11Zm-12.12-35.6h7.6v11.11h-7.6v-11.11Zm0,17.89h7.6v10.92h-7.6v-10.92Zm0,17.7h7.6v11.11h-7.6v-11.11Zm-30.03-35.6h7.6v11.11h-7.6v-11.11Zm0,17.89h7.6v10.92h-7.6v-10.92Zm0,17.7h7.6v11.11h-7.6v-11.11Zm-12.12-35.6h7.6v11.11h-7.6v-11.11Zm0,17.89h7.6v10.92h-7.6v-10.92Zm0,17.7h7.6v11.11h-7.6v-11.11Zm-232.05-103.45h6.68v111.1h-6.68V105.97Zm-27.43,0h8.4v6.16h-8.4v-6.16Zm0,16.33h8.4v5.9h-8.4v-5.9Zm0,8.04h8.4v5.9h-8.4v-5.9Zm0,16.07h8.4v5.9h-8.4v-5.9Zm0,8.04h8.4v5.9h-8.4v-5.9Zm0,16.07h8.4v5.9h-8.4v-5.9Zm0,8.04h8.4v5.9h-8.4v-5.9Zm0,8.04h8.4v5.9h-8.4v-5.9Zm0,8.04h8.4v5.9h-8.4v-5.9Zm0,16.07h8.4v6.38h-8.4v-6.38Zm-10.66-96.43h8.4v5.9h-8.4v-5.9Zm0,8.04h8.4v5.9h-8.4v-5.9Zm0,8.04h8.4v5.9h-8.4v-5.9Zm0,8.04h8.4v5.9h-8.4v-5.9Zm0,16.07h8.4v5.9h-8.4v-5.9Zm0,16.07h8.4v5.9h-8.4v-5.9Zm0,8.04h8.4v5.9h-8.4v-5.9Zm0,16.07h8.4v5.9h-8.4v-5.9Zm0,8.04h8.4v5.9h-8.4v-5.9Zm0,8.04h8.4v6.38h-8.4v-6.38Zm-226.25-3v-5.74h22.95v5.74h-22.95Zm27.47-117.68h23.93v4.78h-23.93v-4.78Zm0,9.3h23.93v5.74h-23.93v-5.74Zm0,20.53h23.93v5.74h-23.93v-5.74Zm0,10.26h23.93v5.74h-23.93v-5.74Zm0,10.26h23.93v5.74h-23.93v-5.74Zm0,10.26h23.93v5.74h-23.93v-5.74Zm0,20.53h23.93v5.74h-23.93v-5.74Zm0,10.26h23.93v5.74h-23.93v-5.74Zm0,10.26h23.93v5.74h-23.93v-5.74Zm0,10.26h23.93v5.74h-23.93v-5.74Zm-27.48-111.94h22.96v4.78h-22.96v-4.78Zm0,9.3h22.96v5.74h-22.96v-5.74Zm0,10.26h22.96v5.74h-22.96v-5.74Zm0,10.26h22.96v5.74h-22.96v-5.74Zm0,20.53h22.96v5.74h-22.96v-5.74Zm0,10.26h22.96v5.74h-22.96v-5.74Zm0,10.26h22.96v5.74h-22.96v-5.74Zm0,10.26h22.96v5.74h-22.96v-5.74Zm0,10.26h22.96v5.74h-22.96v-5.74Zm-28.33-91.41h19.47v4.78h-19.47v-4.78Zm0,9.3h19.47v5.74h-19.47v-5.74Zm0,10.26h19.47v5.74h-19.47v-5.74Zm0,10.26h19.47v5.74h-19.47v-5.74Zm0,10.26h19.47v5.74h-19.47v-5.74Zm0,10.26h19.47v5.74h-19.47v-5.74Zm0,10.26h19.47v5.74h-19.47v-5.74Zm0,10.26h19.47v5.74h-19.47v-5.74Zm0,10.26h19.47v5.74h-19.47v-5.74Zm0,10.26h19.47v5.74h-19.47v-5.74Zm0,10.26h19.47v5.74h-19.47v-5.74Zm-32.87-101.67h19.47v4.78h-19.47v-4.78Zm0,19.56h19.47v5.74h-19.47v-5.74Zm0,10.26h19.47v5.74h-19.47v-5.74Zm0,10.26h19.47v5.74h-19.47v-5.74Zm0,10.26h19.47v5.74h-19.47v-5.74Zm0,10.26h19.47v5.74h-19.47v-5.74Zm0,20.53h19.47v5.74h-19.47v-5.74Zm0,10.26h19.47v5.74h-19.47v-5.74Zm0,10.26h19.47v5.74h-19.47v-5.74Zm0,10.26h19.47v5.74h-19.47v-5.74Zm-31.82-111.94h22.96v4.78h-22.96v-4.78Zm0,9.3h22.96v5.74h-22.96v-5.74Zm0,10.26h22.96v5.74h-22.96v-5.74Zm0,10.26h22.96v5.74h-22.96v-5.74Zm0,10.26h22.96v5.74h-22.96v-5.74Zm0,20.53h22.96v5.74h-22.96v-5.74Zm0,10.26h22.96v5.74h-22.96v-5.74Zm0,10.26h22.96v5.74h-22.96v-5.74Zm0,10.26h22.96v5.74h-22.96v-5.74Zm0,20.53h22.96v5.74h-22.96v-5.74Zm-28.45-111.94h23.93v4.78h-23.93v-4.78Zm0,19.56h23.93v5.74h-23.93v-5.74Zm0,10.26h23.93v5.74h-23.93v-5.74Zm0,10.26h23.93v5.74h-23.93v-5.74Zm0,10.26h23.93v5.74h-23.93v-5.74Zm0,10.26h23.93v5.74h-23.93v-5.74Zm0,10.26h23.93v5.74h-23.93v-5.74Zm0,10.26h23.93v5.74h-23.93v-5.74Zm0,20.53h23.93v5.74h-23.93v-5.74Zm0,10.26h23.93v5.74h-23.93v-5.74Zm-138.84-61.44h20.3v3.85h-20.3v-3.85Zm0,10.39h20.3v3.85h-20.3v-3.85Zm0,10.24h20.3v3.85h-20.3v-3.85Zm0,10.39h20.3v3.85h-20.3v-3.85Zm0,9.74h20.3v3.85h-20.3v-3.85Zm0,10.39h20.3v3.85h-20.3v-3.85Zm0,10.24h20.3v3.85h-20.3v-3.85Zm0,10.39h20.3v3.85h-20.3v-3.85Zm-254.33-69.89h7.63v6.03h-7.63v-6.03Zm0,11.52h7.63v6.03h-7.63v-6.03Zm0,11.52h7.63v6.03h-7.63v-6.03Zm0,11.52h7.63v6.03h-7.63v-6.03Zm0,11.52h7.63v6.03h-7.63v-6.03Zm0,11.52h7.63v6.03h-7.63v-6.03Zm-6.12-57.58h2.99v6.03h-2.99v-6.03Zm0,11.52h2.99v6.03h-2.99v-6.03Zm0,11.52h2.99v6.03h-2.99v-6.03Zm0,11.52h2.99v6.03h-2.99v-6.03Zm0,11.52h2.99v6.03h-2.99v-6.03Zm0,11.52h2.99v6.03h-2.99v-6.03Zm-16.38-57.58h2.99v6.03h-2.99v-6.03Zm0,11.52h2.99v6.03h-2.99v-6.03Zm0,11.52h2.99v6.03h-2.99v-6.03Zm0,11.52h2.99v6.03h-2.99v-6.03Zm0,11.52h2.99v6.03h-2.99v-6.03Zm0,11.52h2.99v6.03h-2.99v-6.03Zm-10.76-57.58h7.63v6.03h-7.63v-6.03Zm0,11.52h7.63v6.03h-7.63v-6.03Zm0,11.52h7.63v6.03h-7.63v-6.03Zm0,11.52h7.63v6.03h-7.63v-6.03Zm0,11.52h7.63v6.03h-7.63v-6.03Zm0,11.52h7.63v6.03h-7.63v-6.03Zm1204.86,11.48v6.78h-22.5v-6.78h22.5Zm-22.5-3.63v-6.78h22.5v6.78h-22.5Zm-58.02-34.68h84.98v21.87h-84.98v-21.87Zm28.44,34.68v-6.78h28.09v6.78h-28.09Zm28.09,3.63v6.78h-28.09v-6.78h28.09Zm-52.07-3.63v-6.78h22.5v6.78h-22.5Zm22.5,3.63v6.78h-22.5v-6.78h22.5Zm-23.24,13.24h76.05v15.26h-76.05v-15.26Zm-134.95-89.25h13.48v6.4h-13.48v-6.4Zm0,10.92h13.48v6.61h-13.48v-6.61Zm0,11.13h13.48v6.61h-13.48v-6.61Zm0,11.13h13.48v6.61h-13.48v-6.61Zm0,11.13h13.48v6.61h-13.48v-6.61Zm0,22.26h13.48v6.4h-13.48v-6.4Zm-17.35-55.66h15.09v6.61h-15.09v-6.61Zm0,22.26h15.09v6.61h-15.09v-6.61Zm0,11.13h15.09v6.61h-15.09v-6.61Zm0,11.13h15.09v6.61h-15.09v-6.61Zm0,11.13h15.09v6.4h-15.09v-6.4Zm-15.74-66.58h13.48v6.4h-13.48v-6.4Zm0,10.92h13.48v6.61h-13.48v-6.61Zm0,11.13h13.48v6.61h-13.48v-6.61Zm0,22.26h13.48v6.61h-13.48v-6.61Zm0,11.13h13.48v6.61h-13.48v-6.61Zm0,34.62h46.58v14.44h-46.58v-14.44Zm-27.44-14.7h-26.9v-4.52h26.9v4.52Zm0-13.65v4.52h-26.9v-4.52h26.9Zm-13.18-162.47v3.94h-13.62v-3.94h13.62Zm-13.62-6.78v-3.94h13.62v3.94h-13.62Zm13.62,17.51v3.94h-13.62v-3.94h13.62Zm0,10.72v3.94h-13.62v-3.94h13.62Zm0,10.72v3.94h-13.62v-3.94h13.62Zm0,10.72v3.94h-13.62v-3.94h13.62Zm0,10.72v3.94h-13.62v-3.94h13.62Zm0,10.72v3.94h-13.62v-3.94h13.62Zm0,10.72v3.94h-13.62v-3.94h13.62Zm0,10.72v3.94h-13.62v-3.94h13.62Zm0,10.72v3.94h-13.62v-3.94h13.62Zm0,10.72v3.94h-13.62v-3.94h13.62Zm0,10.72v3.94h-13.62v-3.94h13.62Zm0,10.72v3.94h-13.62v-3.94h13.62Zm0,10.72v3.94h-13.62v-3.94h13.62Zm0,10.72v4.18h-13.62v-4.18h13.62ZM965.38,12.67h57.99v4.52h-57.99v-4.52Zm24.92,165.37v-3.94h8.14v3.94h-8.14Zm8.14,6.78v4.18h-8.14v-4.18h8.14Zm-8.14-17.51v-3.94h8.14v3.94h-8.14Zm0-10.72v-3.94h8.14v3.94h-8.14Zm0-10.72v-3.94h8.14v3.94h-8.14Zm0-10.72v-3.94h8.14v3.94h-8.14Zm0-10.72v-3.94h8.14v3.94h-8.14Zm0-10.72v-3.94h8.14v3.94h-8.14Zm0-10.72v-3.94h8.14v3.94h-8.14Zm0-10.72v-3.94h8.14v3.94h-8.14Zm0-10.72v-3.94h8.14v3.94h-8.14Zm0-10.72v-3.94h8.14v3.94h-8.14Zm0-10.72v-3.94h8.14v3.94h-8.14Zm0-10.72v-3.94h8.14v3.94h-8.14Zm0-10.72v-3.94h8.14v3.94h-8.14Zm0-10.72v-3.94h8.14v3.94h-8.14Zm-24.92-3.94h13.62v3.94h-13.62v-3.94Zm0,10.72h13.62v3.94h-13.62v-3.94Zm0,10.72h13.62v3.94h-13.62v-3.94Zm0,10.72h13.62v3.94h-13.62v-3.94Zm0,10.72h13.62v3.94h-13.62v-3.94Zm0,10.72h13.62v3.94h-13.62v-3.94Zm0,10.72h13.62v3.94h-13.62v-3.94Zm0,10.72h13.62v3.94h-13.62v-3.94Zm0,10.72h13.62v3.94h-13.62v-3.94Zm0,10.72h13.62v3.94h-13.62v-3.94Zm0,10.72h13.62v3.94h-13.62v-3.94Zm0,10.72h13.62v3.94h-13.62v-3.94Zm0,10.72h13.62v3.94h-13.62v-3.94Zm0,10.72h13.62v3.94h-13.62v-3.94Zm0,10.72h13.62v3.94h-13.62v-3.94Zm0,10.72h13.62v4.18h-13.62v-4.18Zm-13.18,12.5h26.9v4.52h-26.9v-4.52Zm0,9.13h26.9v4.52h-26.9v-4.52Zm2.67,18.89h79.51v14.61h-79.51v-14.61Zm-111.27-55.44h11.28v5.5h-11.28v-5.5Zm0,10.02h11.28v5.83h-11.28v-5.83Zm0,10.36h11.28v5.83h-11.28v-5.83Zm0,10.36h11.28v5.83h-11.28v-5.83Zm0,10.36h11.28v5.83h-11.28v-5.83Zm0,10.36h11.28v5.83h-11.28v-5.83Zm11.28,10.36v8.24h-11.28v-8.24h11.28Zm-44.2-61.8h30.66v5.5h-30.66v-5.5Zm0,10.02h30.66v5.83h-30.66v-5.83Zm0,10.36h30.66v5.83h-30.66v-5.83Zm0,10.36h30.66v5.83h-30.66v-5.83Zm0,10.36h30.66v5.83h-30.66v-5.83Zm0,10.36h30.66v5.83h-30.66v-5.83Zm30.66,10.36v8.24h-30.66v-8.24h30.66Zm-44.69-61.8h11.77v5.5h-11.77v-5.5Zm0,10.02h11.77v5.83h-11.77v-5.83Zm0,10.36h11.77v5.83h-11.77v-5.83Zm0,10.36h11.77v5.83h-11.77v-5.83Zm0,10.36h11.77v5.83h-11.77v-5.83Zm0,10.36h11.77v5.83h-11.77v-5.83Zm0,10.36h11.77v8.24h-11.77v-8.24Zm-314.97-96.27h13.48v6.4h-13.48v-6.4Zm0,10.92h13.48v6.61h-13.48v-6.61Zm0,11.13h13.48v6.61h-13.48v-6.61Zm0,11.13h13.48v6.61h-13.48v-6.61Zm0,11.13h13.48v6.61h-13.48v-6.61Zm0,22.26h13.48v6.4h-13.48v-6.4Zm-17.35-55.66h15.09v6.61h-15.09v-6.61Zm0,22.26h15.09v6.61h-15.09v-6.61Zm0,11.13h15.09v6.61h-15.09v-6.61Zm0,11.13h15.09v6.61h-15.09v-6.61Zm0,11.13h15.09v6.4h-15.09v-6.4Zm-15.74-66.58h13.48v6.4h-13.48v-6.4Zm0,10.92h13.48v6.61h-13.48v-6.61Zm0,11.13h13.48v6.61h-13.48v-6.61Zm0,22.26h13.48v6.61h-13.48v-6.61Zm0,11.13h13.48v6.61h-13.48v-6.61Zm0,34.62h46.58v14.44h-46.58v-14.44Zm-230.53-55.61h11.28v5.5h-11.28v-5.5Zm0,10.02h11.28v5.83h-11.28v-5.83Zm0,10.36h11.28v5.83h-11.28v-5.83Zm0,10.36h11.28v5.83h-11.28v-5.83Zm0,10.36h11.28v5.83h-11.28v-5.83Zm0,10.36h11.28v5.83h-11.28v-5.83Zm11.28,10.36v8.24h-11.28v-8.24h11.28Zm-44.2-61.8h30.66v5.5h-30.66v-5.5Zm0,10.02h30.66v5.83h-30.66v-5.83Zm0,10.36h30.66v5.83h-30.66v-5.83Zm0,10.36h30.66v5.83h-30.66v-5.83Zm0,10.36h30.66v5.83h-30.66v-5.83Zm0,10.36h30.66v5.83h-30.66v-5.83Zm30.66,10.36v8.24h-30.66v-8.24h30.66Zm-44.69-61.8h11.77v5.5h-11.77v-5.5Zm0,10.02h11.77v5.83h-11.77v-5.83Zm0,10.36h11.77v5.83h-11.77v-5.83Zm0,10.36h11.77v5.83h-11.77v-5.83Zm0,10.36h11.77v5.83h-11.77v-5.83Zm0,10.36h11.77v5.83h-11.77v-5.83Zm0,10.36h11.77v8.24h-11.77v-8.24Z"/></g></g></svg>