<svg xmlns="http://www.w3.org/2000/svg" viewBox="0 0 1536.97 240.45"><path d="M1240.29,185v-1.65h5.4v7.45h-8.77c-1.08,0-1.89-.29-2.45-.86-.46-.48-.68-1.09-.68-1.84v-7.87c0-.9,.34-1.59,1.03-2.07,.55-.39,1.22-.58,2-.58h8.52l-.02,1.56h-7.47c-.49,0-.87,.15-1.15,.45-.27,.3-.41,.66-.41,1.1v6.8c0,1.16,.57,1.74,1.7,1.74h5.31v-4.23h-3.02Z"/><path d="M1258.51,183.7l.02,3.02h-7.31l.02,1.35c0,.81,.5,1.21,1.49,1.21l5.21,.02-.02,1.61-6.33-.03c-.82-.01-1.48-.27-1.98-.76-.5-.5-.75-1.16-.75-1.99v-4.33c0-.72,.3-1.33,.91-1.81,.54-.42,1.13-.63,1.77-.63l4.7,.04c.68,0,1.23,.21,1.65,.63,.42,.42,.63,.98,.63,1.68Zm-2.24,1.63v-1.46c0-.4-.07-.66-.22-.79-.15-.13-.41-.2-.78-.21-.57-.01-1.55-.02-2.93-.02-.75,0-1.12,.36-1.12,1.09v1.39h5.05Z"/><path d="M1262.59,182c.51-.42,1.09-.63,1.74-.63h6.21v1.56l-5.12-.04c-.83,0-1.24,.36-1.24,1.09l.02,3.98c0,.92,.5,1.39,1.49,1.39l4.77,.02-.02,1.54-5.89-.03c-.83-.01-1.51-.27-2.03-.77-.53-.5-.79-1.17-.79-2v-4.3c0-.74,.29-1.34,.88-1.81Z"/><polygon points="1282.27 181.82 1278.43 184.84 1282.81 190.54 1282.81 190.85 1280.16 190.85 1276.76 186.14 1275.78 186.96 1275.78 190.89 1273.47 190.89 1273.47 177.21 1275.8 177.21 1275.8 185.09 1280.22 181.54 1282.34 181.54 1282.27 181.82"/><path d="M1292.67,181.35c.64,0,1.2,.2,1.68,.61,.55,.44,.82,1.03,.82,1.77v4.49c0,.83-.25,1.49-.74,1.98s-1.15,.74-1.96,.74h-4.65c-.82,0-1.48-.25-1.98-.75-.5-.5-.75-1.17-.75-2v-4.4c0-.74,.27-1.34,.82-1.81,.5-.42,1.07-.63,1.7-.63h5.05Zm.16,6.63v-4c0-.72-.41-1.09-1.23-1.09h-2.88c-.84,0-1.26,.36-1.26,1.09l.02,4c0,.91,.5,1.37,1.49,1.39h2.37c.99-.01,1.49-.47,1.49-1.39Z"/><path d="M1305.49,189.29l.04-7.87h2.31l-.02,9.45-6.79-.02c-.83,0-1.49-.26-1.98-.79-.49-.53-.74-1.2-.74-2.03l-.02-6.59h2.31l-.02,6.36c0,.99,.41,1.49,1.23,1.49h3.66Z"/><path data-svg="BackgroundCity" d="M0,239.95H98.37v-105.99h16.15v-9.54h19.82v9.54h16.15v105.99h12.99v-77.62h74v77.62h29.45c1.31-2.64,1.95-8.98,2.25-14.49-3.54-1.16-6.66-3.6-8.43-7.33h0c-12.67,1.28-20.94-12.02-13.41-21.57-7.53-9.55,.74-22.85,13.41-21.57h0c5.14-10.83,21.68-10.83,26.83,0h0c12.67-1.28,20.94,12.02,13.41,21.57,7.53,9.55-.74,22.85-13.41,21.57h0c-1.77,3.73-4.89,6.17-8.43,7.33,.31,5.51,.94,11.85,2.25,14.49h48.96c1.31-2.64,1.95-8.98,2.25-14.49-3.54-1.16-6.66-3.6-8.43-7.33h0c-12.67,1.28-20.94-12.02-13.41-21.57-7.53-9.55,.74-22.85,13.41-21.57h0c5.14-10.83,21.68-10.83,26.83,0h0c12.67-1.28,20.94,12.02,13.41,21.57,7.53,9.55-.74,22.85-13.41,21.57h0c-1.77,3.73-4.89,6.17-8.43,7.33,.31,5.51,.94,11.85,2.25,14.49h29.8v-23.81h15.24v-3.85h-15.24v-6.54h15.24v-3.85h-15.24v-6.38h15.24v-3.85h-15.24v-6.54h15.24v-3.85h-15.24v-5.89h15.24v-3.85h-15.24v-6.54h15.24v-3.85h-15.24v-6.38h15.24v-3.85h-15.24v-6.54h15.24v-3.85h-15.24v-19.95h33.44v9.13h20.72v110.26h8.93V123.01h11.09v3.01h46.22v-3.01h11.09v116.95h15.62V76.06h18.36v-28.79h46.54v28.79h125.39V239.95h32.99c1.31-2.64,1.95-8.98,2.25-14.49-3.54-1.16-6.66-3.6-8.43-7.33h0c-12.67,1.28-20.94-12.02-13.41-21.57-7.53-9.55,.74-22.85,13.41-21.57h0c5.14-10.83,21.68-10.83,26.83,0h0c12.67-1.28,20.94,12.02,13.41,21.57,7.53,9.55-.74,22.85-13.41,21.57h0c-1.77,3.73-4.89,6.17-8.43,7.33,.31,5.51,.94,11.85,2.25,14.49h29.58v-77.62h74v77.62h8.78V101.78l60.12-26.34V239.95h13.51v-50.89h9.26V.5h79.39V189.06h9.26v50.89h9.74V123.01h11.09v3.01h46.22v-3.01h11.09v116.95h20.08v-71.99h7.18v-7.09h18.27v7.09h7.18v17.03h10.02v-17.03h7.18v-7.09h18.27v7.09h7.18v71.99h7.65v-70.36h92.67v70.36h31.73c1.31-2.64,1.95-8.98,2.25-14.49-3.54-1.16-6.66-3.6-8.43-7.33h0c-12.67,1.28-20.94-12.02-13.41-21.57-7.53-9.55,.74-22.85,13.41-21.57h0c5.14-10.83,21.68-10.83,26.82,0h0c12.67-1.28,20.94,12.02,13.41,21.57,7.53,9.55-.74,22.85-13.41,21.57h0c-1.77,3.73-4.89,6.17-8.43,7.33,.31,5.51,.94,11.85,2.25,14.49h48.63c1.31-2.64,1.95-8.98,2.25-14.49-3.54-1.16-6.66-3.6-8.43-7.33h0c-12.67,1.28-20.94-12.02-13.41-21.57-7.53-9.55,.74-22.85,13.41-21.57h0c5.14-10.83,21.68-10.83,26.83,0h0c12.67-1.28,20.94,12.02,13.41,21.57,7.53,9.55-.74,22.85-13.41,21.57h0c-1.77,3.73-4.89,6.17-8.43,7.33,.31,5.51,.94,11.85,2.25,14.49h110.55m-334.44-66.13v11.11h7.6v-11.11h-7.6Zm0,17.89v10.92h7.6v-10.92h-7.6Zm0,17.7v11.11h7.6v-11.11h-7.6Zm-12.12-35.6v11.11h7.6v-11.11h-7.6Zm0,17.89v10.92h7.6v-10.92h-7.6Zm0,17.7v11.11h7.6v-11.11h-7.6Zm-30.03-35.6v11.11h7.6v-11.11h-7.6Zm0,17.89v10.92h7.6v-10.92h-7.6Zm0,17.7v11.11h7.6v-11.11h-7.6Zm-12.12-35.6v11.11h7.6v-11.11h-7.6Zm0,17.89v10.92h7.6v-10.92h-7.6Zm0,17.7v11.11h7.6v-11.11h-7.6Zm-232.05-103.45v111.1h6.68V105.97h-6.68Zm-27.43,0v6.16h8.4v-6.16h-8.4Zm0,16.33v5.9h8.4v-5.9h-8.4Zm0,8.04v5.9h8.4v-5.9h-8.4Zm0,16.07v5.9h8.4v-5.9h-8.4Zm0,8.04v5.9h8.4v-5.9h-8.4Zm0,16.07v5.9h8.4v-5.9h-8.4Zm0,8.04v5.9h8.4v-5.9h-8.4Zm0,8.04v5.9h8.4v-5.9h-8.4Zm0,8.04v5.9h8.4v-5.9h-8.4Zm0,16.07v6.38h8.4v-6.38h-8.4Zm-10.66-96.43v5.9h8.4v-5.9h-8.4Zm0,8.04v5.9h8.4v-5.9h-8.4Zm0,8.04v5.9h8.4v-5.9h-8.4Zm0,8.04v5.9h8.4v-5.9h-8.4Zm0,16.07v5.9h8.4v-5.9h-8.4Zm0,16.07v5.9h8.4v-5.9h-8.4Zm0,8.04v5.9h8.4v-5.9h-8.4Zm0,16.07v5.9h8.4v-5.9h-8.4Zm0,8.04v5.9h8.4v-5.9h-8.4Zm0,8.04v6.38h8.4v-6.38h-8.4Zm-226.25-3h22.95v-5.74h-22.95v5.74Zm27.47-117.68v4.78h23.93v-4.78h-23.93Zm0,9.3v5.74h23.93v-5.74h-23.93Zm0,20.53v5.74h23.93v-5.74h-23.93Zm0,10.26v5.74h23.93v-5.74h-23.93Zm0,10.26v5.74h23.93v-5.74h-23.93Zm0,10.26v5.74h23.93v-5.74h-23.93Zm0,20.53v5.74h23.93v-5.74h-23.93Zm0,10.26v5.74h23.93v-5.74h-23.93Zm0,10.26v5.74h23.93v-5.74h-23.93Zm0,10.26v5.74h23.93v-5.74h-23.93Zm-27.48-111.94v4.78h22.96v-4.78h-22.96Zm0,9.3v5.74h22.96v-5.74h-22.96Zm0,10.26v5.74h22.96v-5.74h-22.96Zm0,10.26v5.74h22.96v-5.74h-22.96Zm0,20.53v5.74h22.96v-5.74h-22.96Zm0,10.26v5.74h22.96v-5.74h-22.96Zm0,10.26v5.74h22.96v-5.74h-22.96Zm0,10.26v5.74h22.96v-5.74h-22.96Zm0,10.26v5.74h22.96v-5.74h-22.96Zm-28.33-91.41v4.78h19.47v-4.78h-19.47Zm0,9.3v5.74h19.47v-5.74h-19.47Zm0,10.26v5.74h19.47v-5.74h-19.47Zm0,10.26v5.74h19.47v-5.74h-19.47Zm0,10.26v5.74h19.47v-5.74h-19.47Zm0,10.26v5.74h19.47v-5.74h-19.47Zm0,10.26v5.74h19.47v-5.74h-19.47Zm0,10.26v5.74h19.47v-5.74h-19.47Zm0,10.26v5.74h19.47v-5.74h-19.47Zm0,10.26v5.74h19.47v-5.74h-19.47Zm0,10.26v5.74h19.47v-5.74h-19.47Zm-32.87-101.67v4.78h19.47v-4.78h-19.47Zm0,19.56v5.74h19.47v-5.74h-19.47Zm0,10.26v5.74h19.47v-5.74h-19.47Zm0,10.26v5.74h19.47v-5.74h-19.47Zm0,10.26v5.74h19.47v-5.74h-19.47Zm0,10.26v5.74h19.47v-5.74h-19.47Zm0,20.53v5.74h19.47v-5.74h-19.47Zm0,10.26v5.74h19.47v-5.74h-19.47Zm0,10.26v5.74h19.47v-5.74h-19.47Zm0,10.26v5.74h19.47v-5.74h-19.47Zm-31.82-111.94v4.78h22.96v-4.78h-22.96Zm0,9.3v5.74h22.96v-5.74h-22.96Zm0,10.26v5.74h22.96v-5.74h-22.96Zm0,10.26v5.74h22.96v-5.74h-22.96Zm0,10.26v5.74h22.96v-5.74h-22.96Zm0,20.53v5.74h22.96v-5.74h-22.96Zm0,10.26v5.74h22.96v-5.74h-22.96Zm0,10.26v5.74h22.96v-5.74h-22.96Zm0,10.26v5.74h22.96v-5.74h-22.96Zm0,20.53v5.74h22.96v-5.74h-22.96Zm-28.45-111.94v4.78h23.93v-4.78h-23.93Zm0,19.56v5.74h23.93v-5.74h-23.93Zm0,10.26v5.74h23.93v-5.74h-23.93Zm0,10.26v5.74h23.93v-5.74h-23.93Zm0,10.26v5.74h23.93v-5.74h-23.93Zm0,10.26v5.74h23.93v-5.74h-23.93Zm0,10.26v5.74h23.93v-5.74h-23.93Zm0,10.26v5.74h23.93v-5.74h-23.93Zm0,20.53v5.74h23.93v-5.74h-23.93Zm0,10.26v5.74h23.93v-5.74h-23.93Zm-138.84-61.44v3.85h20.3v-3.85h-20.3Zm0,10.39v3.85h20.3v-3.85h-20.3Zm0,10.24v3.85h20.3v-3.85h-20.3Zm0,10.39v3.85h20.3v-3.85h-20.3Zm0,9.74v3.85h20.3v-3.85h-20.3Zm0,10.39v3.85h20.3v-3.85h-20.3Zm0,10.24v3.85h20.3v-3.85h-20.3Zm0,10.39v3.85h20.3v-3.85h-20.3Zm-254.33-69.89v6.03h7.63v-6.03h-7.63Zm0,11.52v6.03h7.63v-6.03h-7.63Zm0,11.52v6.03h7.63v-6.03h-7.63Zm0,11.52v6.03h7.63v-6.03h-7.63Zm0,11.52v6.03h7.63v-6.03h-7.63Zm0,11.52v6.03h7.63v-6.03h-7.63Zm-6.12-57.58v6.03h2.99v-6.03h-2.99Zm0,11.52v6.03h2.99v-6.03h-2.99Zm0,11.52v6.03h2.99v-6.03h-2.99Zm0,11.52v6.03h2.99v-6.03h-2.99Zm0,11.52v6.03h2.99v-6.03h-2.99Zm0,11.52v6.03h2.99v-6.03h-2.99Zm-16.38-57.58v6.03h2.99v-6.03h-2.99Zm0,11.52v6.03h2.99v-6.03h-2.99Zm0,11.52v6.03h2.99v-6.03h-2.99Zm0,11.52v6.03h2.99v-6.03h-2.99Zm0,11.52v6.03h2.99v-6.03h-2.99Zm0,11.52v6.03h2.99v-6.03h-2.99Zm-10.76-57.58v6.03h7.63v-6.03h-7.63Zm0,11.52v6.03h7.63v-6.03h-7.63Zm0,11.52v6.03h7.63v-6.03h-7.63Zm0,11.52v6.03h7.63v-6.03h-7.63Zm0,11.52v6.03h7.63v-6.03h-7.63Zm0,11.52v6.03h7.63v-6.03h-7.63Zm1204.86,11.48h-22.5v6.78h22.5v-6.78Zm-22.5-3.63h22.5v-6.78h-22.5v6.78Zm-58.02-34.68v21.87h84.98v-21.87h-84.98Zm28.44,34.68h28.09v-6.78h-28.09v6.78Zm28.09,3.63h-28.09v6.78h28.09v-6.78Zm-52.07-3.63h22.5v-6.78h-22.5v6.78Zm22.5,3.63h-22.5v6.78h22.5v-6.78Zm-23.24,13.24v15.26h76.05v-15.26h-76.05Zm-134.95-89.25v6.4h13.48v-6.4h-13.48Zm0,10.92v6.61h13.48v-6.61h-13.48Zm0,11.13v6.61h13.48v-6.61h-13.48Zm0,11.13v6.61h13.48v-6.61h-13.48Zm0,11.13v6.61h13.48v-6.61h-13.48Zm0,22.26v6.4h13.48v-6.4h-13.48Zm-17.35-55.66v6.61h15.09v-6.61h-15.09Zm0,22.26v6.61h15.09v-6.61h-15.09Zm0,11.13v6.61h15.09v-6.61h-15.09Zm0,11.13v6.61h15.09v-6.61h-15.09Zm0,11.13v6.4h15.09v-6.4h-15.09Zm-15.74-66.58v6.4h13.48v-6.4h-13.48Zm0,10.92v6.61h13.48v-6.61h-13.48Zm0,11.13v6.61h13.48v-6.61h-13.48Zm0,22.26v6.61h13.48v-6.61h-13.48Zm0,11.13v6.61h13.48v-6.61h-13.48Zm0,34.62v14.44h46.58v-14.44h-46.58Zm-27.44-14.7v-4.52h-26.9v4.52h26.9Zm0-13.65h-26.9v4.52h26.9v-4.52Zm-13.18-162.47h-13.62v3.94h13.62v-3.94Zm-13.62-6.78h13.62v-3.94h-13.62v3.94Zm13.62,17.51h-13.62v3.94h13.62v-3.94Zm0,10.72h-13.62v3.94h13.62v-3.94Zm0,10.72h-13.62v3.94h13.62v-3.94Zm0,10.72h-13.62v3.94h13.62v-3.94Zm0,10.72h-13.62v3.94h13.62v-3.94Zm0,10.72h-13.62v3.94h13.62v-3.94Zm0,10.72h-13.62v3.94h13.62v-3.94Zm0,10.72h-13.62v3.94h13.62v-3.94Zm0,10.72h-13.62v3.94h13.62v-3.94Zm0,10.72h-13.62v3.94h13.62v-3.94Zm0,10.72h-13.62v3.94h13.62v-3.94Zm0,10.72h-13.62v3.94h13.62v-3.94Zm0,10.72h-13.62v3.94h13.62v-3.94Zm0,10.72h-13.62v4.18h13.62v-4.18ZM965.38,12.67v4.52h57.99v-4.52h-57.99Zm24.92,165.37h8.14v-3.94h-8.14v3.94Zm8.14,6.78h-8.14v4.18h8.14v-4.18Zm-8.14-17.51h8.14v-3.94h-8.14v3.94Zm0-10.72h8.14v-3.94h-8.14v3.94Zm0-10.72h8.14v-3.94h-8.14v3.94Zm0-10.72h8.14v-3.94h-8.14v3.94Zm0-10.72h8.14v-3.94h-8.14v3.94Zm0-10.72h8.14v-3.94h-8.14v3.94Zm0-10.72h8.14v-3.94h-8.14v3.94Zm0-10.72h8.14v-3.94h-8.14v3.94Zm0-10.72h8.14v-3.94h-8.14v3.94Zm0-10.72h8.14v-3.94h-8.14v3.94Zm0-10.72h8.14v-3.94h-8.14v3.94Zm0-10.72h8.14v-3.94h-8.14v3.94Zm0-10.72h8.14v-3.94h-8.14v3.94Zm0-10.72h8.14v-3.94h-8.14v3.94Zm-24.92-3.94v3.94h13.62v-3.94h-13.62Zm0,10.72v3.94h13.62v-3.94h-13.62Zm0,10.72v3.94h13.62v-3.94h-13.62Zm0,10.72v3.94h13.62v-3.94h-13.62Zm0,10.72v3.94h13.62v-3.94h-13.62Zm0,10.72v3.94h13.62v-3.94h-13.62Zm0,10.72v3.94h13.62v-3.94h-13.62Zm0,10.72v3.94h13.62v-3.94h-13.62Zm0,10.72v3.94h13.62v-3.94h-13.62Zm0,10.72v3.94h13.62v-3.94h-13.62Zm0,10.72v3.94h13.62v-3.94h-13.62Zm0,10.72v3.94h13.62v-3.94h-13.62Zm0,10.72v3.94h13.62v-3.94h-13.62Zm0,10.72v3.94h13.62v-3.94h-13.62Zm0,10.72v3.94h13.62v-3.94h-13.62Zm0,10.72v4.18h13.62v-4.18h-13.62Zm-13.18,12.5v4.52h26.9v-4.52h-26.9Zm0,9.13v4.52h26.9v-4.52h-26.9Zm2.67,18.89v14.61h79.51v-14.61h-79.51Zm-111.27-55.44v5.5h11.28v-5.5h-11.28Zm0,10.02v5.83h11.28v-5.83h-11.28Zm0,10.36v5.83h11.28v-5.83h-11.28Zm0,10.36v5.83h11.28v-5.83h-11.28Zm0,10.36v5.83h11.28v-5.83h-11.28Zm0,10.36v5.83h11.28v-5.83h-11.28Zm11.28,10.36h-11.28v8.24h11.28v-8.24Zm-44.2-61.8v5.5h30.66v-5.5h-30.66Zm0,10.02v5.83h30.66v-5.83h-30.66Zm0,10.36v5.83h30.66v-5.83h-30.66Zm0,10.36v5.83h30.66v-5.83h-30.66Zm0,10.36v5.83h30.66v-5.83h-30.66Zm0,10.36v5.83h30.66v-5.83h-30.66Zm30.66,10.36h-30.66v8.24h30.66v-8.24Zm-44.69-61.8v5.5h11.77v-5.5h-11.77Zm0,10.02v5.83h11.77v-5.83h-11.77Zm0,10.36v5.83h11.77v-5.83h-11.77Zm0,10.36v5.83h11.77v-5.83h-11.77Zm0,10.36v5.83h11.77v-5.83h-11.77Zm0,10.36v5.83h11.77v-5.83h-11.77Zm0,10.36v8.24h11.77v-8.24h-11.77Zm-314.97-96.27v6.4h13.48v-6.4h-13.48Zm0,10.92v6.61h13.48v-6.61h-13.48Zm0,11.13v6.61h13.48v-6.61h-13.48Zm0,11.13v6.61h13.48v-6.61h-13.48Zm0,11.13v6.61h13.48v-6.61h-13.48Zm0,22.26v6.4h13.48v-6.4h-13.48Zm-17.35-55.66v6.61h15.09v-6.61h-15.09Zm0,22.26v6.61h15.09v-6.61h-15.09Zm0,11.13v6.61h15.09v-6.61h-15.09Zm0,11.13v6.61h15.09v-6.61h-15.09Zm0,11.13v6.4h15.09v-6.4h-15.09Zm-15.74-66.58v6.4h13.48v-6.4h-13.48Zm0,10.92v6.61h13.48v-6.61h-13.48Zm0,11.13v6.61h13.48v-6.61h-13.48Zm0,22.26v6.61h13.48v-6.61h-13.48Zm0,11.13v6.61h13.48v-6.61h-13.48Zm0,34.62v14.44h46.58v-14.44h-46.58Zm-230.53-55.61v5.5h11.28v-5.5h-11.28Zm0,10.02v5.83h11.28v-5.83h-11.28Zm0,10.36v5.83h11.28v-5.83h-11.28Zm0,10.36v5.83h11.28v-5.83h-11.28Zm0,10.36v5.83h11.28v-5.83h-11.28Zm0,10.36v5.83h11.28v-5.83h-11.28Zm11.28,10.36h-11.28v8.24h11.28v-8.24Zm-44.2-61.8v5.5h30.66v-5.5h-30.66Zm0,10.02v5.83h30.66v-5.83h-30.66Zm0,10.36v5.83h30.66v-5.83h-30.66Zm0,10.36v5.83h30.66v-5.83h-30.66Zm0,10.36v5.83h30.66v-5.83h-30.66Zm0,10.36v5.83h30.66v-5.83h-30.66Zm30.66,10.36h-30.66v8.24h30.66v-8.24Zm-44.69-61.8v5.5h11.77v-5.5h-11.77Zm0,10.02v5.83h11.77v-5.83h-11.77Zm0,10.36v5.83h11.77v-5.83h-11.77Zm0,10.36v5.83h11.77v-5.83h-11.77Zm0,10.36v5.83h11.77v-5.83h-11.77Zm0,10.36v5.83h11.77v-5.83h-11.77Zm0,10.36v8.24h11.77v-8.24h-11.77Z"/></svg>