<svg id="gecko" xmlns="http://www.w3.org/2000/svg" viewBox="0 0 71.02 53.77"><path id="footprints" d="M48.47,37.84c-4.05-.9-4.43-3.52-3.59-5.54,4.42-10.64,10.37-15.21,11.61-19.35,2.45-8.16-5.59-8.7-10.23-2.76-5.57,7.14-3.18,12.44-5.53,18.11s-7,.6-9.68-17.56c-2.81-19.1-16.53-8.82-12.44,.97,3.87,9.26,6.84,5.02,10.04,17.42,.63,2.46-4.04,4.56-16.3-6.71-7.34-6.75-18.81,2.29-7.8,8.71,5.96,3.48,9.67,1.82,19.22,5.59,2.5,.99,1.84,2.7,0,3.14-2.2,.52-11.3,3.78-16.53,3.36-7.15-.57-6.26,15.56,10.39,8.96,8.06-3.19,6.48-7.51,16.99-8,5.29-.25,15.9,4.71,19.38,6.75,7.09,4.15,16.62,1.51,17-3.65,.25-3.43-11.71-7.04-22.54-9.45Z"/></svg>