<svg xmlns="http://www.w3.org/2000/svg" viewBox="0 0 1536.04 212.47"><path data-svg="BackgroundForest" d="M0,211.97H112.59c-2.07-3.01-2.99-5.54-2.99-5.54,0,0,3.1,.25,6.91,1.7-.55-4.56,.18-8.12,.18-8.12,0,0,2.35,1.71,4.77,4.75,1-5.39,3.5-9.28,3.5-9.28,0,0,2.65,4.12,3.58,9.75,2.53-3.33,5.13-5.22,5.13-5.22,0,0,.72,3.56,.18,8.12,3.81-1.45,6.91-1.7,6.91-1.7,0,0-.92,2.54-2.99,5.54h7.79c2.36-6.8,3.48-22.53,4.01-35.96-6.03,3.27-13.21,5.62-21.65,6.05,4.55-5.19,5.68-8.64,5.68-8.64,0,0-6.82,3.46-17.05,3.46,4.55-3.46,6.82-8.64,6.82-8.64,0,0-6.82,3.46-14.77,1.73,8.94-5.83,16.89-14.38,23.7-23.67-2.27,.53-5.12,.96-8.4,.96,3.75-2.85,5.63-7.13,5.63-7.13,0,0-5.63,2.85-12.19,1.43,7.93-5.17,14.93-12.95,20.82-21.28-1.55,.31-3.41,.55-5.5,.55,2.81-2.13,4.21-5.34,4.21-5.34,0,0-4.21,2.13-9.12,1.07,16.88-11.01,28.06-37.77,30.86-45.07,2.81,7.3,13.98,34.06,30.86,45.07-4.91,1.07-9.12-1.07-9.12-1.07,0,0,1.4,3.2,4.21,5.34-2.09,0-3.95-.23-5.5-.55,5.89,8.33,12.88,16.11,20.82,21.28-6.57,1.43-12.19-1.43-12.19-1.43,0,0,1.88,4.28,5.63,7.13-3.28,0-6.14-.43-8.4-.96,6.81,9.29,14.76,17.84,23.7,23.67-7.95,1.73-14.77-1.73-14.77-1.73,0,0,2.27,5.19,6.82,8.64-10.23,0-17.05-3.46-17.05-3.46,0,0,1.14,3.46,5.68,8.64-8.44-.43-15.62-2.77-21.65-6.05,.53,13.43,1.65,29.17,4.01,35.96h8.92c-.24-1.52,.28-3.13,1.81-4.11h0c-3.52-2.33-2.18-7.65,1.96-7.81-1.94-3.72,1.92-7.56,5.67-5.63,.15-4.11,5.51-5.44,7.86-1.95,2.21-3.4,7.62-1.86,7.94,2.26h0c3.67-1.78,7.69,2.22,5.9,5.86,.04,0,.07,.01,.11,.02,.96-1.57,3.23-2.34,5.15-1.19,1.2-2.88,5.58-2.88,6.78,0,2.79-1.68,6.33,.72,5.48,3.71h0c3.32,.17,4.67,4.05,2.09,6,1,.76,1.4,1.81,1.33,2.82h10.74c1.32-4.77,2.07-14.66,2.49-24.29-4.05,2.59-8.84,4.44-14.47,4.78,3.08-4.23,3.85-7.04,3.85-7.04,0,0-4.63,2.82-11.56,2.82,3.08-2.82,4.63-7.04,4.63-7.04,0,0-4.63,2.82-10.02,1.41,4.72-3.7,9.03-8.74,12.89-14.36-1.99,.48-4.63,.92-7.75,.92,3.11-2.19,4.67-5.48,4.67-5.48,0,0-4.67,2.19-10.11,1.1,18.72-11.31,31.11-38.8,34.22-46.3,3.11,7.5,15.5,34.99,34.22,46.3-5.44,1.1-10.11-1.1-10.11-1.1,0,0,1.56,3.29,4.67,5.48-3.12,0-5.77-.43-7.75-.92,3.86,5.62,8.17,10.66,12.89,14.36-5.4,1.41-10.02-1.41-10.02-1.41,0,0,1.54,4.23,4.63,7.04-6.94,0-11.56-2.82-11.56-2.82,0,0,.77,2.82,3.85,7.04-5.62-.34-10.42-2.19-14.47-4.78,.42,9.63,1.17,19.52,2.49,24.29h30.59c-.05-.92,.32-1.87,1.23-2.56-2.37-1.8-1.12-5.37,1.93-5.53-.78-2.75,2.48-4.96,5.05-3.42h0c1.1-2.66,5.14-2.66,6.24,0,2.57-1.55,5.83,.66,5.05,3.42,3.05,.16,4.3,3.73,1.93,5.53,.91,.69,1.28,1.64,1.23,2.56h9.03c2.06-6.01,3.04-19.79,3.51-31.57-5.31,2.88-11.62,4.94-19.04,5.32,4-4.56,5-7.6,5-7.6,0,0-6,3.04-14.99,3.04,4-3.04,6-7.6,6-7.6,0,0-6,3.04-12.99,1.52,7.86-5.12,14.85-12.65,20.84-20.81-1.99,.46-4.5,.84-7.39,.84,3.3-2.51,4.95-6.27,4.95-6.27,0,0-4.95,2.51-10.72,1.25,6.98-4.55,13.13-11.39,18.31-18.72-1.37,.28-3,.48-4.84,.48,2.47-1.88,3.7-4.69,3.7-4.69,0,0-3.7,1.88-8.02,.94,14.85-9.68,24.67-33.21,27.14-39.63,2.47,6.42,12.29,29.95,27.14,39.63-4.32,.94-8.02-.94-8.02-.94,0,0,1.23,2.82,3.7,4.69-1.84,0-3.47-.21-4.84-.48,5.18,7.33,11.33,14.17,18.31,18.72-5.77,1.25-10.72-1.25-10.72-1.25,0,0,1.65,3.76,4.95,6.27-2.89,0-5.4-.38-7.39-.84,5.99,8.17,12.98,15.69,20.84,20.81-7,1.52-12.99-1.52-12.99-1.52,0,0,2,4.56,6,7.6-8.99,0-14.99-3.04-14.99-3.04,0,0,1,3.04,5,7.6-7.42-.38-13.74-2.44-19.04-5.32,.47,11.77,1.45,25.56,3.51,31.57h24.29c-2.44-3.52-3.52-6.5-3.52-6.5,0,0,3.59,.29,8,1.97-.63-5.28,.21-9.41,.21-9.41,0,0,2.73,1.98,5.52,5.5,1.16-6.25,4.05-10.75,4.05-10.75,0,0,3.07,4.77,4.15,11.3,2.94-3.85,5.94-6.04,5.94-6.04,0,0,.84,4.12,.21,9.41,4.41-1.68,8-1.97,8-1.97,0,0-1.08,2.98-3.52,6.5h28.09c2.12-6.98,3.36-21.44,4.08-35.94-8.09,4.9-17.82,8.46-29.36,9.08,5.92-7.2,7.4-12.01,7.4-12.01,0,0-8.88,4.8-22.2,4.8,5.92-4.8,8.88-12.01,8.88-12.01,0,0-8.88,4.8-19.24,2.4,12.59-8.75,23.67-21.93,33-36.04-3.36,1.16-8.68,2.51-15.26,2.51,5.12-4.16,7.68-10.39,7.68-10.39,0,0-7.68,4.16-16.65,2.08,13.05-9.07,24.22-23.64,33.17-38.5-2.41,.92-6.74,2.19-12.26,2.19,3.83-3.11,5.75-7.77,5.75-7.77,0,0-5.75,3.11-12.45,1.55,9.84-6.84,18.25-17.86,24.97-29.07-1.63,.69-5.29,1.96-10.13,1.96,2.95-2.39,4.43-5.99,4.43-5.99,0,0-4.43,2.39-9.59,1.2,17.76-12.35,29.52-42.37,32.47-50.56,2.95,8.19,14.71,38.21,32.47,50.56-5.17,1.2-9.59-1.2-9.59-1.2,0,0,1.48,3.59,4.43,5.99-4.85,0-8.5-1.27-10.13-1.96,6.72,11.21,15.13,22.23,24.97,29.07-6.7,1.55-12.45-1.55-12.45-1.55,0,0,1.92,4.66,5.75,7.77-5.51,0-9.85-1.27-12.26-2.19,8.94,14.86,20.12,29.43,33.17,38.5-8.96,2.08-16.65-2.08-16.65-2.08,0,0,2.56,6.23,7.68,10.39-6.58,0-11.9-1.35-15.26-2.51,9.33,14.11,20.41,27.29,33,36.04-10.36,2.4-19.24-2.4-19.24-2.4,0,0,2.96,7.2,8.88,12.01-13.32,0-22.2-4.8-22.2-4.8,0,0,1.48,4.8,7.4,12.01-11.54-.62-21.26-4.18-29.36-9.08,.72,14.5,1.96,28.96,4.08,35.94h36.07c-.24-1.52,.28-3.13,1.81-4.11-3.52-2.33-2.18-7.65,1.96-7.81h0c-1.94-3.72,1.92-7.56,5.67-5.63,.15-4.11,5.51-5.44,7.86-1.95,2.21-3.4,7.62-1.86,7.94,2.26h0c3.67-1.78,7.69,2.22,5.9,5.86,4.15,.32,5.7,5.7,2.28,7.89,1.33,.88,1.96,2.18,2.01,3.48h16.56c2.14-5.53,2.73-20.27,2.89-28.03-1.34-.97-2.47-2.32-3.23-4.05-3.49,7.9-14.7,7.9-18.19,0-8.59,.93-14.2-8.78-9.09-15.75h0c-4.69-6.4-.34-15.11,7.05-15.77-2.54-6.43,2.38-13.85,9.7-13.51-2.21-6.51,3.02-13.83,10.53-13.01h0c3.49-7.9,14.7-7.9,18.19,0h0c7.51-.82,12.74,6.5,10.53,13.01,7.32-.34,12.24,7.08,9.7,13.51,7.39,.66,11.74,9.37,7.05,15.77h0c5.1,6.97-.5,16.68-9.09,15.75-3.49,7.9-14.7,7.9-18.19,0-.76,1.73-1.89,3.08-3.23,4.05,.16,7.76,.76,22.5,2.89,28.03h67.37c2.08-6.05,3.07-19.95,3.54-31.82-5.35,2.9-11.71,4.98-19.2,5.36,4.03-4.6,5.04-7.66,5.04-7.66,0,0-6.04,3.07-15.11,3.07,4.03-3.07,6.04-7.66,6.04-7.66,0,0-6.04,3.07-13.1,1.53,7.92-5.17,14.97-12.75,21.01-20.98-2.01,.47-4.54,.85-7.45,.85,3.33-2.53,4.99-6.32,4.99-6.32,0,0-4.99,2.53-10.81,1.26,7.03-4.59,13.23-11.48,18.46-18.87-1.38,.28-3.02,.49-4.88,.49,2.49-1.89,3.73-4.73,3.73-4.73,0,0-3.73,1.89-8.08,.95,14.97-9.76,24.87-33.48,27.36-39.95,2.49,6.47,12.39,30.19,27.36,39.95-4.35,.95-8.08-.95-8.08-.95,0,0,1.24,2.84,3.73,4.73-1.85,0-3.5-.21-4.88-.49,5.23,7.39,11.42,14.28,18.46,18.87-5.82,1.27-10.81-1.26-10.81-1.26,0,0,1.66,3.79,4.99,6.32-2.91,0-5.44-.38-7.45-.85,6.04,8.23,13.09,15.81,21.01,20.98-7.05,1.53-13.1-1.53-13.1-1.53,0,0,2.01,4.6,6.04,7.66-9.07,0-15.11-3.07-15.11-3.07,0,0,1.01,3.07,5.04,7.66-7.48-.38-13.85-2.46-19.2-5.36,.47,11.87,1.46,25.77,3.54,31.82h15.94c-.15-1.3,.34-2.68,1.62-3.67h0c-3.24-2.41-1.59-7.28,2.55-7.53-1.1-3.73,3.31-6.76,6.81-4.7h0c1.47-3.62,6.94-3.67,8.47-.08h0c3.47-2.13,7.93,.83,6.9,4.58,4.15,.18,5.88,5.01,2.68,7.48,1.4,1.04,1.87,2.53,1.65,3.91h24.78c2.51-7.22,3.7-23.99,4.27-38.29-6.42,3.48-14.05,5.98-23.03,6.43,4.84-5.52,6.04-9.2,6.04-9.2,0,0-7.25,3.68-18.13,3.68,4.84-3.68,7.25-9.2,7.25-9.2,0,0-7.25,3.68-15.72,1.84,9.51-6.2,17.97-15.3,25.21-25.18-2.41,.56-5.45,1.02-8.94,1.02,3.99-3.04,5.99-7.59,5.99-7.59,0,0-5.99,3.04-12.97,1.52,8.44-5.5,15.88-13.78,22.15-22.64-1.65,.33-3.63,.58-5.86,.58,2.98-2.27,4.48-5.68,4.48-5.68,0,0-4.48,2.27-9.7,1.14,17.96-11.71,29.85-40.18,32.83-47.94,2.99,7.77,14.87,36.23,32.83,47.94-5.22,1.14-9.7-1.14-9.7-1.14,0,0,1.49,3.41,4.48,5.68-2.23,0-4.2-.25-5.86-.58,6.27,8.86,13.71,17.14,22.15,22.64-6.98,1.52-12.97-1.52-12.97-1.52,0,0,2,4.55,5.99,7.59-3.49,0-6.53-.46-8.94-1.02,7.25,9.88,15.7,18.98,25.21,25.18-8.46,1.84-15.72-1.84-15.72-1.84,0,0,2.42,5.52,7.25,9.2-10.88,0-18.13-3.68-18.13-3.68,0,0,1.21,3.68,6.04,9.2-8.98-.46-16.62-2.95-23.03-6.43,.57,14.3,1.76,31.06,4.27,38.29h22.04c-2.44-3.52-3.52-6.5-3.52-6.5,0,0,3.59,.29,8,1.97-.63-5.28,.21-9.41,.21-9.41,0,0,2.73,1.98,5.52,5.5,1.16-6.25,4.05-10.75,4.05-10.75,0,0,3.07,4.77,4.15,11.3,2.94-3.85,5.94-6.04,5.94-6.04,0,0,.84,4.12,.21,9.41,4.41-1.68,8-1.97,8-1.97,0,0-1.08,2.98-3.52,6.5h14.78c1.32-4.77,2.07-14.66,2.49-24.29-4.05,2.59-8.84,4.44-14.47,4.78,3.08-4.23,3.85-7.04,3.85-7.04,0,0-4.63,2.82-11.56,2.82,3.08-2.82,4.63-7.04,4.63-7.04,0,0-4.63,2.82-10.02,1.41,4.72-3.7,9.03-8.74,12.89-14.36-1.99,.48-4.63,.92-7.75,.92,3.11-2.19,4.67-5.48,4.67-5.48,0,0-4.67,2.19-10.11,1.1,18.72-11.31,31.11-38.8,34.22-46.3,3.11,7.5,15.5,34.99,34.22,46.3-5.44,1.1-10.11-1.1-10.11-1.1,0,0,1.56,3.29,4.67,5.48-3.12,0-5.77-.43-7.75-.92,3.86,5.62,8.17,10.66,12.89,14.36-5.4,1.41-10.02-1.41-10.02-1.41,0,0,1.54,4.23,4.63,7.04-6.94,0-11.56-2.82-11.56-2.82,0,0,.77,2.82,3.85,7.04-5.62-.34-10.42-2.19-14.47-4.78,.42,9.63,1.17,19.52,2.49,24.29h62.35c1.64-3.77,2.44-11.94,2.84-19.09-4.77-1.56-8.98-4.86-11.36-9.88h0c-17.07,1.72-28.21-16.2-18.07-29.06h0c-10.14-12.86,1-30.78,18.07-29.06h0c6.93-14.59,29.21-14.59,36.14,0h0c17.07-1.72,28.21,16.2,18.07,29.06h0c10.14,12.86-1,30.78-18.07,29.06h0c-2.38,5.02-6.59,8.31-11.36,9.88,.4,7.14,1.2,15.32,2.84,19.09h54.78c1.2-3.39,1.72-10.99,1.94-16.96-11.2-1.65-19.68-9.57-19.68-20.84,0-12.71,10.78-26.7,24.08-26.7s24.08,13.99,24.08,26.7c0,11.27-8.49,19.19-19.68,20.84,.23,5.98,.75,13.57,1.94,16.96h34.56c-.24-1.52,.28-3.13,1.81-4.11-3.52-2.33-2.18-7.65,1.96-7.81h0c-1.94-3.72,1.92-7.56,5.67-5.63,.15-4.11,5.51-5.44,7.86-1.95,2.21-3.4,7.62-1.86,7.94,2.26h0c1.42-.69,2.89-.51,4.05,.18,.67-7.71,.96-16.03,1.08-21.67-1.84-1.34-3.39-3.19-4.44-5.56-4.79,10.87-20.21,10.87-25,0h0c-11.81,1.28-19.51-12.07-12.5-21.65h0c-6.44-8.8-.47-20.77,9.69-21.67-3.49-8.84,3.27-19.04,13.34-18.57-3.04-8.95,4.15-19.01,14.47-17.89h0c4.79-10.87,20.21-10.87,25,0h0c10.32-1.12,17.51,8.94,14.47,17.89,10.06-.47,16.83,9.73,13.34,18.57,10.16,.91,16.13,12.87,9.69,21.67h0c7.01,9.58-.69,22.93-12.5,21.65-4.79,10.87-20.21,10.87-25,0-1.05,2.37-2.6,4.23-4.44,5.56,.23,10.76,1.05,31.28,4.05,38.72h69.17c1.22-4.43,1.91-13.56,2.29-22.45-3.74,2.4-8.18,4.11-13.39,4.42,2.85-3.91,3.57-6.52,3.57-6.52,0,0-4.28,2.61-10.7,2.61,2.85-2.61,4.28-6.52,4.28-6.52,0,0-4.28,2.61-9.27,1.3,4.37-3.42,8.36-8.09,11.93-13.29-1.84,.45-4.29,.85-7.17,.85,2.88-2.03,4.32-5.07,4.32-5.07,0,0-4.32,2.03-9.36,1.01,17.33-10.47,28.79-35.91,31.67-42.85,2.88,6.94,14.35,32.38,31.67,42.85-5.04,1.01-9.36-1.01-9.36-1.01,0,0,1.44,3.04,4.32,5.07-2.88,0-5.34-.4-7.17-.85,3.57,5.2,7.56,9.87,11.93,13.29-4.99,1.3-9.28-1.3-9.28-1.3,0,0,1.43,3.91,4.28,6.52-6.42,0-10.7-2.61-10.7-2.61,0,0,.71,2.61,3.57,6.52-5.2-.32-9.64-2.02-13.39-4.42,.39,8.89,1.07,18.01,2.29,22.45h66.33c2.34-5.98,2.98-22.07,3.16-30.53-1.45-1.06-2.68-2.52-3.51-4.4-3.79,8.6-15.99,8.6-19.78,0h0c-9.34,1.02-15.44-9.55-9.89-17.13-5.1-6.96-.37-16.43,7.67-17.15-2.76-6.99,2.59-15.06,10.55-14.69-2.4-7.08,3.28-15.04,11.45-14.15h0c3.79-8.6,15.99-8.6,19.78,0,8.16-.89,13.85,7.07,11.45,14.15,7.96-.37,13.31,7.7,10.55,14.69,8.04,.72,12.77,10.19,7.67,17.15,5.55,7.58-.55,18.15-9.89,17.13-3.79,8.6-15.99,8.6-19.78,0-.83,1.88-2.06,3.34-3.51,4.4,.18,8.46,.83,24.55,3.16,30.53h8.3c-.15-1.3,.34-2.68,1.62-3.67h0c-3.24-2.41-1.59-7.28,2.55-7.53-1.1-3.73,3.31-6.76,6.81-4.7h0c1.47-3.62,6.94-3.67,8.47-.08,3.47-2.13,7.93,.83,6.9,4.58,4.15,.18,5.88,5.01,2.68,7.48,1.4,1.04,1.87,2.53,1.65,3.91h32.59c1.68-5.04,2.27-17.77,2.47-25.96-2.88,1.5-6.15,2.35-9.61,2.35-11.53,0-20.87-9.35-20.87-20.87,0-9.62,6.5-17.71,15.35-20.13-.4-1.61-.61-3.28-.61-5.01,0-11.53,9.35-20.87,20.87-20.87s20.87,9.35,20.87,20.87c0,1.73-.21,3.41-.61,5.01,8.85,2.42,15.35,10.51,15.35,20.13,0,11.53-9.35,20.87-20.87,20.87-3.47,0-6.74-.85-9.61-2.35,.2,8.18,.78,20.91,2.47,25.96h60.25c1.49-4.09,2.14-13.5,2.42-20.89-13.71-2.02-24.11-11.72-24.11-25.53,0-15.57,13.21-32.7,29.5-32.7s29.5,17.13,29.5,32.7c0,13.81-10.39,23.5-24.11,25.53,.28,7.39,.93,16.79,2.42,20.89h132.75"/></svg>