<?xml version="1.0" encoding="UTF-8"?><svg id="_イヤー_2" xmlns="http://www.w3.org/2000/svg" viewBox="0 0 1800 279.78"><g id="forest"><path d="M0,279.78H38.27l-.71-1.03c-1.76-2.56-2.89-4.87-3.44-6.13,1.52,.23,4.47,.79,7.82,2.06l1.02,.39-.13-1.08c-.5-4.15-.17-7.69,.05-9.4,1.12,.94,3.2,2.81,5.29,5.44l.9,1.13,.26-1.42c.95-5.13,2.98-9.25,3.96-11.04,1.02,1.85,3.17,6.23,4.07,11.64l.25,1.5,.92-1.21c2.25-2.95,4.55-5.04,5.76-6.05,.23,1.71,.55,5.25,.05,9.4l-.13,1.08,1.02-.39c3.35-1.28,6.3-1.84,7.82-2.06-.56,1.27-1.68,3.58-3.44,6.13l-.71,1.03h11.97l.15-.44c3.21-9.24,4.66-30.96,5.32-47.54l.05-1.16-1.02,.55c-8.25,4.48-17.22,7.1-26.69,7.79,5.17-6.19,6.54-10.24,6.6-10.42l.5-1.51-1.42,.72c-.08,.04-8.17,4.06-20.27,4.45,5.07-4.49,7.59-10.17,7.71-10.43l.74-1.68-1.64,.83c-.08,.04-7.99,3.98-17.44,2.51,10.22-6.96,20.31-17.18,30.02-30.42l1.05-1.43-1.73,.4c-2.96,.69-6,1.09-9.06,1.21,4.04-3.69,6.06-8.22,6.16-8.44l.73-1.68-1.64,.83c-.07,.03-6.42,3.18-14.04,2.11,8.95-6.15,17.77-15.32,26.23-27.28l.96-1.35-1.63,.33c-1.73,.35-3.51,.57-5.29,.66,2.83-2.72,4.25-5.9,4.31-6.06l.73-1.68-1.63,.82s-4.53,2.23-9.97,1.61c20.46-14.31,34.29-45.5,38.9-57.15,4.62,11.65,18.44,42.85,38.9,57.15-5.45,.63-9.92-1.59-9.97-1.61l-1.64-.82,.73,1.68c.07,.16,1.48,3.34,4.31,6.06-1.78-.09-3.55-.31-5.29-.66l-1.63-.33,.96,1.35c8.46,11.96,17.28,21.13,26.23,27.28-7.62,1.07-13.97-2.07-14.04-2.11l-1.64-.83,.73,1.68c.09,.21,2.11,4.75,6.16,8.44-3.06-.12-6.1-.52-9.06-1.21l-1.73-.4,1.05,1.43c9.71,13.24,19.81,23.46,30.02,30.42-9.44,1.45-17.36-2.47-17.44-2.51l-1.64-.83,.74,1.68c.11,.26,2.64,5.94,7.71,10.43-12.1-.39-20.19-4.41-20.27-4.45l-1.42-.72,.5,1.51c.06,.18,1.43,4.24,6.6,10.42-9.46-.69-18.43-3.31-26.69-7.79l-1.02-.55,.05,1.16c.66,16.59,2.11,38.3,5.32,47.54l.15,.44h12.99l-.12-.76c-.31-1.94,.47-3.71,2.09-4.75l.85-.54-.84-.56c-1.93-1.28-2.79-3.5-2.18-5.65,.45-1.59,1.85-3.33,4.42-3.43l1.04-.04-.48-.92c-1.24-2.38-.41-4.51,.78-5.7,1.52-1.53,3.79-1.85,5.79-.82l.92,.47,.04-1.04c.09-2.54,1.83-3.92,3.42-4.38,2.18-.62,4.42,.23,5.72,2.16l.56,.83,.54-.84c1.37-2.11,3.62-2.42,5.28-1.99,2.24,.57,3.8,2.4,3.97,4.66l.07,.96,.87-.42c1.96-.95,4.26-.53,5.85,1.08,1.25,1.26,2.18,3.43,1.04,5.76l-.43,.87,1.51,.13,.21-.34c1.06-1.72,3.67-2.67,5.88-1.34l.65,.39,.29-.71c.75-1.8,2.48-2.44,3.85-2.44s3.11,.64,3.85,2.44l.29,.71,.65-.39c1.55-.93,3.47-.83,4.9,.27,1.26,.96,1.76,2.41,1.34,3.87l-.23,.79,.83,.04c1.78,.09,3.25,1.18,3.74,2.76,.46,1.49-.05,2.97-1.35,3.96l-.69,.52,.69,.52c1.05,.8,1.58,1.92,1.49,3.15l-.05,.71h15.35l.13-.48c1.5-5.4,2.61-16.22,3.3-32.13l.06-1.27-1.07,.68c-5.37,3.44-11.2,5.48-17.34,6.08,3.41-4.95,4.32-8.19,4.36-8.34l.44-1.59-1.41,.86c-.06,.03-5.33,3.18-13.26,3.57,3.34-3.65,5-8.14,5.08-8.35l.64-1.76-1.6,.97c-.06,.03-5.19,3.09-11.36,2.06,5.42-4.46,10.8-10.57,16.02-18.18l.97-1.42-1.67,.41c-2.63,.64-5.35,1.02-8.11,1.15,3.15-2.8,4.72-6.08,4.8-6.24l.78-1.65-1.66,.78c-.05,.03-5.07,2.33-11.19,1.66,22.8-14.75,38.17-47.05,43.22-58.89,5.05,11.84,20.41,44.13,43.22,58.89-6.11,.67-11.13-1.63-11.19-1.66l-1.66-.78,.78,1.65c.08,.16,1.65,3.44,4.8,6.24-2.76-.12-5.48-.51-8.11-1.15l-1.67-.41,.97,1.42c5.22,7.6,10.61,13.71,16.02,18.18-6.17,1.03-11.31-2.03-11.36-2.06l-1.6-.97,.64,1.76c.08,.21,1.74,4.7,5.08,8.35-7.93-.39-13.2-3.54-13.26-3.57l-1.41-.86,.44,1.59c.04,.15,.95,3.38,4.36,8.34-6.14-.6-11.97-2.64-17.34-6.08l-1.07-.68,.06,1.27c.69,15.92,1.8,26.73,3.3,32.13l.13,.48h41.48l-.04-.7c-.06-1.1,.42-2.1,1.36-2.81l.69-.52-.69-.52c-1.18-.9-1.64-2.24-1.22-3.59,.44-1.44,1.78-2.43,3.4-2.51l.83-.04-.23-.8c-.38-1.33,.08-2.64,1.22-3.51,1.3-1,3.05-1.09,4.46-.24l.65,.39,.29-.71c.68-1.63,2.25-2.22,3.5-2.22s2.82,.58,3.5,2.22l.29,.71,.65-.39c1.41-.85,3.16-.75,4.46,.24,1.14,.87,1.6,2.19,1.22,3.51l-.23,.8,.83,.04c1.62,.08,2.96,1.07,3.4,2.51,.42,1.35-.04,2.69-1.22,3.59l-.69,.52,.69,.52c.94,.71,1.42,1.71,1.36,2.81l-.04,.7h13.06l.15-.44c2.81-8.18,4.08-27.22,4.66-41.75l.05-1.16-1.02,.55c-7.19,3.9-15.01,6.2-23.25,6.83,4.45-5.37,5.64-8.89,5.7-9.05l.5-1.51-1.42,.72c-.07,.04-7.07,3.52-17.58,3.9,4.36-3.94,6.53-8.83,6.63-9.05l.73-1.68-1.64,.83c-.07,.04-6.91,3.43-15.09,2.23,8.94-6.12,17.76-15.08,26.26-26.66l1.05-1.43-1.73,.4c-2.53,.59-5.12,.94-7.74,1.05,3.46-3.23,5.19-7.11,5.27-7.3l.74-1.68-1.64,.83c-.06,.03-5.49,2.73-12.09,1.87,7.82-5.41,15.53-13.45,22.92-23.9l.96-1.35-1.62,.33c-1.45,.29-2.94,.48-4.43,.57,2.4-2.37,3.6-5.07,3.66-5.2l.73-1.68-1.63,.82s-3.84,1.9-8.52,1.43c17.81-12.57,29.87-39.63,33.99-49.99,4.12,10.36,16.18,37.42,33.99,49.99-4.67,.46-8.47-1.41-8.52-1.43l-1.64-.82,.73,1.68c.06,.13,1.26,2.83,3.66,5.2-1.49-.08-2.97-.28-4.43-.57l-1.62-.33,.96,1.35c7.39,10.45,15.1,18.48,22.92,23.9-6.58,.85-12.04-1.84-12.1-1.87l-1.64-.83,.73,1.68c.08,.19,1.81,4.07,5.27,7.3-2.62-.11-5.21-.47-7.74-1.05l-1.73-.4,1.05,1.43c8.49,11.58,17.32,20.54,26.26,26.66-8.18,1.2-15.02-2.2-15.09-2.23l-1.64-.83,.73,1.68c.1,.23,2.28,5.12,6.64,9.05-10.5-.38-17.5-3.86-17.58-3.9l-1.42-.72,.5,1.51c.05,.16,1.24,3.68,5.7,9.05-8.24-.63-16.06-2.92-23.25-6.83l-1.02-.55,.05,1.16c.57,14.53,1.85,33.57,4.66,41.75l.15,.44h33.71l-.72-1.03c-2.17-3.13-3.52-5.95-4.15-7.4,1.71,.24,5.24,.88,9.27,2.42l1.02,.39-.13-1.08c-.6-4.98-.18-9.2,.09-11.1,1.27,1.05,3.77,3.27,6.28,6.44l.9,1.13,.26-1.42c1.13-6.12,3.59-11.01,4.69-12.98,1.14,2.05,3.74,7.23,4.82,13.69l.25,1.5,.92-1.21c2.7-3.55,5.47-6.02,6.83-7.14,.27,1.9,.68,6.12,.09,11.1l-.13,1.08,1.02-.39c4.03-1.54,7.56-2.18,9.27-2.42-.63,1.45-1.98,4.27-4.15,7.4l-.72,1.03h38.73l.14-.47c2.41-7.94,4.23-23.92,5.4-47.49l.06-1.24-1.06,.64c-11.34,6.87-23.73,10.83-36.86,11.77,7.01-8.82,8.84-14.61,8.92-14.86l.47-1.54-1.42,.77c-.11,.06-10.96,5.81-27.12,6.22,6.91-6.27,10.35-14.51,10.5-14.88l.7-1.71-1.62,.87c-.11,.06-10.8,5.73-23.41,3.41,14.46-10.37,28.72-26.1,42.39-46.76l1.07-1.62-1.84,.63c-4.02,1.39-10.31,3.03-18.08,3.25,5.87-5.42,8.8-12.43,8.93-12.74l.7-1.71-1.62,.87c-.09,.05-9.21,4.87-19.99,2.97,14.67-10.56,29-27.38,42.61-50.01l.98-1.63-1.78,.68c-3.11,1.18-7.99,2.57-14.13,2.8,4.21-4.03,6.3-9.06,6.4-9.29l.7-1.7-1.62,.87c-.07,.04-6.62,3.51-14.45,2.27,10.95-7.98,21.64-20.62,31.81-37.59l1.04-1.73-1.86,.79c-2.02,.85-6.02,2.23-11.33,2.49,3.08-3.08,4.61-6.76,4.68-6.93l.7-1.7-1.62,.87c-.05,.03-4.85,2.57-10.68,1.79,21.65-16.01,36.27-51.25,41.11-64.3,4.84,13.04,19.45,48.29,41.11,64.3-5.82,.77-10.62-1.76-10.68-1.79l-1.62-.87,.7,1.7c.07,.17,1.61,3.86,4.68,6.93-5.31-.26-9.31-1.63-11.33-2.49l-1.86-.79,1.04,1.73c10.16,16.97,20.86,29.6,31.81,37.59-7.83,1.23-14.38-2.24-14.45-2.27l-1.62-.87,.7,1.7c.1,.23,2.19,5.26,6.4,9.29-6.14-.23-11.02-1.62-14.13-2.8l-1.78-.68,.98,1.63c13.62,22.63,27.95,39.44,42.61,50.01-10.78,1.9-19.89-2.92-19.99-2.97l-1.62-.87,.7,1.71c.13,.32,3.06,7.33,8.93,12.74-7.77-.22-14.06-1.86-18.08-3.25l-1.83-.63,1.07,1.62c13.67,20.66,27.92,36.39,42.39,46.76-12.6,2.32-23.3-3.35-23.41-3.41l-1.62-.87,.7,1.71c.15,.37,3.59,8.61,10.5,14.88-16.16-.41-27.01-6.16-27.12-6.22l-1.42-.77,.47,1.54c.08,.25,1.91,6.04,8.92,14.86-13.13-.94-25.52-4.9-36.86-11.77l-1.06-.64,.06,1.24c1.17,23.57,2.99,39.54,5.4,47.49l.14,.47h48.76l-.12-.76c-.31-1.94,.47-3.71,2.09-4.75l.85-.54-.84-.56c-1.93-1.28-2.79-3.5-2.18-5.65,.45-1.59,1.85-3.33,4.42-3.43l1.04-.04-.48-.92c-1.24-2.38-.41-4.51,.78-5.7,1.52-1.53,3.8-1.85,5.79-.82l.92,.47,.04-1.04c.09-2.54,1.83-3.92,3.42-4.38,2.18-.62,4.42,.23,5.72,2.16l.56,.83,.54-.84c1.37-2.11,3.62-2.42,5.28-1.99,2.24,.57,3.8,2.4,3.97,4.66l.07,.96,.87-.42c1.96-.95,4.26-.53,5.85,1.08,1.25,1.26,2.18,3.43,1.04,5.76l-.43,.87,.97,.07c2.29,.18,4.14,1.74,4.7,3.97,.41,1.63,.1,3.86-2.01,5.21l-.85,.54,.84,.56c1.45,.96,2.29,2.4,2.36,4.06l.03,.63h22.88l.16-.42c2.82-7.3,3.62-26.4,3.85-37.13v-.34l-.27-.2c-1.76-1.28-3.12-2.98-4.04-5.06l-.6-1.37-.6,1.37c-2.02,4.57-6.38,7.41-11.37,7.41-5,0-9.35-2.84-11.37-7.41l-.19-.44-.48,.05c-4.97,.54-9.61-1.81-12.11-6.14-2.5-4.33-2.22-9.52,.73-13.56l.29-.39-.29-.39c-2.68-3.66-3.17-8.31-1.31-12.42,1.86-4.11,5.74-6.9,10.13-7.3l.88-.08-.32-.82c-1.53-3.87-.96-8.26,1.53-11.73,2.48-3.47,6.34-5.34,10.6-5.15l.96,.05-.31-.91c-1.35-3.98-.54-8.37,2.16-11.74,2.68-3.35,6.68-5,11.01-4.53l.48,.05,.2-.44c2.01-4.57,6.37-7.41,11.37-7.41s9.35,2.84,11.37,7.41l.19,.44,.48-.05c4.31-.47,8.32,1.18,11.01,4.53,2.7,3.37,3.51,7.76,2.16,11.74l-.31,.91,.96-.05c4.28-.19,8.12,1.68,10.6,5.15,2.48,3.48,3.06,7.86,1.53,11.73l-.32,.82,.88,.08c4.39,.39,8.27,3.19,10.13,7.3,1.86,4.11,1.37,8.75-1.31,12.42l-.29,.39,.29,.39c2.95,4.03,3.23,9.23,.73,13.56-2.5,4.33-7.15,6.68-12.11,6.14l-.48-.05-.19,.44c-2.02,4.57-6.37,7.41-11.37,7.41s-9.35-2.84-11.37-7.41l-.6-1.36-.6,1.36c-.92,2.08-2.28,3.78-4.04,5.06l-.28,.2v.34c.24,10.73,1.04,29.83,3.86,37.13l.16,.42h89.63l.15-.44c2.83-8.24,4.11-27.44,4.7-42.09l.05-1.16-1.02,.55c-7.26,3.94-15.14,6.25-23.45,6.88,4.5-5.42,5.7-8.97,5.75-9.13l.5-1.51-1.42,.72c-.07,.04-7.14,3.55-17.74,3.93,4.4-3.97,6.6-8.9,6.7-9.13l.73-1.68-1.63,.83c-.07,.04-6.98,3.46-15.23,2.25,9.01-6.17,17.92-15.21,26.48-26.88l1.05-1.43-1.73,.4c-2.55,.59-5.17,.95-7.81,1.06,3.5-3.25,5.24-7.18,5.33-7.37l.74-1.68-1.64,.83c-.06,.03-5.55,2.76-12.21,1.89,7.89-5.46,15.66-13.56,23.11-24.1l.96-1.35-1.63,.33c-1.47,.3-2.97,.49-4.48,.58,2.42-2.39,3.64-5.12,3.7-5.25l.73-1.68-1.63,.82s-3.87,1.92-8.6,1.44c17.97-12.68,30.13-39.98,34.28-50.41,4.15,10.44,16.32,37.74,34.28,50.41-4.71,.47-8.56-1.42-8.6-1.44l-1.63-.82,.73,1.67c.06,.14,1.27,2.86,3.7,5.26-1.51-.09-3.01-.28-4.48-.58l-1.63-.33,.96,1.35c7.45,10.54,15.22,18.64,23.11,24.1-6.64,.87-12.15-1.86-12.21-1.89l-1.64-.83,.74,1.68c.08,.19,1.83,4.11,5.33,7.37-2.64-.11-5.26-.47-7.81-1.06l-1.73-.4,1.05,1.43c8.56,11.67,17.46,20.71,26.48,26.88-8.25,1.21-15.16-2.21-15.23-2.25l-1.64-.83,.74,1.68c.1,.23,2.3,5.17,6.7,9.13-10.6-.38-17.66-3.89-17.74-3.93l-1.42-.72,.5,1.51c.05,.16,1.25,3.71,5.75,9.13-8.31-.63-16.2-2.94-23.45-6.88l-1.02-.55,.05,1.16c.58,14.65,1.86,33.84,4.7,42.09l.15,.44h22.2l-.08-.73c-.18-1.63,.5-3.17,1.88-4.24l.69-.53-.7-.52c-1.67-1.24-2.36-3.2-1.79-5.11,.61-2.06,2.5-3.47,4.8-3.61l.83-.05-.23-.79c-.56-1.89,.08-3.77,1.69-5.03,1.83-1.42,4.3-1.58,6.31-.4l.66,.39,.29-.71c.94-2.33,3.17-3.18,4.94-3.2h.05c1.76,0,3.97,.82,4.95,3.11l.3,.7,.65-.4c1.99-1.22,4.46-1.11,6.32,.29,1.64,1.23,2.31,3.1,1.78,5l-.22,.8,.83,.04c2.3,.1,4.21,1.48,4.86,3.53,.6,1.9-.05,3.87-1.7,5.14l-.69,.53,.7,.52c1.5,1.12,2.2,2.76,1.91,4.52l-.13,.77h33.87l.15-.44c3.41-9.8,4.96-32.93,5.66-50.61l.05-1.16-1.02,.55c-8.81,4.78-18.4,7.57-28.51,8.3,5.54-6.62,7.01-10.96,7.07-11.15l.5-1.51-1.42,.72c-.09,.05-8.75,4.35-21.7,4.74,5.44-4.78,8.16-10.88,8.28-11.16l.74-1.68-1.64,.83c-.09,.05-8.59,4.26-18.69,2.66,10.9-7.4,21.66-18.3,32.02-32.41l1.05-1.43-1.73,.4c-3.18,.74-6.46,1.18-9.76,1.29,4.35-3.93,6.52-8.81,6.62-9.04l.74-1.68-1.64,.83c-.07,.04-6.89,3.42-15.07,2.23,9.55-6.54,18.96-16.31,27.98-29.07l.96-1.35-1.62,.33c-1.89,.38-3.81,.62-5.74,.71,3.06-2.9,4.59-6.34,4.66-6.51l.73-1.68-1.63,.82c-.05,.03-4.87,2.42-10.74,1.71,21.87-15.22,36.62-48.61,41.5-60.94,4.88,12.33,19.63,45.72,41.5,60.94-5.86,.71-10.69-1.68-10.74-1.71l-1.64-.83,.74,1.68c.07,.16,1.6,3.6,4.66,6.51-1.93-.09-3.86-.33-5.74-.71l-1.62-.33,.96,1.35c9.03,12.76,18.43,22.53,27.98,29.07-8.17,1.19-14.99-2.19-15.06-2.23l-1.64-.83,.74,1.68c.1,.23,2.27,5.11,6.62,9.04-3.3-.12-6.58-.55-9.76-1.29l-1.73-.4,1.05,1.43c10.36,14.12,21.12,25.01,32.02,32.41-10.09,1.6-18.6-2.62-18.69-2.66l-1.64-.83,.74,1.68c.12,.28,2.84,6.38,8.28,11.16-12.95-.39-21.61-4.7-21.7-4.74l-1.42-.72,.5,1.51c.06,.19,1.53,4.53,7.07,11.15-10.11-.72-19.69-3.51-28.51-8.3l-1.02-.55,.05,1.16c.7,17.68,2.25,40.81,5.66,50.61l.15,.44h30.75l-.72-1.03c-2.17-3.13-3.52-5.95-4.15-7.4,1.71,.24,5.24,.88,9.27,2.42l1.02,.39-.13-1.08c-.6-4.98-.18-9.2,.09-11.1,1.27,1.05,3.76,3.27,6.28,6.44l.9,1.13,.26-1.42c1.13-6.13,3.59-11.01,4.69-12.98,1.14,2.05,3.74,7.23,4.81,13.69l.25,1.5,.92-1.21c2.7-3.55,5.47-6.02,6.83-7.14,.27,1.9,.69,6.12,.09,11.1l-.13,1.08,1.02-.39c4.03-1.54,7.56-2.18,9.27-2.42-.63,1.45-1.98,4.27-4.15,7.4l-.72,1.03h21.22l.13-.48c1.5-5.41,2.61-16.22,3.3-32.13l.06-1.27-1.07,.68c-5.38,3.44-11.2,5.48-17.34,6.08,3.41-4.95,4.32-8.19,4.36-8.34l.43-1.59-1.41,.86c-.06,.03-5.33,3.18-13.26,3.57,3.34-3.65,5-8.14,5.08-8.35l.64-1.76-1.6,.97c-.05,.03-5.19,3.1-11.36,2.06,5.42-4.46,10.8-10.57,16.02-18.18l.97-1.42-1.67,.41c-2.63,.64-5.35,1.02-8.11,1.15,3.15-2.8,4.72-6.08,4.8-6.24l.78-1.66-1.66,.78c-.05,.02-5.07,2.33-11.19,1.66,22.8-14.75,38.17-47.05,43.22-58.89,5.05,11.84,20.42,44.13,43.22,58.89-6.11,.67-11.13-1.64-11.19-1.66l-1.65-.78,.78,1.65c.07,.16,1.65,3.44,4.8,6.24-2.76-.12-5.48-.51-8.11-1.15l-1.67-.41,.97,1.42c5.22,7.6,10.61,13.71,16.02,18.18-6.17,1.03-11.31-2.03-11.36-2.06l-1.6-.97,.64,1.76c.08,.21,1.74,4.7,5.08,8.35-7.93-.39-13.2-3.54-13.26-3.57l-1.41-.86,.44,1.59c.04,.15,.95,3.38,4.36,8.34-6.14-.6-11.97-2.64-17.34-6.08l-1.07-.68,.06,1.27c.69,15.92,1.8,26.73,3.3,32.13l.13,.48h83.03l.17-.4c1.81-4.18,3.09-12.71,3.79-25.36l.03-.5-.48-.16c-6.53-2.14-11.71-6.64-14.57-12.66l-.2-.42-.46,.05c-10.57,1.06-20.52-3.93-25.35-12.74-4.41-8.03-3.6-17.17,2.14-24.47l.32-.41-.32-.41c-5.75-7.29-6.55-16.44-2.14-24.47,4.83-8.8,14.78-13.8,25.35-12.74l.46,.05,.2-.42c4.11-8.65,13-14.03,23.2-14.03s19.09,5.38,23.2,14.03l.2,.42,.46-.05c10.56-1.06,20.52,3.93,25.36,12.74,4.41,8.03,3.6,17.17-2.15,24.47l-.32,.41,.32,.41c5.75,7.29,6.55,16.44,2.15,24.47-4.83,8.81-14.78,13.81-25.36,12.74l-.46-.05-.2,.42c-2.86,6.02-8.03,10.52-14.57,12.66l-.48,.16,.03,.5c.7,12.65,1.98,21.18,3.79,25.36l.17,.4h73.03l.16-.44c1.61-4.58,2.3-14.78,2.59-22.53l.02-.59-.58-.08c-15.16-2.24-25.35-13.01-25.35-26.79,0-15.95,13.56-34.5,31.05-34.5s31.05,18.54,31.05,34.5c0,13.79-10.19,24.55-25.35,26.79l-.58,.08,.02,.59c.29,7.75,.98,17.96,2.59,22.53l.16,.44h46.74l-.12-.76c-.31-1.94,.47-3.71,2.09-4.75l.85-.54-.84-.56c-1.93-1.28-2.79-3.5-2.18-5.65,.45-1.59,1.85-3.33,4.42-3.43l1.04-.04-.48-.92c-1.24-2.38-.41-4.51,.78-5.7,1.52-1.53,3.79-1.85,5.79-.82l.92,.47,.04-1.04c.09-2.54,1.83-3.92,3.42-4.38,2.19-.62,4.42,.23,5.72,2.16l.56,.83,.54-.84c1.37-2.11,3.62-2.42,5.28-1.99,2.24,.57,3.8,2.4,3.97,4.66l.07,.96,.87-.42c1.54-.75,3.22-.67,4.72,.21l.9,.53,.09-1.04c.89-10.21,1.27-21.17,1.42-28.58v-.34l-.27-.2c-2.46-1.78-4.35-4.16-5.63-7.06l-.6-1.37-.6,1.37c-2.81,6.38-8.89,10.34-15.86,10.34s-13.05-3.96-15.86-10.34l-.2-.44-.48,.05c-6.93,.76-13.4-2.53-16.88-8.56-3.49-6.04-3.09-13.28,1.02-18.9l.28-.39-.28-.39c-3.74-5.11-4.42-11.59-1.83-17.32,2.59-5.73,8-9.63,14.12-10.17l.88-.08-.32-.82c-2.13-5.4-1.34-11.52,2.13-16.36,3.46-4.84,8.86-7.44,14.79-7.19l.96,.05-.31-.92c-1.88-5.55-.76-11.67,3.01-16.37,3.75-4.67,9.35-6.97,15.35-6.32l.48,.05,.2-.44c2.81-6.38,8.89-10.34,15.86-10.34s13.05,3.96,15.86,10.34l.19,.44,.48-.05c6.01-.65,11.6,1.65,15.35,6.32,3.77,4.7,4.9,10.82,3.01,16.37l-.31,.92,.96-.05c5.92-.28,11.32,2.34,14.79,7.19s4.26,10.96,2.13,16.36l-.32,.82,.88,.08c6.12,.55,11.53,4.44,14.12,10.17,2.59,5.74,1.91,12.21-1.83,17.32l-.28,.39,.28,.39c4.12,5.62,4.51,12.87,1.02,18.9-3.48,6.03-9.94,9.32-16.88,8.56l-.48-.05-.19,.44c-2.81,6.38-8.89,10.34-15.86,10.34s-13.05-3.96-15.86-10.34l-.6-1.37-.6,1.37c-1.28,2.9-3.17,5.27-5.63,7.06l-.28,.2v.34c.32,14.92,1.44,41.41,5.39,51.22l.17,.41h92.02l.13-.48c1.38-5.02,2.4-15.01,3.04-29.7l.05-1.27-1.07,.68c-4.94,3.16-10.29,5.05-15.92,5.61,3.11-4.54,3.95-7.51,3.98-7.64l.44-1.59-1.41,.86c-.05,.03-4.87,2.9-12.13,3.29,3.04-3.37,4.56-7.46,4.63-7.66l.64-1.77-1.6,.98c-.05,.03-4.73,2.82-10.38,1.92,4.99-4.13,9.95-9.77,14.76-16.77l.97-1.42-1.67,.41c-2.39,.58-4.86,.93-7.36,1.05,2.85-2.57,4.28-5.55,4.35-5.69l.78-1.65-1.66,.77c-.05,.02-4.61,2.11-10.19,1.55,20.98-13.65,35.14-43.32,39.86-54.34,4.71,11.02,18.87,40.69,39.85,54.34-5.58,.58-10.14-1.52-10.19-1.55l-1.66-.77,.78,1.65c.07,.15,1.5,3.12,4.35,5.69-2.5-.12-4.97-.47-7.36-1.05l-1.67-.41,.97,1.42c4.81,7,9.77,12.64,14.76,16.77-5.64,.89-10.32-1.89-10.37-1.92l-1.6-.97,.64,1.76c.07,.19,1.59,4.29,4.63,7.66-7.26-.39-12.08-3.26-12.13-3.29l-1.41-.86,.44,1.59c.04,.13,.87,3.1,3.98,7.64-5.64-.56-10.99-2.45-15.92-5.61l-1.07-.68,.05,1.27c.64,14.69,1.66,24.68,3.04,29.7l.13,.48h88.29l.16-.42c3.09-7.89,3.96-28.72,4.21-40.43v-.34l-.27-.2c-1.92-1.4-3.41-3.26-4.41-5.53l-.6-1.37-.6,1.37c-2.2,4.99-6.96,8.1-12.42,8.1s-10.22-3.1-12.42-8.1l-.19-.44-.48,.05c-5.45,.59-10.49-1.98-13.22-6.71-2.73-4.73-2.42-10.4,.8-14.81l.29-.39-.29-.39c-2.93-4-3.47-9.07-1.43-13.57,2.03-4.49,6.27-7.54,11.06-7.97l.88-.08-.32-.82c-1.67-4.23-1.05-9.02,1.67-12.82,2.71-3.79,6.93-5.85,11.58-5.63l.96,.05-.31-.92c-1.47-4.35-.59-9.14,2.36-12.82,2.93-3.66,7.32-5.45,12.02-4.95l.48,.05,.2-.44c2.2-5,6.96-8.1,12.42-8.1s10.22,3.1,12.42,8.1l.2,.44,.48-.05c4.7-.51,9.09,1.29,12.02,4.95,2.95,3.68,3.83,8.47,2.36,12.82l-.31,.92,.96-.05c4.63-.21,8.87,1.83,11.58,5.63s3.34,8.59,1.67,12.82l-.32,.82,.88,.08c4.79,.43,9.03,3.48,11.06,7.97,2.03,4.49,1.5,9.56-1.44,13.57l-.29,.39,.29,.39c3.23,4.41,3.53,10.08,.8,14.81-2.73,4.73-7.8,7.3-13.22,6.71l-.48-.05-.19,.44c-2.2,4.99-6.96,8.1-12.42,8.1s-10.22-3.1-12.42-8.1l-.6-1.37-.6,1.37c-1,2.27-2.48,4.13-4.41,5.53l-.28,.2v.34c.26,11.71,1.13,32.54,4.22,40.43l.16,.42h12.12l-.08-.73c-.19-1.63,.5-3.17,1.88-4.24l.69-.53-.7-.52c-1.67-1.24-2.36-3.2-1.79-5.11,.61-2.05,2.49-3.47,4.8-3.61l.83-.05-.23-.79c-.56-1.89,.08-3.77,1.69-5.03,1.83-1.42,4.31-1.58,6.31-.4l.66,.39,.29-.71c.94-2.33,3.17-3.18,4.94-3.2h.05c1.76,0,3.97,.82,4.95,3.11l.3,.7,.65-.4c1.99-1.22,4.46-1.11,6.32,.29,1.64,1.23,2.31,3.1,1.78,5l-.22,.8,.83,.04c2.3,.1,4.21,1.48,4.86,3.53,.6,1.9-.05,3.87-1.7,5.14l-.69,.53,.7,.52c1.5,1.12,2.2,2.76,1.91,4.52l-.13,.77h44.16l.15-.45c2.18-6.53,2.99-22.29,3.28-34.37l.03-1.11-.99,.51c-3.85,2-8.01,3.02-12.36,3.02-14.79,0-26.83-12.03-26.83-26.83,0-12.05,8.11-22.69,19.73-25.87l.62-.17-.15-.62c-.52-2.11-.78-4.28-.78-6.44,0-14.79,12.03-26.83,26.83-26.83s26.83,12.04,26.83,26.83c0,2.16-.26,4.33-.78,6.44l-.15,.62,.62,.17c11.62,3.18,19.73,13.82,19.73,25.87,0,14.79-12.03,26.83-26.83,26.83-4.35,0-8.51-1.01-12.36-3.02l-.99-.51,.03,1.11c.29,12.08,1.1,27.85,3.28,34.37l.15,.45h80.27l.16-.43c2.01-5.5,2.86-18.1,3.23-27.7l.02-.59-.58-.09c-18.65-2.75-31.18-16-31.18-32.96,0-19.61,16.68-42.4,38.18-42.4s38.18,22.79,38.18,42.4c0,16.96-12.53,30.21-31.18,32.96l-.58,.09,.02,.59c.36,9.6,1.22,22.2,3.23,27.7l.16,.43h63.91v-1.32h-62.98c-1.81-5.45-2.62-17.11-2.98-26.28,19-3.04,31.72-16.71,31.72-34.17,0-20.22-17.25-43.72-39.5-43.72s-39.5,23.5-39.5,43.72c0,17.46,12.72,31.13,31.72,34.17-.36,9.17-1.17,20.84-2.98,26.28h-78.39c-2.05-6.75-2.78-22.7-3.04-32.44,3.76,1.78,7.78,2.67,11.97,2.67,15.52,0,28.14-12.62,28.14-28.14,0-12.43-8.23-23.43-20.09-26.97,.45-2.02,.68-4.08,.68-6.14,0-15.52-12.63-28.15-28.15-28.15s-28.14,12.63-28.14,28.15c0,2.06,.23,4.12,.68,6.14-11.86,3.54-20.09,14.53-20.09,26.97,0,15.52,12.63,28.14,28.15,28.14,4.19,0,8.22-.9,11.97-2.67-.26,9.74-.99,25.69-3.04,32.44h-41.7c.06-1.69-.61-3.3-1.88-4.5,1.64-1.61,2.23-3.87,1.54-6.06-.74-2.34-2.78-4-5.29-4.37,.31-2.15-.58-4.26-2.42-5.64-2.09-1.57-4.83-1.83-7.16-.7-1.15-2.03-3.32-3.26-5.83-3.26h-.07c-2.54,.02-4.72,1.29-5.84,3.37-2.35-1.08-5.08-.78-7.15,.83-1.82,1.42-2.67,3.54-2.32,5.69-2.51,.42-4.51,2.11-5.21,4.46-.66,2.2-.03,4.44,1.65,6.03-1.16,1.14-1.8,2.6-1.82,4.16h-9.78c-2.86-7.93-3.71-27.74-3.96-39.22,1.63-1.24,2.96-2.8,3.96-4.63,2.62,4.76,7.49,7.66,13.02,7.66,5.83,0,10.93-3.22,13.43-8.45,5.78,.44,11.12-2.36,14.03-7.4,2.92-5.05,2.67-11.08-.6-15.85,2.97-4.33,3.46-9.71,1.3-14.5-2.11-4.65-6.39-7.9-11.3-8.63,1.46-4.44,.7-9.34-2.11-13.27-2.8-3.91-7.06-6.13-11.79-6.19,1.22-4.53,.19-9.4-2.85-13.18-3.12-3.89-7.73-5.87-12.71-5.48-2.5-5.22-7.6-8.45-13.43-8.45s-10.93,3.23-13.42,8.45c-4.97-.38-9.59,1.59-12.71,5.48-3.04,3.79-4.07,8.65-2.85,13.18-4.73,.06-8.99,2.28-11.79,6.19-2.81,3.92-3.57,8.83-2.11,13.27-4.91,.73-9.2,3.98-11.3,8.63-2.17,4.79-1.68,10.17,1.29,14.5-3.28,4.77-3.52,10.81-.6,15.85,2.91,5.05,8.26,7.84,14.03,7.4,2.5,5.22,7.6,8.45,13.43,8.45,5.53,0,10.4-2.9,13.02-7.66,1,1.83,2.33,3.39,3.96,4.63-.25,11.47-1.1,31.29-3.96,39.22h-86.37c-1.25-4.92-2.2-14.22-2.81-27.68,5.24,3.13,10.91,4.9,16.87,5.27l1.4,.08-.82-1.13c-2.17-2.97-3.39-5.37-4.01-6.83,2.27,1.04,6.85,2.73,12.88,2.73h1.7l-1.25-1.14c-2.32-2.12-3.92-4.96-4.76-6.71,2.21,.94,6.38,2.19,11.06,.97l1.29-.34-1.05-.82c-4.92-3.86-9.83-9.22-14.61-15.98,2.59,.51,5.25,.77,7.94,.77h2.08l-1.7-1.2c-2.16-1.52-3.69-3.52-4.57-4.88,2.24,.72,6.35,1.64,10.96,.71l1.66-.33-1.45-.87c-22.49-13.58-37.4-46.38-41.44-56.11l-.61-1.47-.61,1.47c-4.04,9.73-18.96,42.53-41.44,56.11l-1.45,.87,1.66,.33c4.6,.93,8.72,0,10.96-.71-.88,1.36-2.42,3.35-4.57,4.88l-1.7,1.2h2.08c2.69,0,5.35-.26,7.94-.77-4.78,6.75-9.69,12.12-14.61,15.98l-1.05,.82,1.29,.34c4.67,1.22,8.84-.03,11.06-.97-.84,1.75-2.44,4.59-4.76,6.71l-1.25,1.14h1.7c6.02,0,10.61-1.68,12.88-2.73-.63,1.46-1.84,3.86-4.01,6.83l-.82,1.13,1.4-.08c5.97-.36,11.64-2.13,16.87-5.27-.62,13.46-1.56,22.76-2.81,27.68h-90.12c-3.71-9.85-4.8-35.32-5.12-50,2.16-1.63,3.89-3.69,5.18-6.14,3.24,6.13,9.42,9.88,16.46,9.88s13.76-4.08,16.86-10.69c7.27,.6,14.02-2.9,17.69-9.26,3.67-6.36,3.34-13.96-.82-19.95,3.78-5.44,4.42-12.22,1.69-18.25-2.67-5.89-8.12-9.99-14.36-10.84,1.92-5.62,.98-11.84-2.58-16.81-3.55-4.96-8.97-7.75-14.99-7.76,1.63-5.74,.34-11.92-3.51-16.73-3.93-4.9-9.75-7.38-16.04-6.85-3.11-6.61-9.52-10.69-16.86-10.69s-13.76,4.08-16.86,10.69c-6.29-.54-12.11,1.95-16.04,6.85-3.85,4.8-5.13,10.99-3.51,16.73-6.02,0-11.44,2.8-14.99,7.76-3.56,4.97-4.5,11.2-2.58,16.81-6.24,.86-11.69,4.95-14.36,10.84-2.73,6.03-2.09,12.82,1.69,18.25-4.17,5.99-4.49,13.59-.82,19.95s10.42,9.86,17.69,9.26c3.11,6.61,9.52,10.69,16.86,10.69s13.22-3.75,16.46-9.88c1.29,2.45,3.02,4.51,5.18,6.14-.15,7.14-.51,17.45-1.33,27.19-1.37-.55-2.85-.6-4.23-.14-.51-2.43-2.33-4.33-4.83-4.96-2.36-.6-4.65,.1-6.16,1.83-1.66-1.9-4.17-2.67-6.62-1.97-2.29,.65-3.87,2.4-4.28,4.66-2.3-.82-4.76-.29-6.47,1.43-1.69,1.7-2.2,4.13-1.4,6.38-2.29,.41-4.05,1.99-4.7,4.29-.68,2.42,.1,4.9,1.99,6.55-1.38,1.2-2.11,2.9-2.03,4.76h-44.3c-1.41-4.5-2.06-13.78-2.35-21.11,15.52-2.53,25.89-13.72,25.89-28,0-16.56-14.14-35.81-32.37-35.81s-32.37,19.25-32.37,35.81c0,14.29,10.38,25.48,25.89,28-.29,7.33-.93,16.61-2.35,21.11h-71.22c-1.62-4.08-2.82-12.35-3.49-24.01,6.51-2.26,11.69-6.77,14.67-12.77,10.92,.92,21.16-4.31,26.18-13.46,4.59-8.36,3.85-17.85-1.95-25.51,5.8-7.65,6.54-17.15,1.95-25.51-5.02-9.14-15.25-14.39-26.18-13.46-4.41-8.87-13.63-14.36-24.18-14.36h0c-10.55,0-19.77,5.49-24.19,14.36-10.92-.92-21.16,4.32-26.18,13.46-4.59,8.36-3.85,17.85,1.95,25.51-5.8,7.65-6.54,17.15-1.95,25.51,5.02,9.14,15.24,14.39,26.18,13.46,2.98,6,8.16,10.51,14.67,12.77-.67,11.66-1.87,19.93-3.49,24.01h-81.16c-1.37-5.31-2.4-15.43-3.07-30.11,5.67,3.41,11.82,5.34,18.29,5.73l1.4,.08-.82-1.13c-2.41-3.31-3.73-5.96-4.4-7.52,2.4,1.12,7.4,3,14.01,3h1.7l-1.25-1.14c-2.57-2.35-4.32-5.51-5.22-7.39,2.35,1.02,6.92,2.44,12.04,1.1l1.29-.34-1.05-.82c-5.35-4.19-10.68-10.03-15.87-17.38,2.83,.57,5.75,.86,8.7,.86h2.08l-1.7-1.2c-2.4-1.69-4.09-3.93-5.03-5.41,2.38,.78,6.9,1.84,11.95,.82l1.66-.33-1.45-.87c-24.31-14.68-40.43-50.14-44.8-60.65l-.61-1.47-.61,1.47c-4.36,10.52-20.49,45.97-44.8,60.65l-1.45,.87,1.66,.33c5.06,1.02,9.57-.03,11.95-.82-.94,1.47-2.63,3.71-5.04,5.41l-1.7,1.2h2.08c2.95,0,5.87-.29,8.7-.86-5.19,7.35-10.53,13.19-15.87,17.38l-1.05,.82,1.29,.34c5.13,1.34,9.69-.08,12.04-1.1-.9,1.89-2.64,5.05-5.21,7.39l-1.25,1.14h1.7c6.61,0,11.62-1.88,14.01-3-.66,1.56-1.98,4.21-4.4,7.52l-.82,1.13,1.4-.08c6.47-.39,12.62-2.32,18.29-5.73-.67,14.68-1.7,24.8-3.07,30.11h-17.72c2.74-4.18,3.97-7.53,4.02-7.68l.35-.96-1.02,.08c-.19,.01-4.36,.37-9.72,2.27,.62-6.46-.35-11.32-.39-11.53l-.2-1-.83,.6c-.15,.11-3.5,2.57-7.06,6.94-1.6-7.87-5.13-13.44-5.29-13.68l-.55-.86-.55,.86c-.15,.23-3.49,5.5-5.16,13.03-3.35-3.97-6.37-6.18-6.51-6.28l-.83-.6-.2,1c-.04,.21-1.01,5.08-.39,11.53-5.36-1.9-9.53-2.25-9.72-2.27l-1.02-.08,.35,.96c.06,.15,1.29,3.5,4.02,7.68h-27.31c-2.54-7.73-4.4-24.51-5.39-48.64,9.16,4.78,19.11,7.47,29.59,8.01l1.55,.08-1.03-1.17c-4.15-4.73-6.25-8.44-7.18-10.38,3.29,1.36,11.48,4.21,22.61,4.21h1.95l-1.55-1.18c-4.37-3.32-7.23-7.87-8.54-10.25,3.27,1.29,10.84,3.6,19.42,1.73l1.54-.33-1.32-.86c-10.86-7.08-21.62-17.71-31.99-31.59,3.34,.66,6.76,.99,10.2,.99h1.95l-1.55-1.18c-3.43-2.61-5.73-6.13-6.86-8.15,2.86,1.08,8.93,2.81,15.8,1.32l1.54-.33-1.32-.86c-9.55-6.22-18.98-15.75-28.05-28.33,2.06,.33,4.15,.49,6.23,.49h1.95l-1.55-1.18c-2.33-1.77-3.96-4.12-4.86-5.65,2.3,.81,6.63,1.89,11.48,.84l1.54-.33-1.32-.86c-23.32-15.21-38.79-51.92-42.98-62.81l-.61-1.6-.61,1.6c-4.19,10.89-19.66,47.61-42.98,62.81l-1.32,.86,1.54,.33c4.86,1.05,9.18-.03,11.48-.84-.9,1.53-2.53,3.88-4.86,5.65l-1.55,1.18h1.95c2.09,0,4.18-.16,6.23-.49-9.07,12.58-18.5,22.1-28.05,28.33l-1.32,.86,1.54,.33c6.87,1.5,12.95-.24,15.8-1.32-1.13,2.01-3.43,5.54-6.86,8.15l-1.55,1.18h1.95c3.44,0,6.87-.33,10.21-.99-10.37,13.88-21.13,24.51-31.99,31.59l-1.32,.86,1.54,.33c8.58,1.87,16.15-.44,19.42-1.73-1.3,2.38-4.17,6.93-8.54,10.25l-1.55,1.18h1.95c11.13,0,19.32-2.85,22.61-4.21-.94,1.94-3.04,5.65-7.18,10.38l-1.03,1.17,1.55-.08c10.49-.53,20.44-3.22,29.59-8-.99,24.13-2.85,40.91-5.39,48.64h-31.43c.06-1.69-.61-3.3-1.88-4.5,1.64-1.61,2.23-3.87,1.54-6.06-.74-2.34-2.78-4-5.29-4.37,.31-2.15-.58-4.26-2.42-5.65-2.1-1.57-4.84-1.82-7.17-.7-1.16-2.05-3.4-3.31-5.9-3.26-2.54,.02-4.72,1.29-5.84,3.37-2.35-1.08-5.09-.78-7.15,.83-1.82,1.42-2.67,3.54-2.32,5.69-2.51,.42-4.51,2.11-5.21,4.46-.66,2.2-.03,4.44,1.65,6.03-1.16,1.14-1.8,2.6-1.82,4.16h-19.82c-2.61-8.11-3.85-25.99-4.43-40.13,7.6,3.94,15.85,6.16,24.54,6.6l1.55,.08-1.03-1.17c-3.27-3.73-5.01-6.7-5.84-8.37,2.91,1.18,9.61,3.41,18.61,3.41h1.95l-1.55-1.18c-3.47-2.64-5.8-6.21-6.94-8.24,2.88,1.09,9.02,2.85,15.96,1.34l1.54-.33-1.32-.86c-8.98-5.86-17.88-14.62-26.46-26.07,2.7,.52,5.47,.78,8.25,.78h1.95l-1.55-1.18c-2.7-2.05-4.56-4.79-5.54-6.49,2.5,.91,7.41,2.2,12.95,1l1.54-.33-1.32-.86c-7.89-5.15-15.69-13-23.19-23.36,1.63,.25,3.29,.37,4.95,.37h1.95l-1.55-1.18c-1.8-1.37-3.1-3.16-3.87-4.42,1.99,.66,5.47,1.45,9.34,.6l1.54-.33-1.32-.86c-19.41-12.65-32.29-43.23-35.77-52.29l-.61-1.6-.61,1.6c-3.48,9.07-16.36,39.64-35.77,52.29l-1.32,.86,1.54,.33c3.88,.84,7.35,.06,9.34-.6-.77,1.26-2.07,3.05-3.87,4.42l-1.55,1.18h1.95c1.66,0,3.32-.12,4.95-.37-7.5,10.36-15.3,18.22-23.19,23.36l-1.32,.86,1.54,.33c5.53,1.2,10.45-.09,12.95-1-.98,1.7-2.84,4.44-5.54,6.49l-1.55,1.18h1.95c2.78,0,5.54-.26,8.25-.78-8.58,11.45-17.48,20.21-26.46,26.07l-1.32,.86,1.54,.33c6.95,1.51,13.09-.25,15.96-1.34-1.14,2.03-3.47,5.6-6.94,8.24l-1.55,1.18h1.95c9,0,15.71-2.23,18.61-3.41-.83,1.67-2.57,4.64-5.84,8.37l-1.02,1.17,1.55-.08c8.69-.44,16.94-2.66,24.54-6.6-.82,19.81-2.35,33.64-4.43,40.13h-87.77c-2.6-7.34-3.37-25.43-3.6-35.93,1.47-1.13,2.67-2.53,3.59-4.18,2.43,4.34,6.9,6.99,11.97,6.99,5.37,0,10.07-2.96,12.38-7.77,5.31,.4,10.23-2.19,12.91-6.83,2.68-4.65,2.47-10.2-.54-14.6,2.72-3.99,3.17-8.94,1.18-13.35-1.94-4.28-5.86-7.27-10.37-7.96,1.32-4.09,.61-8.58-1.97-12.19-2.57-3.59-6.47-5.64-10.81-5.71,1.1-4.16,.14-8.62-2.65-12.1-2.87-3.58-7.12-5.41-11.7-5.06-2.31-4.8-7.01-7.77-12.38-7.77s-10.07,2.96-12.37,7.77c-4.6-.35-8.83,1.48-11.7,5.06-2.79,3.48-3.75,7.94-2.65,12.1-4.34,.07-8.25,2.12-10.82,5.72-2.58,3.6-3.29,8.1-1.97,12.19-4.51,.7-8.44,3.69-10.37,7.96-1.99,4.41-1.55,9.36,1.18,13.35-3.01,4.4-3.22,9.95-.54,14.6,2.68,4.65,7.6,7.24,12.91,6.84,2.31,4.8,7.01,7.77,12.38,7.77,5.07,0,9.55-2.65,11.97-6.99,.92,1.65,2.12,3.05,3.59,4.18-.23,10.5-1.01,28.59-3.6,35.93h-20.74c-.22-1.51-.97-2.89-2.16-3.92,1.73-1.49,2.43-3.75,1.84-6.09-.63-2.5-2.55-4.33-5-4.84,.73-2.23,.14-4.68-1.62-6.45-1.78-1.79-4.27-2.4-6.54-1.66-.51-2.43-2.34-4.33-4.83-4.96-2.36-.6-4.65,.1-6.16,1.83-1.66-1.9-4.17-2.67-6.62-1.97-2.29,.65-3.87,2.4-4.28,4.66-2.29-.81-4.75-.29-6.47,1.43-1.69,1.7-2.2,4.13-1.39,6.38-2.29,.41-4.05,1.99-4.7,4.29-.68,2.42,.1,4.9,1.99,6.55-1.39,1.2-2.11,2.9-2.03,4.76h-46.27c-2.27-7.85-4-23.14-5.15-45.48,11.67,6.85,24.41,10.69,37.9,11.42l1.49,.08-.95-1.16c-5.43-6.6-8-11.69-9.03-14.08,3.75,1.68,14.13,5.67,28.02,5.67h1.86l-1.44-1.17c-5.66-4.59-9.27-10.96-10.74-13.92,3.75,1.63,13.26,4.94,24.12,2.43l1.44-.34-1.22-.85c-14.38-10-28.59-25.37-42.23-45.7,4.44,1.37,10.83,2.75,18.49,2.75h1.86l-1.44-1.17c-4.75-3.86-7.82-9.16-9.16-11.8,3.4,1.44,11.49,4.14,20.7,2.01l1.45-.34-1.22-.85c-14.6-10.15-28.91-26.61-42.53-48.91,3.52,1.16,8.54,2.3,14.62,2.3h1.86l-1.44-1.17c-3.3-2.68-5.52-6.31-6.6-8.37,2.77,1.11,8.59,2.86,15.16,1.34l1.45-.34-1.22-.85c-10.88-7.56-21.53-19.82-31.69-36.44,2.64,.92,6.73,1.94,11.79,1.94h1.86l-1.44-1.17c-2.34-1.9-3.97-4.43-4.85-6.04,2.28,.86,6.57,2.01,11.39,.89l1.45-.34-1.22-.85c-23.07-16.04-38.37-54.78-42.51-66.26l-.62-1.72-.62,1.72c-4.14,11.49-19.45,50.23-42.51,66.26l-1.22,.85,1.45,.34c4.81,1.11,9.12-.03,11.39-.89-.88,1.61-2.51,4.14-4.86,6.04l-1.44,1.17h1.86c5.06,0,9.14-1.02,11.79-1.94-10.16,16.62-20.82,28.87-31.69,36.44l-1.22,.85,1.45,.34c6.57,1.52,12.39-.23,15.16-1.34-1.08,2.06-3.3,5.69-6.6,8.37l-1.44,1.17h1.86c6.08,0,11.1-1.14,14.62-2.3-13.62,22.31-27.92,38.76-42.53,48.91l-1.22,.85,1.45,.34c9.21,2.14,17.3-.57,20.7-2.01-1.33,2.63-4.41,7.94-9.16,11.8l-1.44,1.17h1.86c7.66,0,14.05-1.39,18.49-2.75-13.64,20.33-27.85,35.7-42.23,45.7l-1.22,.85,1.45,.34c10.85,2.52,20.37-.8,24.12-2.43-1.47,2.96-5.07,9.32-10.74,13.92l-1.44,1.17h1.86c13.89,0,24.26-3.99,28.02-5.67-1.04,2.39-3.61,7.48-9.03,14.08l-.95,1.16,1.49-.08c13.49-.73,26.23-4.57,37.9-11.42-1.14,22.33-2.87,37.62-5.15,45.48h-35.26c2.74-4.18,3.97-7.53,4.02-7.68l.35-.96-1.02,.08c-.19,.01-4.36,.37-9.72,2.27,.62-6.46-.35-11.32-.39-11.53l-.2-1-.83,.6c-.15,.11-3.5,2.57-7.06,6.94-1.6-7.87-5.14-13.44-5.29-13.68l-.55-.86-.55,.86c-.15,.23-3.49,5.5-5.15,13.03-3.36-3.97-6.37-6.18-6.51-6.28l-.83-.6-.2,1c-.04,.21-1.01,5.08-.39,11.53-5.36-1.9-9.53-2.25-9.72-2.27l-1.02-.08,.35,.96c.06,.15,1.29,3.5,4.02,7.68h-30.27c-2.58-8.05-3.81-25.77-4.39-39.79,7.53,3.9,15.72,6.1,24.34,6.54l1.55,.08-1.03-1.17c-3.24-3.7-4.96-6.63-5.79-8.29,2.89,1.17,9.54,3.37,18.45,3.37h1.95l-1.55-1.18c-3.44-2.61-5.74-6.15-6.87-8.16,2.86,1.08,8.95,2.82,15.83,1.32l1.54-.33-1.32-.86c-8.91-5.81-17.73-14.5-26.24-25.85,2.68,.51,5.42,.77,8.17,.77h1.95l-1.55-1.18c-2.67-2.03-4.51-4.74-5.49-6.43,2.48,.9,7.36,2.17,12.83,.99l1.54-.33-1.32-.86c-7.82-5.1-15.56-12.89-23-23.17,1.62,.24,3.26,.37,4.9,.37h1.95l-1.55-1.18c-1.78-1.36-3.06-3.12-3.83-4.37,1.98,.66,5.42,1.43,9.26,.59l1.54-.33-1.32-.86c-19.25-12.55-32.03-42.88-35.48-51.87l-.61-1.6-.61,1.6c-3.46,9-16.24,39.32-35.49,51.87l-1.32,.86,1.54,.33c3.83,.84,7.28,.06,9.26-.59-.77,1.25-2.05,3.02-3.83,4.37l-1.55,1.18h1.95c1.64,0,3.28-.12,4.9-.37-7.44,10.28-15.17,18.06-23,23.17l-1.32,.86,1.54,.33c5.48,1.19,10.35-.09,12.83-.99-.98,1.69-2.82,4.4-5.49,6.43l-1.55,1.18h1.95c2.75,0,5.49-.26,8.17-.77-8.51,11.35-17.33,20.04-26.24,25.85l-1.32,.86,1.54,.33c6.88,1.5,12.97-.24,15.82-1.32-1.13,2.02-3.44,5.55-6.87,8.16l-1.55,1.18h1.95c8.92,0,15.56-2.21,18.45-3.37-.83,1.66-2.55,4.59-5.79,8.29l-1.03,1.17,1.55-.08c8.62-.44,16.8-2.64,24.34-6.54-.58,14.02-1.81,31.74-4.39,39.79h-10.77c-.1-1.01-.54-1.96-1.27-2.71,1.18-1.21,1.6-2.88,1.09-4.5-.54-1.74-2.01-3-3.84-3.35,.18-1.59-.48-3.14-1.83-4.17-1.54-1.18-3.56-1.41-5.31-.65-.89-1.49-2.52-2.39-4.4-2.39h0c-1.88,0-3.51,.9-4.4,2.39-1.75-.76-3.77-.53-5.31,.65-1.35,1.03-2.02,2.58-1.83,4.17-1.84,.35-3.31,1.6-3.84,3.35-.5,1.63-.08,3.29,1.09,4.5-.73,.76-1.17,1.7-1.27,2.72h-39.13c-1.37-5.31-2.4-15.43-3.07-30.11,5.68,3.41,11.82,5.34,18.29,5.73l1.4,.08-.82-1.13c-2.41-3.31-3.73-5.96-4.4-7.52,2.4,1.12,7.4,3,14.01,3h1.7l-1.25-1.14c-2.57-2.35-4.32-5.51-5.21-7.39,2.35,1.02,6.91,2.44,12.04,1.1l1.29-.34-1.05-.82c-5.35-4.19-10.68-10.03-15.87-17.38,2.83,.57,5.75,.86,8.7,.86h2.08l-1.7-1.2c-2.4-1.69-4.09-3.93-5.03-5.41,2.38,.78,6.9,1.84,11.95,.82l1.66-.33-1.45-.87c-24.31-14.68-40.43-50.14-44.8-60.65l-.61-1.47-.61,1.47c-4.36,10.52-20.49,45.97-44.8,60.65l-1.45,.87,1.66,.33c5.06,1.02,9.57-.03,11.95-.82-.94,1.47-2.63,3.71-5.03,5.41l-1.7,1.2h2.08c2.95,0,5.87-.29,8.7-.86-5.19,7.35-10.53,13.19-15.87,17.38l-1.05,.82,1.29,.34c5.13,1.34,9.7-.08,12.04-1.1-.89,1.89-2.64,5.04-5.22,7.4l-1.25,1.14h1.7c6.61,0,11.62-1.88,14.01-3-.66,1.56-1.98,4.21-4.4,7.52l-.82,1.13,1.4-.08c6.47-.39,12.62-2.32,18.29-5.73-.67,14.68-1.7,24.8-3.07,30.11h-12.97c-.08-1.15-.58-2.21-1.41-3.06,1.29-1.31,1.76-3.11,1.21-4.87-.58-1.89-2.18-3.24-4.18-3.6,.22-1.72-.5-3.41-1.96-4.53-1.67-1.28-3.86-1.52-5.75-.68-.95-1.63-2.71-2.61-4.75-2.61s-3.8,.98-4.75,2.61c-1.93-.87-3.94-.53-5.42,.44,.13-1.79-.53-3.6-1.91-4.99-1.78-1.79-4.27-2.4-6.54-1.66-.51-2.43-2.33-4.33-4.83-4.96-2.37-.6-4.65,.1-6.16,1.83-1.66-1.9-4.17-2.67-6.62-1.97-2.29,.65-3.87,2.4-4.28,4.66-2.3-.82-4.76-.29-6.47,1.43-1.69,1.7-2.2,4.13-1.4,6.38-2.29,.41-4.05,1.99-4.7,4.29-.68,2.42,.1,4.9,1.99,6.55-1.39,1.2-2.11,2.9-2.03,4.76h-10.54c-2.98-9.12-4.39-29.5-5.05-45.57,8.6,4.48,17.93,7,27.77,7.5l1.55,.08-1.03-1.17c-3.83-4.37-5.8-7.81-6.7-9.66,3.15,1.3,10.81,3.92,21.17,3.92h1.95l-1.55-1.18c-4.04-3.08-6.71-7.27-7.96-9.53,3.14,1.22,10.18,3.33,18.18,1.59l1.54-.33-1.32-.86c-10.19-6.64-20.27-16.6-30-29.6,3.11,.61,6.3,.91,9.5,.91h1.95l-1.55-1.18c-3.16-2.41-5.3-5.65-6.39-7.55,2.73,1.02,8.39,2.59,14.77,1.2l1.54-.33-1.32-.86c-8.95-5.84-17.79-14.76-26.3-26.54,1.9,.3,3.84,.45,5.77,.45h1.95l-1.55-1.18c-2.14-1.63-3.65-3.77-4.5-5.21,2.19,.76,6.21,1.73,10.71,.75l1.54-.33-1.32-.86c-21.91-14.28-36.45-48.79-40.39-59.03l-.61-1.6-.61,1.6c-3.93,10.24-18.47,44.74-40.39,59.03l-1.32,.86,1.54,.33c4.5,.98,8.52,0,10.71-.75-.86,1.44-2.36,3.58-4.5,5.21l-1.55,1.18h1.95c1.93,0,3.87-.15,5.77-.45-8.5,11.78-17.35,20.7-26.3,26.54l-1.32,.86,1.54,.33c6.38,1.39,12.04-.18,14.77-1.2-1.08,1.9-3.22,5.14-6.39,7.55l-1.55,1.18h1.95c3.2,0,6.39-.31,9.5-.91-9.73,13.01-19.81,22.96-30,29.6l-1.32,.86,1.54,.33c7.99,1.73,15.04-.37,18.18-1.59-1.25,2.26-3.92,6.45-7.96,9.53l-1.55,1.18h1.95c10.36,0,18.02-2.62,21.17-3.92-.9,1.85-2.87,5.29-6.7,9.66l-1.03,1.17,1.55-.08c9.84-.5,19.18-3.02,27.77-7.5-.66,16.07-2.07,36.46-5.05,45.57h-8.55c2.26-3.51,3.28-6.29,3.33-6.42l.35-.96-1.02,.08c-.16,.01-3.7,.31-8.28,1.92,.5-5.52-.32-9.66-.35-9.84l-.2-1-.83,.6c-.13,.09-2.95,2.17-5.99,5.86-1.4-6.71-4.41-11.45-4.54-11.66l-.55-.86-.55,.86c-.13,.2-2.97,4.67-4.42,11.1-2.86-3.35-5.4-5.22-5.52-5.3l-.83-.6-.2,1c-.04,.18-.86,4.32-.36,9.84-4.57-1.6-8.12-1.9-8.28-1.92l-1.02-.08,.35,.96c.05,.13,1.07,2.9,3.33,6.42H0v1.32Z"/></g></svg>