<svg id="gecko" xmlns="http://www.w3.org/2000/svg" viewBox="0 0 302.41 93.64">
  <path id="gecko-2" d="M300.3,8.94c-5.26-3.18-7.99-2.12-14.51-4.24-5.66-6.27-8.38-5.31-13.24-2.63-19.43,1.82-25.87,17.31-36.1,24.55-13.68,9.68-30.97,11.37-67.26,8.41-19.77-1.61-28.03,12.25-42.06,18.16-7.5,3.16-40.64,13.61-57.26,11.82-26.48-2.85-55.44,1.33-69.87,12.83,15.93-8.05,46.66-4.2,59.68-2.65,47.87,5.7,54.76-5.41,76.47-4.84,1.87,.37,3.76,.54,5.73,.56,0,.03,0,.06-.01,.09,0,0-1.84,2.71,17.81,4.33-21.14-.38-24.67-1.49-25.23,4.47-2.3,.34-8.23-1.04-10.88-1.65-2.82-.65-3.25,3.56-1.61,3.82,4.95,.78,9.34,.98,11.76,1.53-1.9,3.32-3.93,3.46-5.87,4.21-3.38,1.3-1.93,4.03,.36,4.15,3.32,.18,7.17-5.28,9.13-5.04,2.22,.27,2.06,4.71,2.96,5.63,2.22,2.28,7.41,1.06,5.17-1.89-.22-.29-1.96-1.69-2.88-3.15,6.26,2.9,7.71,3.37,12.43,3.32,2.75-.03,.93-3.73-1.5-4.04-1.1-.14-4.33-.26-7.23-1.54,2.56,.21,8.92,1.25,10.37,1.3,3.36,.11,1.79-4.06-.85-4.43-2.54-.35-6.68,1.37-11.92,.12,.28-3.37,26.81,0,29.37-.49,5.11-.98,6.15-6.64,2.82-8.65,0,0-4.77-4.87-12.08-5.8,12.6,1.6,44.05,2.45,58.47,1.29-4.18,5.49-.9,6.27,.71,6.5,4.48,.65,9.26,1.15,18.29,4.15-1.26,4.07-7.34,4.28-8.94,5.4-1.02,.71-1.83,4.37,.65,4.31,5.15-.14,5.72-3.12,12.03-3.4,3.04-.14,5.09,4.65,8.67,4.82,5.7,.27,5.11-3.12,2.67-3.74-.55-.14-5.39-1.56-6.82-3.32,4.37,.31,7.9,2.85,11.73,3.02,3.97,.18,5.21-1.92,3.37-3.23-1.76-1.24-5.8-.5-10.96-2.87,4.22-1.45,4.49,.34,7.93-1.11,1.89-.8,.55-3.6-3.06-3.56-3.52,.03-5.23,2.77-9.24,2.6-7.7-2.02-11.86-5.27-16.87-6.63,4.04-1.89,6.44-5,9.36-6.38,18.86-8.94,14.88-25.88,25.73-28.05,16.31-3.26,18.44-12.5,22.17-13.86,13.86-5.06,14.33-11.83,10.44-14.19Z">
    <animate
      attributeName="d"
      repeatCount="1"
      begin=".8s"
      dur=".2s"
      fill="freeze"
      to="M248.93,.22c-8.08,2.36-3.37,7.72-6.76,12.13-2.19,3.7-2.36,14.85,.44,17.3-.17,8.08-.72,5.19-10.94,12.42-13.68,9.68-26.19,7.01-62.47,4.05-19.77-1.61-28.03,12.25-42.06,18.16-7.5,3.16-40.64,13.61-57.26,11.82-26.48-2.85-55.44,1.33-69.87,12.83,15.93-8.05,46.66-4.2,59.68-2.65,47.87,5.7,54.76-5.41,76.47-4.84,1.87,.37,3.76,.54,5.73,.56,0,.03,0,.06-.01,.09,0,0-1.84,2.71,17.81,4.33-21.14-.38-24.67-1.49-25.23,4.47-2.3,.34-8.23-1.04-10.88-1.65-2.82-.65-3.25,3.56-1.61,3.82,4.95,.78,9.34,.98,11.76,1.53-1.9,3.32-3.93,3.46-5.87,4.21-3.38,1.3-1.93,4.03,.36,4.15,3.32,.18,7.17-5.28,9.13-5.04,2.22,.27,2.06,4.71,2.96,5.63,2.22,2.28,7.41,1.06,5.17-1.89-.22-.29-1.96-1.69-2.88-3.15,6.26,2.9,7.71,3.37,12.43,3.32,2.75-.03,.93-3.73-1.5-4.04-1.1-.14-4.33-.26-7.23-1.54,2.56,.21,8.92,1.25,10.37,1.3,3.36,.11,1.79-4.06-.85-4.43-2.54-.35-6.68,1.37-11.92,.12,.28-3.37,26.81,0,29.37-.49,5.11-.98,6.15-6.64,2.82-8.65,0,0-4.77-4.87-12.08-5.8,12.6,1.6,44.05,2.45,58.47,1.29-4.18,5.49-.9,6.27,.71,6.5,4.48,.65,9.26,1.15,18.29,4.15-1.26,4.07-7.34,4.28-8.94,5.4-1.02,.71-1.83,4.37,.65,4.31,5.15-.14,5.72-3.12,12.03-3.4,3.04-.14,5.09,4.65,8.67,4.82,5.7,.27,5.11-3.12,2.67-3.74-.55-.14-5.39-1.56-6.82-3.32,4.37,.31,7.9,2.85,11.73,3.02,3.97,.18,5.21-1.92,3.37-3.23-1.76-1.24-5.8-.5-10.96-2.87,4.22-1.45,4.49,.34,7.93-1.11,1.89-.8,.55-3.6-3.06-3.56-3.52,.03-5.23,2.77-9.24,2.6-7.7-2.02-11.86-5.27-16.87-6.63,4.04-1.89,6.44-5,9.36-6.38,18.86-8.94,20.29-28.26,27.72-36.45,6.56-7.24,7.01-30.94-6.05-32.9-9.24-3.4-10.34-7.84-14.71-6.56Z"
    />
  </path>
</svg>