<svg xmlns="http://www.w3.org/2000/svg" viewBox="0 0 1536.02 98.82"><path class="cls-1" d="M0,98.32H105.18c-.15-1.37,.38-2.8,1.76-3.68-3.34-2.22-2.07-7.27,1.86-7.42-1.85-3.54,1.83-7.18,5.39-5.35,.15-3.91,5.24-5.17,7.47-1.85,2.1-3.23,7.24-1.77,7.55,2.15h0c.9-.44,1.82-.5,2.66-.31,.28-4.42,.42-8.77,.49-11.95-1.36-.99-2.52-2.37-3.29-4.13-3.56,8.07-15,8.07-18.56,0h0c-8.76,.95-14.49-8.96-9.28-16.07-4.78-6.53-.35-15.41,7.2-16.09-2.59-6.56,2.43-14.13,9.9-13.78-2.26-6.64,3.08-14.11,10.74-13.28h0c3.56-8.07,15-8.07,18.56,0,7.66-.83,13,6.63,10.74,13.28,7.47-.35,12.49,7.22,9.9,13.78,7.54,.67,11.98,9.56,7.2,16.09,5.21,7.11-.52,17.02-9.28,16.07-3.56,8.07-15,8.07-18.56,0-.78,1.76-1.93,3.14-3.29,4.13,.17,7.83,.76,22.64,2.88,28.42h62.09c1.12-2.92,1.69-8.74,1.97-13.84-3.54-1.16-6.66-3.6-8.43-7.33h0c-12.67,1.28-20.94-12.02-13.41-21.57-7.53-9.55,.74-22.85,13.41-21.57h0c5.14-10.83,21.68-10.83,26.83,0h0c12.67-1.28,20.94,12.02,13.41,21.57,7.53,9.55-.74,22.85-13.41,21.57h0c-1.77,3.73-4.89,6.17-8.43,7.33,.28,5.1,.85,10.91,1.97,13.84h8.89c-.09-1.36,.45-2.78,1.8-3.8-3.49-2.64-1.65-7.89,2.83-8.12-1.15-4.04,3.65-7.29,7.42-5.02h0c1.62-3.9,7.55-3.9,9.17,0,3.78-2.27,8.57,.98,7.42,5.02,4.49,.23,6.32,5.48,2.83,8.12,1.35,1.02,1.89,2.44,1.8,3.8h20.31c.81-2.65,1.17-8.01,1.34-12.26-8.31-1.23-14.61-7.1-14.61-15.47,0-9.44,8-19.82,17.88-19.82s17.88,10.38,17.88,19.82c0,8.37-6.3,14.24-14.61,15.47,.16,4.25,.52,9.61,1.34,12.26h43.2c.81-2.65,1.17-8.01,1.34-12.26-8.31-1.23-14.61-7.1-14.61-15.47,0-9.44,8-19.82,17.88-19.82s17.88,10.38,17.88,19.82c0,8.37-6.3,14.24-14.61,15.47,.16,4.25,.52,9.61,1.34,12.26h29.33V47.88h-3.98l19.05-22.1,19.05,22.1,8.45-.06,5.88-4.88,5.79,4.8,25.29-.17,5.58-4.62,5.49,4.55,6.25-.04,19.05,16.08h-3.93v34.79h27.22c.81-2.65,1.17-8.01,1.34-12.26-8.31-1.23-14.61-7.1-14.61-15.47,0-9.44,8-19.82,17.88-19.82s17.88,10.38,17.88,19.82c0,8.37-6.3,14.24-14.61,15.47,.16,4.25,.52,9.61,1.34,12.26h43.2c.81-2.65,1.17-8.01,1.34-12.26-8.31-1.23-14.61-7.1-14.61-15.47,0-9.44,8-19.82,17.88-19.82s17.88,10.38,17.88,19.82c0,8.37-6.3,14.24-14.61,15.47,.16,4.25,.52,9.61,1.34,12.26h28.58v-33.74h9.73v-24.24h-10.42l32.22-14.9h53.05l32.22,14.9h-10.42v12.31h12.43v15.44h-12.43v9.75c.41,.1,.83,.23,1.24,.45,.18-4.73,6.33-6.25,9.03-2.23,2.54-3.91,8.76-2.14,9.12,2.6h0c4.22-2.05,8.84,2.54,6.78,6.73h0c4.77,.37,6.55,6.55,2.61,9.07h0c1.48,.98,2.21,2.43,2.31,3.87h16.67c.96-3.39,1.3-10.95,1.42-15.87-1.8,.94-3.85,1.47-6.02,1.47-7.22,0-13.08-5.85-13.08-13.08,0-6.02,4.07-11.09,9.62-12.61-.25-1.01-.38-2.06-.38-3.14,0-7.22,5.85-13.08,13.08-13.08s13.08,5.85,13.08,13.08c0,1.08-.13,2.13-.38,3.14,5.54,1.52,9.62,6.59,9.62,12.61,0,7.22-5.85,13.08-13.08,13.08-2.17,0-4.22-.53-6.02-1.47,.12,4.92,.46,12.48,1.42,15.87h30.55V53.23h-4.18l22.33-17.69,5.7,4.51,19.17-15.19,34.83,27.59h-6.39v34.05h9.75v11.81h27.1c.81-2.65,1.17-8.01,1.34-12.26-8.31-1.23-14.61-7.1-14.61-15.47,0-9.44,8-19.82,17.88-19.82s17.88,10.38,17.88,19.82c0,8.37-6.3,14.24-14.61,15.47,.16,4.25,.52,9.61,1.34,12.26h43.2c.81-2.65,1.17-8.01,1.34-12.26-8.31-1.23-14.61-7.1-14.61-15.47,0-9.44,8-19.82,17.88-19.82s17.88,10.38,17.88,19.82c0,8.37-6.3,14.24-14.61,15.47,.16,4.25,.52,9.61,1.34,12.26h30.16V24.06l46.27,9.71v18.97l18.97,3.98v41.59h13.85V24.06l46.27,9.71v18.97l18.97,3.98v41.59h27.2c.81-2.65,1.17-8.01,1.34-12.26-8.31-1.23-14.61-7.1-14.61-15.47,0-9.44,8-19.82,17.88-19.82s17.88,10.38,17.88,19.82c0,8.37-6.3,14.24-14.61,15.47,.16,4.25,.52,9.61,1.34,12.26h26.43V37.91l67.38-19V98.32h16.59V53.23h-4.18l22.33-17.69,5.7,4.51,19.17-15.19,34.83,27.59h-6.39v34.05h9.75v11.81h7.73c-.19-1.84,.5-3.77,2.33-5.15h0c-4.53-3.44-2.15-10.27,3.69-10.57-1.5-5.26,4.74-9.48,9.65-6.53,2.11-5.08,9.82-5.08,11.93,0h0c4.91-2.95,11.15,1.27,9.65,6.53,5.84,.3,8.22,7.13,3.69,10.57h0c1.83,1.38,2.52,3.32,2.33,5.15h112.62m-201.9-45.36v9.9h13.95v-9.9h-13.95Zm0,21.59v9.86h13.89v-9.86h-13.89Zm-32.63-18.76v8.54h12.03v-8.54h-12.03Zm0,23.73v18.8h12.03v-18.8h-12.03Zm-56.07-39.38v17.96h17.96v-17.96h-17.96Zm-27.08,4.33v9.29h6.59v-9.29h-6.59Zm-2.56,35.55v18.29h11.72v-18.29h-11.72Zm-111.27-41v9.25h12.96v-9.25h-12.96Zm-18.58,0v9.25h12.96v-9.25h-12.96Zm0,39v9.25h12.96v-9.25h-12.96Zm18.58,0v20.29h12.96v-20.29h-12.96Zm-79.1-39v9.25h12.96v-9.25h-12.96Zm-18.58,0v9.25h12.96v-9.25h-12.96Zm0,39v9.25h12.96v-9.25h-12.96Zm18.58,0v20.29h12.96v-20.29h-12.96Zm-182.52-25.07v9.9h13.95v-9.9h-13.95Zm0,21.59v9.86h13.89v-9.86h-13.89Zm-32.63-18.76v8.54h12.03v-8.54h-12.03Zm0,23.73v18.8h12.03v-18.8h-12.03Zm-112.84-36.82v6.46h9.1v-6.46h-9.1Zm-76,.87v15.53h11.02v-15.53h-11.02Zm2.96,34.82v19.93h12.73v-19.93h-12.73Zm-165.92-28.69v4.65h6.55v-4.65h-6.55Zm-36.66,0v4.65h6.55v-4.65h-6.55Zm-2.58,30.34v8.31h11.71v-8.31h-11.71Zm-33.62-31.39v8.31h11.71v-8.31h-11.71Zm0,31.39v18.28h11.71v-18.28h-11.71Z"/></svg>