<?xml version="1.0" encoding="UTF-8"?><svg id="_イヤー_2" xmlns="http://www.w3.org/2000/svg" viewBox="0 0 1536.02 98.82"><defs><style>.cls-1{fill:none;stroke:#000;stroke-miterlimit:10;}</style></defs><g id="town"><path class="cls-1" d="M1536.02,98.32h-112.62c.19-1.84-.5-3.77-2.33-5.15h0c4.53-3.44,2.15-10.27-3.69-10.57,1.5-5.26-4.74-9.48-9.65-6.53h0c-2.11-5.08-9.82-5.08-11.93,0-4.91-2.95-11.15,1.27-9.65,6.53-5.84,.3-8.22,7.13-3.69,10.57h0c-1.83,1.38-2.52,3.32-2.33,5.15h-7.73v-11.81h-9.75V52.45h6.39l-34.83-27.59-19.17,15.19-5.7-4.51-22.33,17.69h4.18v45.09h-16.59V18.91l-67.38,19v60.4h-26.43c-.81-2.65-1.17-8.01-1.34-12.26,8.31-1.23,14.61-7.1,14.61-15.47,0-9.44-8-19.82-17.88-19.82s-17.88,10.38-17.88,19.82c0,8.37,6.3,14.24,14.61,15.47-.16,4.25-.52,9.61-1.34,12.26h-27.2V56.73l-18.97-3.98v-18.97l-46.27-9.71V98.32h-13.85V56.73l-18.97-3.98v-18.97l-46.27-9.71V98.32h-30.16c-.81-2.65-1.17-8.01-1.34-12.26,8.31-1.23,14.61-7.1,14.61-15.47,0-9.44-8-19.82-17.88-19.82s-17.88,10.38-17.88,19.82c0,8.37,6.3,14.24,14.61,15.47-.16,4.25-.52,9.61-1.34,12.26h-43.2c-.81-2.65-1.17-8.01-1.34-12.26,8.31-1.23,14.61-7.1,14.61-15.47,0-9.44-8-19.82-17.88-19.82s-17.88,10.38-17.88,19.82c0,8.37,6.3,14.24,14.61,15.47-.16,4.25-.52,9.61-1.34,12.26h-27.1v-11.81h-9.75V52.45h6.39l-34.83-27.59-19.17,15.19-5.7-4.51-22.33,17.69h4.18v45.09h-30.55c-.96-3.39-1.3-10.95-1.42-15.87,1.8,.94,3.85,1.47,6.02,1.47,7.22,0,13.08-5.85,13.08-13.08,0-6.02-4.07-11.09-9.62-12.61,.25-1.01,.38-2.06,.38-3.14,0-7.22-5.85-13.08-13.08-13.08s-13.08,5.85-13.08,13.08c0,1.08,.13,2.13,.38,3.14-5.54,1.52-9.62,6.59-9.62,12.61,0,7.22,5.85,13.08,13.08,13.08,2.17,0,4.22-.53,6.02-1.47-.12,4.92-.46,12.48-1.42,15.87h-16.67c-.1-1.44-.82-2.89-2.31-3.87h0c3.93-2.52,2.15-8.7-2.61-9.07h0c2.06-4.19-2.56-8.78-6.78-6.73h0c-.37-4.74-6.59-6.51-9.12-2.6-2.7-4.01-8.85-2.49-9.03,2.23-.42-.21-.83-.35-1.24-.45v-9.75h12.43v-15.44h-12.43v-12.31h10.42l-32.22-14.9h-53.05l-32.22,14.9h10.42v24.24h-9.73v33.74h-28.58c-.81-2.65-1.17-8.01-1.34-12.26,8.31-1.23,14.61-7.1,14.61-15.47,0-9.44-8-19.82-17.88-19.82s-17.88,10.38-17.88,19.82c0,8.37,6.3,14.24,14.61,15.47-.16,4.25-.52,9.61-1.34,12.26h-43.2c-.81-2.65-1.17-8.01-1.34-12.26,8.31-1.23,14.61-7.1,14.61-15.47,0-9.44-8-19.82-17.88-19.82s-17.88,10.38-17.88,19.82c0,8.37,6.3,14.24,14.61,15.47-.16,4.25-.52,9.61-1.34,12.26h-27.22V63.53h3.93l-19.05-16.08-6.25,.04-5.49-4.55-5.58,4.62-25.29,.17-5.79-4.8-5.88,4.88-8.45,.06-19.05-22.1-19.05,22.1h3.98v50.44h-29.33c-.81-2.65-1.17-8.01-1.34-12.26,8.31-1.23,14.61-7.1,14.61-15.47,0-9.44-8-19.82-17.88-19.82s-17.88,10.38-17.88,19.82c0,8.37,6.3,14.24,14.61,15.47-.16,4.25-.52,9.61-1.34,12.26h-43.2c-.81-2.65-1.17-8.01-1.34-12.26,8.31-1.23,14.61-7.1,14.61-15.47,0-9.44-8-19.82-17.88-19.82s-17.88,10.38-17.88,19.82c0,8.37,6.3,14.24,14.61,15.47-.16,4.25-.52,9.61-1.34,12.26h-20.31c.09-1.36-.45-2.78-1.8-3.8,3.49-2.64,1.65-7.89-2.83-8.12,1.15-4.04-3.65-7.29-7.42-5.02-1.62-3.9-7.55-3.9-9.17,0h0c-3.78-2.27-8.57,.98-7.42,5.02-4.49,.23-6.32,5.48-2.83,8.12-1.35,1.02-1.89,2.44-1.8,3.8h-8.89c-1.12-2.92-1.69-8.74-1.97-13.84,3.54-1.16,6.66-3.6,8.43-7.33h0c12.67,1.28,20.94-12.02,13.41-21.57,7.53-9.55-.74-22.85-13.41-21.57h0c-5.14-10.83-21.68-10.83-26.83,0h0c-12.67-1.28-20.94,12.02-13.41,21.57-7.53,9.55,.74,22.85,13.41,21.57h0c1.77,3.73,4.89,6.17,8.43,7.33-.28,5.1-.85,10.91-1.97,13.84h-62.09c-2.12-5.78-2.72-20.58-2.88-28.42,1.36-.99,2.52-2.37,3.29-4.13,3.56,8.07,15,8.07,18.56,0,8.76,.95,14.49-8.96,9.28-16.07,4.78-6.53,.35-15.41-7.2-16.09,2.59-6.56-2.43-14.13-9.9-13.78,2.26-6.64-3.08-14.11-10.74-13.28-3.56-8.07-15-8.07-18.56,0h0c-7.66-.83-13,6.63-10.74,13.28-7.47-.35-12.49,7.22-9.9,13.78-7.54,.67-11.98,9.56-7.2,16.09-5.21,7.11,.52,17.02,9.28,16.07h0c3.56,8.07,15,8.07,18.56,0,.78,1.76,1.93,3.14,3.29,4.13-.07,3.19-.21,7.53-.49,11.95-.84-.19-1.76-.13-2.66,.31h0c-.3-3.92-5.45-5.38-7.55-2.15-2.23-3.32-7.32-2.06-7.47,1.85-3.56-1.83-7.23,1.81-5.39,5.35-3.93,.14-5.2,5.2-1.86,7.42-1.38,.88-1.9,2.31-1.76,3.68H0M1334.11,52.96h13.95v9.9h-13.95v-9.9Zm0,21.59h13.89v9.86h-13.89v-9.86Zm-32.63-18.76h12.03v8.54h-12.03v-8.54Zm0,23.73h12.03v18.8h-12.03v-18.8Zm-56.07-39.38h17.96v17.96h-17.96v-17.96Zm-27.08,4.33h6.59v9.29h-6.59v-9.29Zm-2.56,35.55h11.72v18.29h-11.72v-18.29Zm-111.27-41h12.96v9.25h-12.96v-9.25Zm-18.58,0h12.96v9.25h-12.96v-9.25Zm0,39h12.96v9.25h-12.96v-9.25Zm18.58,0h12.96v20.29h-12.96v-20.29Zm-79.1-39h12.96v9.25h-12.96v-9.25Zm-18.58,0h12.96v9.25h-12.96v-9.25Zm0,39h12.96v9.25h-12.96v-9.25Zm18.58,0h12.96v20.29h-12.96v-20.29Zm-182.52-25.07h13.95v9.9h-13.95v-9.9Zm0,21.59h13.89v9.86h-13.89v-9.86Zm-32.63-18.76h12.03v8.54h-12.03v-8.54Zm0,23.73h12.03v18.8h-12.03v-18.8Zm-112.84-36.82h9.1v6.46h-9.1v-6.46Zm-76,.87h11.02v15.53h-11.02v-15.53Zm2.96,34.82h12.73v19.93h-12.73v-19.93Zm-165.92-28.69h6.55v4.65h-6.55v-4.65Zm-36.66,0h6.55v4.65h-6.55v-4.65Zm-2.58,30.34h11.71v8.31h-11.71v-8.31Zm-33.62-31.39h11.71v8.31h-11.71v-8.31Zm0,31.39h11.71v18.28h-11.71v-18.28Z"/></g></svg>